<?xml version="1.0" encoding="UTF-8" standalone="no"?>
<svg
   xmlns:dc="http://purl.org/dc/elements/1.1/"
   xmlns:cc="http://creativecommons.org/ns#"
   xmlns:rdf="http://www.w3.org/1999/02/22-rdf-syntax-ns#"
   xmlns:svg="http://www.w3.org/2000/svg"
   xmlns="http://www.w3.org/2000/svg"
   xmlns:sodipodi="http://sodipodi.sourceforge.net/DTD/sodipodi-0.dtd"
   xmlns:inkscape="http://www.inkscape.org/namespaces/inkscape"
   viewBox="0 0 184.34528 109.11681"
   version="1.1"
   id="svg24"
   sodipodi:docname="bottle-306487.svg"
   width="184.34528"
   height="109.11681"
   inkscape:version="0.92.2 (5c3e80d, 2017-08-06)">
  <metadata
     id="metadata30">
    <rdf:RDF>
      <cc:Work
         rdf:about="">
        <dc:format>image/svg+xml</dc:format>
        <dc:type
           rdf:resource="http://purl.org/dc/dcmitype/StillImage" />
        <dc:title></dc:title>
      </cc:Work>
    </rdf:RDF>
  </metadata>
  <defs
     id="defs28" />
  <sodipodi:namedview
     pagecolor="#ffffff"
     bordercolor="#666666"
     borderopacity="1"
     objecttolerance="10"
     gridtolerance="10"
     guidetolerance="10"
     inkscape:pageopacity="0"
     inkscape:pageshadow="2"
     inkscape:window-width="1920"
     inkscape:window-height="986"
     id="namedview26"
     showgrid="false"
     inkscape:zoom="0.95689898"
     inkscape:cx="-167.48653"
     inkscape:cy="58.791148"
     inkscape:window-x="-11"
     inkscape:window-y="-11"
     inkscape:window-maximized="1"
     inkscape:current-layer="svg24" />
  <path
     style="fill:#7f0000;stroke-width:2;stroke-linecap:round;stroke-linejoin:bevel"
     inkscape:connector-curvature="0"
     id="path2"
     d="m 168.6493,25.97681 c -4.9733,3.2988 -11.319,6.0162 -14.742,7.7309 -3.4231,1.7148 -4.041,1.764 -5.7287,2.6036 -2.325,-2.0294 -5.2096,-5.1792 -6.2737,-8.1033 -0.40979,-2.4576 -0.28997,-7.2461 -1.1279,-9.5298 0.004,-0.007 0.0436,0.007 0.0477,0 1.5577,-1.4746 2.6973,-1.8753 6.1588,-3.1517 3.4919,-1.2875 7.3516,-5.4495 12.533,-8.393 5.2116,-2.9608 7.7245,-3.8172 11.116,-7.1181 3.9934,-0.31204 7.1252,4.1817 9.1715,7.335 1.6024,2.9553 3.3668,8.6066 3.5413,11.394 -4.5971,2.885 -9.6557,3.8889 -14.696,7.2322 z" />
  <path
     style="stroke-width:2;stroke-linecap:round;stroke-linejoin:bevel"
     inkscape:connector-curvature="0"
     id="path4"
     d="m 169.6493,26.31681 c -4.9733,3.2988 -11.319,6.0162 -14.742,7.7309 -3.4231,1.7148 -4.041,1.764 -5.7287,2.6036 -2.325,-2.0294 -5.2096,-5.1792 -6.2737,-8.1033 -0.40979,-2.4576 -0.28997,-7.2461 -1.1279,-9.5298 0.004,-0.007 0.0436,0.007 0.0477,0 1.5577,-1.4746 2.6973,-1.8753 6.1588,-3.1517 3.4919,-1.2875 7.3516,-5.4495 12.533,-8.393 5.2116,-2.9608 7.7245,-3.8172 11.116,-7.1181 3.9934,-0.31204 7.1252,4.1817 9.1715,7.335 1.6024,2.9553 3.3668,8.6066 3.5413,11.394 -4.5971,2.885 -9.6557,3.8889 -14.696,7.2322 z m 10.097,-17.856 c -1.015,-3.0351 -3.9055,-6.5365 -7.0608,-6.7889 -0.22371,1.5744 0.87456,8.0034 2.5308,10.604 1.6289,2.5572 4.5095,4.0105 7.0864,4.7058 0.30111,-2.7549 -1.5414,-5.4854 -2.5564,-8.5205 z m -5.9264,4.393 c -1.0965,-2.8176 -2.4088,-5.9088 -2.844,-8.8915 -4.2754,1.8064 -5.5363,3.8376 -9.9323,5.8467 -4.3602,1.9928 -9.3347,6.3104 -12.387,7.7651 -3.0522,1.4546 -3.9553,1.4264 -5.5856,2.2697 0.66312,2.2881 0.62646,5.7559 1.1831,8.0767 0.91556,2.8425 3.1776,4.6689 5.0932,6.9499 2.0091,-0.40889 1.5417,-0.87245 4.645,-2.316 3.1414,-1.4612 10.768,-5.6913 15.106,-8.0688 4.2696,-2.3396 7.979,-3.5102 12.464,-5.726 -2.3525,-1.351 -6.3347,-3.5141 -7.7426,-5.9059 z" />
  <path
     style="opacity:0.41000001;stroke-width:2;stroke-linecap:round;stroke-linejoin:bevel"
     inkscape:connector-curvature="0"
     id="path6"
     d="m 26.5403,108.15181 c 3.379,-7.9867 4.3308,-15.641 3.4046,-23.873 -0.57527,-8.3364 -2.9144,-16.321 -6.2319,-23.99 -4.143,-7.2296 -10.882,-13.656 -17.315,-18.958 l 0.0881,0.5479 c 6.4503,4.9837 11.639,11.853 15.66,18.931 3.8424,7.4712 4.6011,15.7 5.6988,23.854 1.8544,8.2755 0.86482,15.404 -1.357,23.471 l 0.0517,0.0172 z" />
  <path
     style="fill:#00ffff;stroke-width:3.05180001;stroke-linecap:round;stroke-linejoin:bevel"
     d="M 26.533352,108.15184 C 29.912458,100.16512 30.864161,92.511362 29.93794,84.279131 29.362676,75.942835 27.023471,67.958105 23.706012,60.288932 19.562888,53.059217 12.823903,46.633042 6.3916246,41.33115 l 0.088044,0.547798 c -2.8233728,5.936514 -4.8758608,9.37574 -5.1737165,19.819915 -1.81078555,10.138995 0.1547568,26.625429 6.9690905,34.842401 3.5059084,6.941626 12.4887294,9.877606 18.2070394,11.593176 l 0.05173,0.0172 z"
     id="path8"
     inkscape:connector-curvature="0" />
  <path
     style="fill:#00ffff;stroke-width:3.05180001;stroke-linecap:round;stroke-linejoin:bevel"
     d="m 167.69131,28.486124 c -4.31708,4.029902 -9.87685,7.328135 -15.16668,10.15227 -0.14596,-0.990202 -1.07506,-1.300799 -1.81201,-1.812006 -3.87579,1.511053 -3.22179,2.298768 -10.87204,6.055992 -7.75416,3.808189 -8.86014,4.172421 -11.98899,8.731352 -3.45022,5.027383 -4.74189,11.940626 -7.3231,17.303706 -4.9221,10.22765 -13.64597,12.594626 -26.227172,16.54686 -12.580436,3.951776 -32.548973,10.42678 -43.678888,14.686792 -11.129304,4.26 -15.855627,5.84846 -23.698753,8.96466 C 19.948025,108.97709 13.129236,104.47991 8.6601801,98.815923 4.1914294,93.151935 0.29977402,86.641682 0.05303599,77.13441 -0.19362575,67.626527 0.209456,50.187016 5.9143231,40.033677 16.98961,37.62306 26.863404,31.950375 37.482142,28.378853 46.847811,25.22848 55.753269,21.484226 65.844046,17.958024 77.070397,14.035393 89.535169,7.8921196 99.40469,8.2638289 c 9.86922,0.371694 17.39984,7.2564171 22.03094,10.3951941 4.6302,3.138776 5.32112,0.765635 9.39375,-0.560097 4.01617,-1.307346 7.44059,-2.582128 11.3588,-3.777061 -0.0279,-1.983822 -0.12952,-3.143659 -0.62985,-5.1044402 5.00679,-1.797205 9.31349,-4.1730313 14.54366,-4.959175 0.0191,-0.00656 0.0286,-0.041092 0.0477,-0.047684 1.27473,1.3344759 2.38605,2.2314762 3.66719,3.6612445 l -4.37597,1.6072305 c 0.77952,4.0988722 2.45486,6.7791152 4.2716,10.4945292 0.16475,3.368272 9.33103,9.670544 3.51735,5.986411 l 3.50576,-1.149613 c 0.72723,1.014601 0.86849,2.516972 0.95669,3.676198 z"
     id="path10"
     inkscape:connector-curvature="0" />
  <path
     style="opacity:0.41000001;fill:#818d9c;stroke-width:2;stroke-linecap:round;stroke-linejoin:bevel;fill-opacity:1"
     inkscape:connector-curvature="0"
     id="path14"
     d="m 84.2503,87.58381 c -11.129,4.26 -49.484,18.416 -57.327,21.533 -6.9756,-0.13866 -13.794,-4.6358 -18.263,-10.3 -4.4686,-5.664 -8.3604,-12.174 -8.6071,-21.682 -0.24669,-9.5078 0.15639,-26.948 5.8613,-37.101 11.075,-2.4105 20.95,-8.0834 31.567,-11.655 9.3656,-3.1504 24.045,-8.593 34.137,-12.119 -8.8199,42.781 0.77798,44.358 12.632,71.324 z" />
  <path
     style="stroke-width:2;stroke-linecap:round;stroke-linejoin:bevel"
     inkscape:connector-curvature="0"
     id="path16"
     d="m 167.6923,28.48681 c -4.317,4.0299 -9.8769,7.3282 -15.167,10.152 -0.14597,-0.9902 -1.0751,-1.3008 -1.812,-1.812 -3.8758,1.511 -3.2218,2.2988 -10.872,6.0559 -7.7541,3.8081 -8.8602,4.1723 -11.989,8.7314 -3.4502,5.0274 -4.7419,11.941 -7.3232,17.304 -4.9221,10.228 -13.646,12.595 -26.226,16.546 -12.58,3.9518 -32.55,10.427 -43.679,14.687 -11.129,4.26 -15.856,5.8484 -23.699,8.9646 -6.9756,-0.13866 -13.794,-4.6358 -18.263,-10.3 -4.4686,-5.664 -8.3604,-12.174 -8.6071,-21.682 -0.24669,-9.5078 0.15639,-26.948 5.8613,-37.101 11.075,-2.4105 20.95,-8.0834 31.567,-11.655 9.3656,-3.1504 18.27,-6.8946 28.362,-10.421 11.226,-3.9226 23.691,-10.066 33.56,-9.6942 9.8692,0.3717 17.4,7.2564 22.03,10.395 4.6302,3.1388 5.3211,0.76562 9.3938,-0.5601 4.0162,-1.3073 7.4405,-2.5821 11.359,-3.777 -0.028,-1.9838 -0.12953,-3.1436 -0.62986,-5.1044 5.0068,-1.7972 9.3135,-4.1731 14.544,-4.9592 0.019,-0.007 0.0286,-0.0411 0.0477,-0.0477 1.2747,1.3345 2.386,2.2314 3.6672,3.6612 l -0.7705,0.766 c -1.1043,-1.4687 -1.6668,-1.4106 -2.8967,-2.7732 -0.22763,-0.30657 -0.65035,-0.74577 -0.95369,-0.70027 0.16741,5.0708 2.0383,10.068 4.5165,14.809 2.5574,4.8922 3.7066,4.8746 6.728,7.6441 0.10765,-1.1162 0.0932,-1.8807 -0.32627,-2.8596 l 0.6214,0.0522 c 0.72725,1.0146 0.86852,2.517 0.95671,3.6762 z m -2.6452,0.4783 c -2.7919,-2.7848 -4.5237,-3.2232 -6.9754,-8.2223 -2.49,-5.0771 -2.9059,-9.7011 -3.6908,-14.565 -4.2467,1.3521 -7.0956,1.1837 -11.188,4.2871 0.3295,5.8783 1.1732,11.056 3.3319,16.536 2.2212,3.5974 3.4597,7.1911 6.9604,9.6172 4.7995,-2.4612 7.3574,-4.319 11.562,-7.6531 h -1e-5 z m -14.841,6.9214 c -0.75564,-3.2132 -3.1121,-5.4881 -4.6426,-8.4534 -1.5162,-3.7069 -2.7967,-7.5636 -2.9564,-11.587 -3.9924,1.1696 -8.0878,2.6361 -11.683,3.8624 -3.536,1.2062 -6.4182,2.7308 -11.134,0.55228 -4.7869,-2.2114 -11.06,-10.773 -20.662,-10.207 -9.6013,0.56664 -20.635,5.2962 -31.647,9.2849 -9.3106,3.3724 -20.418,7.4814 -29.675,10.963 -10.665,4.0112 -20.632,8.5345 -31.529,11.961 -3.2729,10.86 -5.9814,25.158 -4.9115,34.619 1.07,9.461 4.2783,15.154 8.6691,21.129 4.3908,5.9751 9.5588,7.6749 16.491,9.0473 7.8608,-3.0096 12.526,-4.5355 23.559,-9.0432 11.033,-4.5077 30.828,-9.8908 43.481,-14.083 12.653,-4.1923 20.381,-5.6693 24.952,-15.81 4.6971,-10.422 4.5825,-10.864 7.7003,-16.635 3.1178,-5.7712 7.8044,-8.1314 12.362,-10.102 4.5571,-1.971 8.0737,-3.6552 11.626,-5.4969 z" />
  <path
     style="opacity:0.57900002;fill:#007fff;stroke-width:2;stroke-linecap:round;stroke-linejoin:bevel"
     inkscape:connector-curvature="0"
     id="path18"
     d="m 87.1503,64.10281 c 0.11418,11.901 -1.7048,21.323 -2.9088,23.461 -11.854,-26.966 -21.456,-28.507 -12.636,-71.288 12.044,13.174 15.398,32.526 15.545,47.827 z m -2.9088,23.461 c -12.069,5.8073 -22.512,9.6041 -31.472,11.778 12.464,-4.6502 25.646,-9.5482 31.472,-11.778 z" />
  <path
     style="opacity:0.41000001;fill:#303030;stroke-width:2;stroke-linecap:round;stroke-linejoin:bevel;fill-opacity:1"
     inkscape:connector-curvature="0"
     id="path20"
     d="m 26.5403,108.15181 c 3.379,-7.9867 4.3308,-15.641 3.4046,-23.873 -0.57527,-8.3364 -2.9144,-16.321 -6.2319,-23.99 -4.143,-7.2296 -10.882,-13.656 -17.315,-18.958 l 0.0881,0.5479 c -2.8234,5.9365 -4.8759,9.3757 -5.1737,19.82 -1.8108,10.139 0.1548,26.625 6.9691,34.843 3.5058,6.9416 12.489,9.8776 18.207,11.593 l 0.0517,0.0172 z" />
</svg>
