<?xml version="1.0" encoding="UTF-8"?>
<!DOCTYPE svg  PUBLIC '-//W3C//DTD SVG 1.1//EN'  'http://www.w3.org/Graphics/SVG/1.1/DTD/svg11.dtd'>
<svg enable-background="new 0 0 1000 1000" version="1.1" viewBox="0 0 1000 1000" xml:space="preserve" xmlns="http://www.w3.org/2000/svg">
		<polygon points="853.7 96.066 730.07 221.34 608.08 94.559" fill="#FE330A" opacity=".4"/>
		<polygon points="853.03 95.863 609.16 94.649 674.14 51.255 791.19 52.211" fill="#FD1A16" opacity=".3"/>
		<rect x="674.37" y="51.494" width="116.6" height="43.591" fill="#C2000B" opacity=".1"/>
		<polygon points="791.19 52.211 732.29 95.535 674.14 51.255" fill="#f00" opacity=".1"/>
		<polygon points="791.85 95.454 732.74 220.69 675.25 94.735" fill="#C2000B" opacity=".1"/>
		<polygon points="674.37 95.297 732.89 51.494 791.42 95.297" fill="#FE330A" opacity=".2"/>
		<g fill="#F2F2F2">
				<polygon points="653.31 106.56 637.13 97.95 622.88 108.24 633.86 94.722 621.05 80.225 637.32 90.748 651.49 78.544 641.66 94.414"/>
				<polygon points="637.84 113.23 633.79 96.441 615.92 93.73 634.16 92.036 637.1 73.55 639.68 91.697 659.03 93.052 639.68 97.119"/>
				<polygon points="685.62 112.17 675.56 106.4 666.7 113.29 673.52 104.23 665.56 94.518 675.68 101.57 684.48 93.391 678.37 104.03"/>
				<polygon points="676 116.64 673.48 105.38 662.37 103.57 673.71 102.43 675.54 90.044 677.14 102.21 689.17 103.12 677.14 105.84"/>
				<polygon points="844.14 98.865 838.12 96.05 832.82 99.414 836.9 94.994 832.14 90.254 838.19 93.695 843.46 89.704 839.8 94.894"/>
				<polygon points="838.38 101.05 836.88 95.556 830.23 94.67 837.01 94.116 838.11 88.071 839.07 94.005 846.26 94.448 839.07 95.778"/>
		</g>
		<g fill="#F2F2F2">
			<polygon points="781.63 137.15 775.61 134.33 770.31 137.7 774.39 133.28 769.63 128.54 775.68 131.98 780.95 127.99 777.3 133.18"/>
			<polygon points="775.88 139.33 774.37 133.84 767.72 132.95 774.5 132.4 775.6 126.35 776.56 132.29 783.76 132.73 776.56 134.06"/>
		</g>
		<polygon points="570.48 107.41 446.85 232.69 324.85 105.9" fill="#F7F06A"/>
		<polygon points="508.63 106.8 449.51 232.03 392.03 106.08" fill="#F2F8A9"/>
		<polygon points="569.8 107.21 325.94 105.99 390.92 62.598 507.97 63.554" fill="#F7FA80"/>
		<rect x="391.14" y="62.837" width="116.6" height="43.591" fill="#FD1A16" opacity=".1"/>
		<polygon points="391.14 106.64 449.67 62.837 508.2 106.64" fill="#F7F06A"/>
		<polygon points="507.97 63.554 449.07 106.88 390.92 62.598" fill="#F2F8A9"/>
		<g fill="#F2F2F2">
				<polygon points="370.09 117.9 353.91 109.29 339.66 119.58 350.63 106.06 337.83 91.568 354.1 102.09 368.26 89.887 358.44 105.76"/>
				<polygon points="354.62 124.58 350.57 107.78 332.69 105.07 350.94 103.38 353.88 84.893 356.46 103.04 375.8 104.4 356.46 108.46"/>
				<polygon points="402.4 123.51 392.34 117.74 383.47 124.64 390.3 115.58 382.34 105.86 392.45 112.91 401.26 104.73 395.15 115.37"/>
				<polygon points="392.77 127.98 390.26 116.73 379.14 114.91 390.49 113.78 392.32 101.39 393.92 113.55 405.95 114.46 393.92 117.18"/>
				<polygon points="498.41 148.49 492.39 145.68 487.09 149.04 491.17 144.62 486.41 139.88 492.46 143.32 497.73 139.33 494.07 144.52"/>
				<polygon points="492.65 150.67 491.14 145.18 484.5 144.3 491.28 143.74 492.38 137.7 493.34 143.63 500.53 144.07 493.34 145.4"/>
				<polygon points="560.92 110.21 554.9 107.39 549.59 110.76 553.68 106.34 548.91 101.6 554.97 105.04 560.24 101.05 556.58 106.24"/>
				<polygon points="555.16 112.39 553.65 106.9 547 106.01 553.79 105.46 554.89 99.414 555.84 105.35 563.04 105.79 555.84 107.12"/>
		</g>
		<polygon points="282.1 96.066 158.47 221.34 36.471 94.559" fill="#56BEC2"/>
		<polygon points="220.25 95.454 161.13 220.69 103.65 94.735" fill="#ADE0E6"/>
		<polygon points="281.42 95.863 37.561 94.649 102.54 51.255 219.59 52.211" fill="#C2E8EA"/>
		<rect x="102.76" y="51.494" width="116.6" height="43.591" fill="#97D8E6"/>
		<polygon points="102.76 95.297 161.29 51.494 219.82 95.297" fill="#68C5DC"/>
		<polygon points="219.59 52.211 160.69 95.535 102.54 51.255" fill="#ACD7E8" opacity=".4"/>
		<g fill="#F2F2F2">
				<polygon points="81.708 106.56 65.53 97.95 51.275 108.24 62.253 94.722 49.449 80.225 65.716 90.748 79.882 78.544 70.055 94.414"/>
				<polygon points="66.235 113.23 62.186 96.441 44.312 93.73 62.554 92.036 65.499 73.55 68.076 91.697 87.422 93.052 68.076 97.119"/>
				<polygon points="114.01 112.17 103.96 106.4 95.092 113.29 101.92 104.23 93.957 94.518 104.07 101.57 112.88 93.391 106.77 104.03"/>
				<polygon points="104.39 116.64 101.88 105.38 90.762 103.57 102.1 102.43 103.94 90.044 105.54 102.21 117.57 103.12 105.54 105.84"/>
				<polygon points="210.03 137.15 204.01 134.33 198.7 137.7 202.79 133.28 198.03 128.54 204.08 131.98 209.35 127.99 205.69 133.18"/>
				<polygon points="204.27 139.33 202.76 133.84 196.12 132.95 202.9 132.4 204 126.35 204.96 132.29 212.15 132.73 204.96 134.06"/>
				<polygon points="272.54 98.865 266.52 96.05 261.21 99.414 265.3 94.994 260.53 90.254 266.59 93.695 271.86 89.704 268.2 94.894"/>
				<polygon points="266.78 101.05 265.27 95.556 258.62 94.67 265.41 94.116 266.5 88.071 267.46 94.005 274.66 94.448 267.46 95.778"/>
		</g>
		<g fill="#F2F2F2">
			<polygon points="350.11 321.33 344.09 318.52 338.79 321.88 342.87 317.46 338.11 312.72 344.16 316.16 349.43 312.17 345.78 317.36"/>
			<polygon points="344.36 323.51 342.85 318.02 336.2 317.14 342.98 316.58 344.08 310.54 345.04 316.47 352.24 316.92 345.04 318.24"/>
		</g>
		<polygon points="359.67 318.53 236.05 443.81 114.05 317.03" fill="#AAA9D1"/>
		<polygon points="297.82 317.92 238.71 443.16 181.22 317.2" fill="#7F82BC" opacity=".5"/>
		<polygon points="359 318.33 115.14 317.12 180.11 273.72 297.16 274.68" fill="#AAAFD4"/>
		<rect x="180.34" y="273.96" width="116.6" height="43.591" fill="#7F82BC" opacity=".5"/>
		<polygon points="297.16 274.68 238.26 318 180.11 273.72" fill="#7F82BC" opacity=".5"/>
		<polygon points="180.34 317.76 238.87 273.96 297.39 317.76" fill="#AAA9D1" opacity=".4"/>
		<g fill="#F2F2F2">
				<polygon points="159.28 329.02 143.11 320.42 128.85 330.7 139.83 317.19 127.02 302.69 143.29 313.22 157.46 301.01 147.63 316.88"/>
				<polygon points="143.81 335.7 139.76 318.91 121.89 316.2 140.13 314.5 143.08 296.02 145.65 314.16 165 315.52 145.65 319.59"/>
				<polygon points="191.59 334.63 181.53 328.86 172.67 335.76 179.49 326.7 171.53 316.98 181.65 324.04 190.46 315.86 184.34 326.49"/>
				<polygon points="181.97 339.11 179.45 327.85 168.34 326.04 179.68 324.9 181.51 312.51 183.11 324.67 195.14 325.58 183.11 328.31"/>
				<polygon points="287.6 359.62 281.58 356.8 276.28 360.16 280.36 355.74 275.6 351 281.65 354.44 286.92 350.45 283.27 355.64"/>
				<polygon points="281.85 361.8 280.34 356.31 273.69 355.42 280.48 354.87 281.57 348.82 282.53 354.76 289.73 355.2 282.53 356.53"/>
				<polygon points="331.84 321.69 325.82 318.88 320.51 322.24 324.6 317.82 319.83 313.08 325.88 316.52 331.16 312.53 327.5 317.72"/>
				<polygon points="326.08 323.88 324.57 318.38 317.92 317.5 324.71 316.94 325.8 310.9 326.76 316.83 333.96 317.28 326.76 318.61"/>
		</g>
	<polygon points="647.36 340.06 523.73 465.34 401.73 338.55" fill="#80C41C" opacity=".6"/>
	<polygon points="585.51 339.45 526.39 464.68 468.91 338.73" fill="#80C41C" opacity=".4"/>
	<polygon points="646.68 339.86 402.82 338.64 467.8 295.25 584.85 296.2" fill="#80C41C" opacity=".4"/>
	<rect x="468.02" y="295.49" width="116.6" height="43.591" fill="#80C41C" opacity=".4"/>
	<polygon points="468.02 339.29 526.55 295.49 585.08 339.29" fill="#40A629" opacity=".1"/>
	<polygon points="584.85 296.2 525.94 339.53 467.8 295.25" fill="#80C41C" opacity=".4"/>
	<g fill="#F2F2F2">
			<polygon points="446.97 350.55 430.79 341.94 416.53 352.23 427.51 338.71 414.71 324.22 430.98 334.74 445.14 322.54 435.32 338.41"/>
			<polygon points="431.49 357.22 427.44 340.43 409.57 337.72 427.81 336.03 430.76 317.54 433.34 335.69 452.68 337.04 433.34 341.11"/>
			<polygon points="479.27 356.16 469.22 350.39 460.35 357.28 467.18 348.23 459.22 338.51 469.33 345.56 478.14 337.38 472.03 348.02"/>
			<polygon points="469.65 360.63 467.14 349.38 456.02 347.56 467.36 346.43 469.2 334.04 470.8 346.2 482.83 347.11 470.8 349.83"/>
			<polygon points="575.29 381.14 569.27 378.32 563.96 381.69 568.05 377.27 563.28 372.53 569.34 375.97 574.61 371.98 570.95 377.17"/>
			<polygon points="569.53 383.32 568.02 377.83 561.37 376.94 568.16 376.39 569.26 370.35 570.22 376.28 577.41 376.72 570.22 378.05"/>
			<polygon points="637.8 342.86 631.78 340.04 626.47 343.41 630.56 338.99 625.79 334.25 631.84 337.69 637.12 333.7 633.46 338.89"/>
			<polygon points="632.04 345.04 630.53 339.55 623.88 338.66 630.67 338.11 631.76 332.06 632.72 338 639.92 338.44 632.72 339.77"/>
	</g>
		<polygon points="947.41 319.96 823.78 445.24 701.78 318.46" fill="#F4136B" opacity=".5"/>
		<polygon points="885.56 319.35 826.44 444.58 768.96 318.63" fill="#F7A9C8"/>
		<polygon points="946.73 319.76 702.87 318.54 767.85 275.15 884.9 276.11" fill="#F77EBB" opacity=".5"/>
		<rect x="768.07" y="275.39" width="116.6" height="43.591" fill="#F0047F" opacity=".2"/>
		<polygon points="768.07 319.19 826.6 275.39 885.13 319.19" fill="#F4136B" opacity=".5"/>
		<polygon points="884.9 276.11 826 319.43 767.85 275.15" fill="#F0047F" opacity=".3"/>
		<g fill="#F2F2F2">
				<polygon points="747.02 330.45 730.84 321.85 716.58 332.13 727.56 318.62 714.76 304.12 731.02 314.64 745.19 302.44 735.36 318.31"/>
				<polygon points="731.54 337.13 727.5 320.34 709.62 317.63 727.86 315.93 730.81 297.45 733.38 315.59 752.73 316.95 733.38 321.02"/>
				<polygon points="779.32 336.06 769.26 330.29 760.4 337.19 767.23 328.13 759.27 318.41 769.38 325.47 778.19 317.29 772.08 327.92"/>
				<polygon points="769.7 340.54 767.18 329.28 756.07 327.46 767.41 326.33 769.24 313.94 770.85 326.1 782.88 327.01 770.85 329.74"/>
				<polygon points="875.34 361.04 869.32 358.23 864.02 361.59 868.1 357.17 863.34 352.43 869.39 355.87 874.66 351.88 871 357.07"/>
				<polygon points="869.58 363.23 868.07 357.74 861.42 356.85 868.21 356.3 869.31 350.25 870.26 356.18 877.46 356.63 870.26 357.96"/>
				<polygon points="937.84 322.76 931.83 319.95 926.52 323.31 930.61 318.89 925.84 314.15 931.9 317.59 937.16 313.6 933.51 318.79"/>
				<polygon points="932.09 324.94 930.58 319.45 923.93 318.57 930.72 318.01 931.81 311.97 932.77 317.9 939.97 318.34 932.77 319.67"/>
		</g>
		<polygon points="317.07 539.55 193.44 664.83 71.442 538.05" fill="#237D26" opacity=".7"/>
		<polygon points="316.39 539.35 72.532 538.14 137.51 494.74 254.56 495.7" fill="#41AA54" opacity=".5"/>
		<rect x="137.73" y="494.98" width="116.6" height="43.591" fill="#237D26" opacity=".3"/>
		<polygon points="137.73 538.78 196.26 494.98 254.79 538.78" fill="#12491D" opacity=".2"/>
		<polygon points="254.56 495.7 195.66 539.02 137.51 494.74" fill="#12491D" opacity=".2"/>
		<polygon points="255.22 538.94 196.1 664.18 138.62 538.22" fill="#fff" opacity=".5"/>
		<g fill="#F2F2F2">
				<polygon points="116.68 550.04 100.5 541.44 86.246 551.73 97.224 538.21 84.42 523.71 100.69 534.24 114.85 522.03 105.03 537.9"/>
				<polygon points="101.21 556.72 97.157 539.93 79.283 537.22 97.525 535.52 100.47 517.04 103.05 535.18 122.39 536.54 103.05 540.61"/>
				<polygon points="148.98 555.65 138.93 549.88 130.06 556.78 136.89 547.72 128.93 538 139.04 545.06 147.85 536.88 141.74 547.51"/>
				<polygon points="139.36 560.13 136.85 548.87 125.73 547.06 137.08 545.92 138.91 533.53 140.51 545.69 152.54 546.6 140.51 549.33"/>
				<polygon points="245 580.64 238.98 577.82 233.68 581.18 237.76 576.76 233 572.02 239.05 575.46 244.32 571.47 240.66 576.66"/>
				<polygon points="239.24 582.82 237.74 577.33 231.08 576.44 237.87 575.89 238.97 569.84 239.93 575.78 247.12 576.22 239.93 577.55"/>
				<polygon points="307.51 542.35 301.49 539.54 296.18 542.9 300.27 538.48 295.5 533.74 301.56 537.18 306.83 533.19 303.17 538.38"/>
				<polygon points="301.75 544.53 300.24 539.04 293.59 538.16 300.38 537.6 301.48 531.56 302.43 537.49 309.63 537.94 302.43 539.26"/>
		</g>
		<polygon points="631.44 572.91 507.82 698.19 385.82 571.41" fill="#BE894A" opacity=".6"/>
		<polygon points="569.6 572.3 510.48 697.54 452.99 571.58" fill="#BE894A" opacity=".5"/>
		<polygon points="630.77 572.71 386.91 571.5 451.88 528.1 568.71 528.34" fill="#BE894A" opacity=".4"/>
		<rect x="452.11" y="528.34" width="116.6" height="43.591" fill="#BE894A" opacity=".3"/>
		<polygon points="452.11 572.14 510.64 528.34 569.16 572.14" fill="#BE894A" opacity=".5"/>
		<polygon points="568.94 529.06 510.03 572.38 451.88 528.1" fill="#7C411E" opacity=".3"/>
		<g fill="#F2F2F2">
				<polygon points="431.05 583.41 414.88 574.8 400.62 585.09 411.6 571.57 398.8 557.07 415.06 567.6 429.23 555.39 419.4 571.26"/>
				<polygon points="415.58 590.08 411.53 573.29 393.66 570.58 411.9 568.88 414.84 550.4 417.42 568.55 436.77 569.9 417.42 573.97"/>
				<polygon points="463.36 589.01 453.3 583.24 444.44 590.14 451.26 581.08 443.3 571.37 453.42 578.42 462.22 570.24 456.12 580.88"/>
				<polygon points="453.74 593.49 451.22 582.23 440.11 580.42 451.45 579.28 453.28 566.89 454.88 579.06 466.91 579.96 454.88 582.69"/>
				<polygon points="559.37 614 553.36 611.18 548.05 614.55 552.14 610.13 547.37 605.38 553.42 608.83 558.69 604.84 555.04 610.02"/>
				<polygon points="553.62 616.18 552.11 610.69 545.46 609.8 552.25 609.25 553.34 603.2 554.3 609.14 561.5 609.58 554.3 610.91"/>
				<polygon points="621.88 575.71 615.86 572.9 610.56 576.26 614.64 571.84 609.88 567.1 615.93 570.54 621.2 566.55 617.55 571.74"/>
				<polygon points="616.12 577.9 614.62 572.4 607.97 571.52 614.76 570.96 615.85 564.92 616.81 570.85 624.01 571.3 616.81 572.63"/>
		</g>
		<polygon points="931.24 542.7 807.62 667.97 685.62 541.19" fill="#ccc"/>
		<polygon points="869.4 542.08 810.28 667.32 752.8 541.37" fill="#E5E5E5"/>
		<polygon points="930.57 542.49 686.71 541.28 751.68 497.89 868.74 498.84" fill="#999" opacity=".4"/>
		<rect x="751.91" y="498.12" width="116.6" height="43.591" fill="#E5E5E5" opacity=".5"/>
		<polygon points="751.91 541.93 810.44 498.12 868.97 541.93" fill="#B3B3B3" opacity=".5"/>
		<polygon points="868.74 498.84 809.83 542.16 751.68 497.89" fill="#B3B3B3" opacity=".4"/>
		<g fill="#F2F2F2">
				<polygon points="730.86 553.19 714.68 544.58 700.42 554.87 711.4 541.35 698.6 526.86 714.86 537.38 729.03 525.18 719.2 541.04"/>
				<polygon points="715.38 559.86 711.33 543.07 693.46 540.36 711.7 538.67 714.65 520.18 717.22 538.33 736.57 539.68 717.22 543.75"/>
				<polygon points="763.16 558.8 753.1 553.03 744.24 559.92 751.07 550.86 743.1 541.15 753.22 548.2 762.03 540.02 755.92 550.66"/>
				<polygon points="753.54 563.27 751.02 552.02 739.91 550.2 751.25 549.06 753.08 536.68 754.69 548.84 766.72 549.74 754.69 552.47"/>
				<polygon points="859.18 583.78 853.16 580.96 847.85 584.33 851.94 579.91 847.17 575.17 853.22 578.61 858.5 574.62 854.84 579.81"/>
				<polygon points="853.42 585.96 851.91 580.47 845.26 579.58 852.05 579.03 853.14 572.98 854.1 578.92 861.3 579.36 854.1 580.69"/>
				<polygon points="921.68 545.5 915.66 542.68 910.36 546.04 914.44 541.62 909.68 536.88 915.73 540.32 921 536.34 917.35 541.52"/>
				<polygon points="915.93 547.68 914.42 542.19 907.77 541.3 914.56 540.75 915.65 534.7 916.61 540.64 923.81 541.08 916.61 542.41"/>
		</g>
		<linearGradient id="p" x1="550.47" x2="796.1" y1="824.6" y2="824.6" gradientUnits="userSpaceOnUse">
			<stop stop-color="#386CAF" stop-opacity=".0306" offset="0"/>
			<stop stop-color="#386CB0" offset=".7296"/>
			<stop stop-color="#386CAF" stop-opacity="0" offset="1"/>
		</linearGradient>
		<linearGradient id="q" x1="549.29" x2="797.29" y1="824.7" y2="824.7" gradientUnits="userSpaceOnUse">
			<stop stop-color="#386CB0" offset="0"/>
			<stop stop-color="#386CAF" stop-opacity="0" offset="1"/>
		</linearGradient>
		<polygon points="796.1 762.71 672.47 887.99 550.47 761.2" fill="url(#p)" opacity=".8" stroke="url(#q)" stroke-miterlimit="10"/>
		<linearGradient id="r" x1="616.87" x2="735.04" y1="824.7" y2="824.7" gradientUnits="userSpaceOnUse">
			<stop stop-color="#386CB0" offset="0"/>
			<stop stop-color="#386CAF" stop-opacity="0" offset="1"/>
		</linearGradient>
		<polygon points="734.25 762.1 675.13 887.33 617.65 761.38" fill="#2E58A6" opacity=".2" stroke="url(#r)" stroke-miterlimit="10"/>
		<linearGradient id="s" x1="549.92" x2="797.01" y1="740.21" y2="740.21" gradientUnits="userSpaceOnUse">
			<stop stop-color="#386CB0" offset="0"/>
			<stop stop-color="#386CAF" stop-opacity="0" offset="1"/>
		</linearGradient>
		<polygon points="795.42 762.51 551.56 761.29 616.54 717.9 733.59 718.86" fill="#2E58A6" opacity=".3" stroke="url(#s)" stroke-miterlimit="10"/>
		<linearGradient id="t" x1="616.26" x2="733.86" y1="739.93" y2="739.93" gradientUnits="userSpaceOnUse">
			<stop stop-color="#386CB0" offset="0"/>
			<stop stop-color="#386CAF" stop-opacity="0" offset="1"/>
		</linearGradient>
			<rect x="616.76" y="718.14" width="116.6" height="43.591" fill="#00A0C6" opacity=".1" stroke="url(#t)" stroke-miterlimit="10"/>
		<linearGradient id="u" x1="616.76" x2="733.82" y1="740.04" y2="740.04" gradientUnits="userSpaceOnUse">
			<stop stop-color="#386CB0" offset="0"/>
			<stop stop-color="#386CAF" stop-opacity="0" offset="1"/>
		</linearGradient>
		<polygon points="616.76 761.94 675.29 718.14 733.82 761.94" fill="url(#u)"/>
		<linearGradient id="v" x1="616.54" x2="733.59" y1="740.04" y2="740.04" gradientUnits="userSpaceOnUse">
			<stop stop-color="#386CB0" offset="0"/>
			<stop stop-color="#386CAF" stop-opacity="0" offset="1"/>
		</linearGradient>
		<polygon points="733.59 718.86 674.68 762.18 616.54 717.9" fill="url(#v)" opacity=".4"/>
		<g fill="#F2F2F2">
				<polygon points="595.71 773.2 579.53 764.59 565.27 774.88 576.25 761.37 563.45 746.87 579.72 757.39 593.88 745.19 584.06 761.06"/>
				<polygon points="580.24 779.88 576.18 763.08 558.31 760.38 576.55 758.68 579.5 740.2 582.08 758.34 601.42 759.7 582.08 763.76"/>
				<polygon points="628.01 778.81 617.96 773.04 609.09 779.94 615.92 770.88 607.96 761.16 618.07 768.22 626.88 760.04 620.77 770.67"/>
				<polygon points="618.39 783.28 615.88 772.03 604.76 770.21 616.1 769.08 617.94 756.69 619.54 768.85 631.57 769.76 619.54 772.48"/>
				<polygon points="724.03 803.79 718.01 800.98 712.7 804.34 716.79 799.92 712.03 795.18 718.08 798.62 723.35 794.63 719.69 799.82"/>
				<polygon points="718.27 805.98 716.76 800.48 710.11 799.6 716.9 799.04 718 793 718.96 798.93 726.15 799.38 718.96 800.71"/>
				<polygon points="786.54 765.51 780.52 762.69 775.21 766.06 779.3 761.64 774.53 756.9 780.58 760.34 785.86 756.35 782.2 761.54"/>
				<polygon points="780.78 767.69 779.27 762.2 772.62 761.32 779.41 760.76 780.5 754.72 781.46 760.65 788.66 761.09 781.46 762.42"/>
		</g>
		<linearGradient id="w" x1="195.36" x2="440.99" y1="801.2" y2="801.2" gradientUnits="userSpaceOnUse">
			<stop stop-color="#FFFF25" offset="0"/>
			<stop stop-color="#FEE916" offset=".0595"/>
			<stop stop-color="#FED50E" offset=".1303"/>
			<stop stop-color="#FECA06" offset=".2032"/>
			<stop stop-color="#FEC600" offset=".2809"/>
			<stop stop-color="#FB7B1E" offset=".6685"/>
			<stop stop-color="#F9441B" offset=".8876"/>
			<stop stop-color="#F71818" offset="1"/>
		</linearGradient>
		<polygon points="440.99 739.31 317.36 864.59 195.36 737.81" fill="url(#w)" opacity=".6"/>
		<radialGradient id="x" cx="320.84" cy="800.96" r="60.684" gradientUnits="userSpaceOnUse">
			<stop stop-color="#FFFF25" offset="0"/>
			<stop stop-color="#FEE916" offset=".0595"/>
			<stop stop-color="#FED50E" offset=".1303"/>
			<stop stop-color="#FECA06" offset=".2032"/>
			<stop stop-color="#FEC600" offset=".2809"/>
			<stop stop-color="#FB7B1E" offset=".6685"/>
			<stop stop-color="#F9441B" offset=".8876"/>
			<stop stop-color="#F71818" offset="1"/>
		</radialGradient>
		<polygon points="379.14 738.7 320.03 863.94 262.54 737.98" fill="url(#x)" opacity=".2"/>
		<radialGradient id="m" cx="318.39" cy="716.81" r="87.648" gradientUnits="userSpaceOnUse">
			<stop stop-color="#FFFF25" offset="0"/>
			<stop stop-color="#FEE916" offset=".0595"/>
			<stop stop-color="#FED50E" offset=".1303"/>
			<stop stop-color="#FECA06" offset=".2032"/>
			<stop stop-color="#FEC600" offset=".2809"/>
			<stop stop-color="#FB7B1E" offset=".6685"/>
			<stop stop-color="#F9441B" offset=".8876"/>
			<stop stop-color="#F71818" offset="1"/>
		</radialGradient>
		<polygon points="440.32 739.11 196.46 737.9 261.43 694.5 378.26 694.74" fill="url(#m)" opacity=".4"/>
		<rect x="261.66" y="694.74" width="116.6" height="43.591" fill="#FF8000" opacity=".2"/>
		<linearGradient id="n" x1="261.66" x2="378.71" y1="716.64" y2="716.64" gradientUnits="userSpaceOnUse">
			<stop stop-color="#FFFF25" offset="0"/>
			<stop stop-color="#FEE916" offset=".0595"/>
			<stop stop-color="#FED50E" offset=".1303"/>
			<stop stop-color="#FECA06" offset=".2032"/>
			<stop stop-color="#FEC600" offset=".2809"/>
			<stop stop-color="#FB7B1E" offset=".6685"/>
			<stop stop-color="#F9441B" offset=".8876"/>
			<stop stop-color="#F71818" offset="1"/>
		</linearGradient>
		<polygon points="261.66 738.54 320.18 694.74 378.71 738.54" fill="url(#n)" opacity=".4"/>
		<linearGradient id="o" x1="261.43" x2="378.48" y1="716.64" y2="716.64" gradientUnits="userSpaceOnUse">
			<stop stop-color="#FFFF25" offset="0"/>
			<stop stop-color="#FEE916" offset=".0595"/>
			<stop stop-color="#FED50E" offset=".1303"/>
			<stop stop-color="#FECA06" offset=".2032"/>
			<stop stop-color="#FEC600" offset=".2809"/>
			<stop stop-color="#FB7B1E" offset=".6685"/>
			<stop stop-color="#F9441B" offset=".8876"/>
			<stop stop-color="#F71818" offset="1"/>
		</linearGradient>
		<polygon points="378.48 695.46 319.58 738.78 261.43 694.5" fill="url(#o)" opacity=".4"/>
		<g fill="#F2F2F2">
				<polygon points="240.6 749.8 224.42 741.2 210.17 751.49 221.15 737.97 208.34 723.47 224.61 734 238.78 721.79 228.95 737.66"/>
				<polygon points="225.13 756.48 221.08 739.69 203.21 736.98 221.45 735.28 224.39 716.8 226.97 734.94 246.32 736.3 226.97 740.37"/>
				<polygon points="272.91 755.41 262.85 749.64 253.99 756.54 260.81 747.48 252.85 737.76 262.96 744.82 271.77 736.64 265.66 747.27"/>
				<polygon points="263.29 759.89 260.77 748.63 249.66 746.82 261 745.68 262.83 733.29 264.43 745.45 276.46 746.36 264.43 749.09"/>
				<polygon points="368.92 780.4 362.9 777.58 357.6 780.94 361.68 776.52 356.92 771.78 362.97 775.22 368.24 771.24 364.59 776.42"/>
				<polygon points="363.16 782.58 361.66 777.09 355.01 776.2 361.8 775.65 362.89 769.6 363.85 775.54 371.05 775.98 363.85 777.31"/>
				<polygon points="431.43 742.11 425.41 739.3 420.11 742.66 424.19 738.24 419.43 733.5 425.48 736.94 430.75 732.95 427.09 738.14"/>
				<polygon points="425.67 744.3 424.17 738.8 417.52 737.92 424.3 737.36 425.4 731.32 426.36 737.25 433.56 737.7 426.36 739.03"/>
		</g>
</svg>
