<?xml version="1.0" encoding="UTF-8" standalone="no"?>
<svg
   xmlns:dc="http://purl.org/dc/elements/1.1/"
   xmlns:cc="http://creativecommons.org/ns#"
   xmlns:rdf="http://www.w3.org/1999/02/22-rdf-syntax-ns#"
   xmlns:svg="http://www.w3.org/2000/svg"
   xmlns="http://www.w3.org/2000/svg"
   xmlns:sodipodi="http://sodipodi.sourceforge.net/DTD/sodipodi-0.dtd"
   xmlns:inkscape="http://www.inkscape.org/namespaces/inkscape"
   enable-background="new 0 0 1000 1000"
   version="1.1"
   viewBox="0 0 1000 1000"
   xml:space="preserve"
   id="svg462"
   sodipodi:docname="diamant.svg"
   inkscape:version="0.92.2 (5c3e80d, 2017-08-06)"><metadata
     id="metadata468"><rdf:RDF><cc:Work
         rdf:about=""><dc:format>image/svg+xml</dc:format><dc:type
           rdf:resource="http://purl.org/dc/dcmitype/StillImage" /><dc:title></dc:title></cc:Work></rdf:RDF></metadata><defs
     id="defs466" /><sodipodi:namedview
     pagecolor="#ffffff"
     bordercolor="#666666"
     borderopacity="1"
     objecttolerance="10"
     gridtolerance="10"
     guidetolerance="10"
     inkscape:pageopacity="0"
     inkscape:pageshadow="2"
     inkscape:window-width="1920"
     inkscape:window-height="986"
     id="namedview464"
     showgrid="false"
     inkscape:zoom="0.236"
     inkscape:cx="500"
     inkscape:cy="500"
     inkscape:window-x="-11"
     inkscape:window-y="-11"
     inkscape:window-maximized="1"
     inkscape:current-layer="svg462" /><polygon
     points="282.1 96.066 158.47 221.34 36.471 94.559"
     fill="#56BEC2"
     id="polygon64" /><polygon
     points="220.25 95.454 161.13 220.69 103.65 94.735"
     fill="#ADE0E6"
     id="polygon66" /><polygon
     points="281.42 95.863 37.561 94.649 102.54 51.255 219.59 52.211"
     fill="#C2E8EA"
     id="polygon68" /><rect
     x="102.76"
     y="51.494"
     width="116.6"
     height="43.591"
     fill="#97D8E6"
     id="rect70" /><polygon
     points="102.76 95.297 161.29 51.494 219.82 95.297"
     fill="#68C5DC"
     id="polygon72" /><polygon
     points="219.59 52.211 160.69 95.535 102.54 51.255"
     fill="#ACD7E8"
     opacity=".4"
     id="polygon74" /><g
     fill="#F2F2F2"
     id="g92"><polygon
       points="81.708 106.56 65.53 97.95 51.275 108.24 62.253 94.722 49.449 80.225 65.716 90.748 79.882 78.544 70.055 94.414"
       id="polygon76" /><polygon
       points="66.235 113.23 62.186 96.441 44.312 93.73 62.554 92.036 65.499 73.55 68.076 91.697 87.422 93.052 68.076 97.119"
       id="polygon78" /><polygon
       points="114.01 112.17 103.96 106.4 95.092 113.29 101.92 104.23 93.957 94.518 104.07 101.57 112.88 93.391 106.77 104.03"
       id="polygon80" /><polygon
       points="104.39 116.64 101.88 105.38 90.762 103.57 102.1 102.43 103.94 90.044 105.54 102.21 117.57 103.12 105.54 105.84"
       id="polygon82" /><polygon
       points="210.03 137.15 204.01 134.33 198.7 137.7 202.79 133.28 198.03 128.54 204.08 131.98 209.35 127.99 205.69 133.18"
       id="polygon84" /><polygon
       points="204.27 139.33 202.76 133.84 196.12 132.95 202.9 132.4 204 126.35 204.96 132.29 212.15 132.73 204.96 134.06"
       id="polygon86" /><polygon
       points="272.54 98.865 266.52 96.05 261.21 99.414 265.3 94.994 260.53 90.254 266.59 93.695 271.86 89.704 268.2 94.894"
       id="polygon88" /><polygon
       points="266.78 101.05 265.27 95.556 258.62 94.67 265.41 94.116 266.5 88.071 267.46 94.005 274.66 94.448 267.46 95.778"
       id="polygon90" /></g><linearGradient
     id="p"
     x1="550.47"
     x2="796.1"
     y1="824.6"
     y2="824.6"
     gradientUnits="userSpaceOnUse"><stop
       stop-color="#386CAF"
       stop-opacity=".0306"
       offset="0"
       id="stop280" /><stop
       stop-color="#386CB0"
       offset=".7296"
       id="stop282" /><stop
       stop-color="#386CAF"
       stop-opacity="0"
       offset="1"
       id="stop284" /></linearGradient><linearGradient
     id="q"
     x1="549.29"
     x2="797.29"
     y1="824.7"
     y2="824.7"
     gradientUnits="userSpaceOnUse"><stop
       stop-color="#386CB0"
       offset="0"
       id="stop287" /><stop
       stop-color="#386CAF"
       stop-opacity="0"
       offset="1"
       id="stop289" /></linearGradient><linearGradient
     id="r"
     x1="616.87"
     x2="735.04"
     y1="824.7"
     y2="824.7"
     gradientUnits="userSpaceOnUse"><stop
       stop-color="#386CB0"
       offset="0"
       id="stop294" /><stop
       stop-color="#386CAF"
       stop-opacity="0"
       offset="1"
       id="stop296" /></linearGradient><linearGradient
     id="s"
     x1="549.92"
     x2="797.01"
     y1="740.21"
     y2="740.21"
     gradientUnits="userSpaceOnUse"><stop
       stop-color="#386CB0"
       offset="0"
       id="stop301" /><stop
       stop-color="#386CAF"
       stop-opacity="0"
       offset="1"
       id="stop303" /></linearGradient><linearGradient
     id="t"
     x1="616.26"
     x2="733.86"
     y1="739.93"
     y2="739.93"
     gradientUnits="userSpaceOnUse"><stop
       stop-color="#386CB0"
       offset="0"
       id="stop308" /><stop
       stop-color="#386CAF"
       stop-opacity="0"
       offset="1"
       id="stop310" /></linearGradient><linearGradient
     id="u"
     x1="616.76"
     x2="733.82"
     y1="740.04"
     y2="740.04"
     gradientUnits="userSpaceOnUse"><stop
       stop-color="#386CB0"
       offset="0"
       id="stop315" /><stop
       stop-color="#386CAF"
       stop-opacity="0"
       offset="1"
       id="stop317" /></linearGradient><linearGradient
     id="v"
     x1="616.54"
     x2="733.59"
     y1="740.04"
     y2="740.04"
     gradientUnits="userSpaceOnUse"><stop
       stop-color="#386CB0"
       offset="0"
       id="stop322" /><stop
       stop-color="#386CAF"
       stop-opacity="0"
       offset="1"
       id="stop324" /></linearGradient><linearGradient
     id="w"
     x1="195.36"
     x2="440.99"
     y1="801.2"
     y2="801.2"
     gradientUnits="userSpaceOnUse"><stop
       stop-color="#FFFF25"
       offset="0"
       id="stop347" /><stop
       stop-color="#FEE916"
       offset=".0595"
       id="stop349" /><stop
       stop-color="#FED50E"
       offset=".1303"
       id="stop351" /><stop
       stop-color="#FECA06"
       offset=".2032"
       id="stop353" /><stop
       stop-color="#FEC600"
       offset=".2809"
       id="stop355" /><stop
       stop-color="#FB7B1E"
       offset=".6685"
       id="stop357" /><stop
       stop-color="#F9441B"
       offset=".8876"
       id="stop359" /><stop
       stop-color="#F71818"
       offset="1"
       id="stop361" /></linearGradient><polygon
     points="440.99 739.31 317.36 864.59 195.36 737.81"
     fill="url(#w)"
     opacity=".6"
     id="polygon364" /><radialGradient
     id="x"
     cx="320.84"
     cy="800.96"
     r="60.684"
     gradientUnits="userSpaceOnUse"><stop
       stop-color="#FFFF25"
       offset="0"
       id="stop366" /><stop
       stop-color="#FEE916"
       offset=".0595"
       id="stop368" /><stop
       stop-color="#FED50E"
       offset=".1303"
       id="stop370" /><stop
       stop-color="#FECA06"
       offset=".2032"
       id="stop372" /><stop
       stop-color="#FEC600"
       offset=".2809"
       id="stop374" /><stop
       stop-color="#FB7B1E"
       offset=".6685"
       id="stop376" /><stop
       stop-color="#F9441B"
       offset=".8876"
       id="stop378" /><stop
       stop-color="#F71818"
       offset="1"
       id="stop380" /></radialGradient><polygon
     points="379.14 738.7 320.03 863.94 262.54 737.98"
     fill="url(#x)"
     opacity=".2"
     id="polygon383" /><radialGradient
     id="m"
     cx="318.39"
     cy="716.81"
     r="87.648"
     gradientUnits="userSpaceOnUse"><stop
       stop-color="#FFFF25"
       offset="0"
       id="stop385" /><stop
       stop-color="#FEE916"
       offset=".0595"
       id="stop387" /><stop
       stop-color="#FED50E"
       offset=".1303"
       id="stop389" /><stop
       stop-color="#FECA06"
       offset=".2032"
       id="stop391" /><stop
       stop-color="#FEC600"
       offset=".2809"
       id="stop393" /><stop
       stop-color="#FB7B1E"
       offset=".6685"
       id="stop395" /><stop
       stop-color="#F9441B"
       offset=".8876"
       id="stop397" /><stop
       stop-color="#F71818"
       offset="1"
       id="stop399" /></radialGradient><polygon
     points="440.32 739.11 196.46 737.9 261.43 694.5 378.26 694.74"
     fill="url(#m)"
     opacity=".4"
     id="polygon402" /><rect
     x="261.66"
     y="694.74"
     width="116.6"
     height="43.591"
     fill="#FF8000"
     opacity=".2"
     id="rect404" /><linearGradient
     id="n"
     x1="261.66"
     x2="378.71"
     y1="716.64"
     y2="716.64"
     gradientUnits="userSpaceOnUse"><stop
       stop-color="#FFFF25"
       offset="0"
       id="stop406" /><stop
       stop-color="#FEE916"
       offset=".0595"
       id="stop408" /><stop
       stop-color="#FED50E"
       offset=".1303"
       id="stop410" /><stop
       stop-color="#FECA06"
       offset=".2032"
       id="stop412" /><stop
       stop-color="#FEC600"
       offset=".2809"
       id="stop414" /><stop
       stop-color="#FB7B1E"
       offset=".6685"
       id="stop416" /><stop
       stop-color="#F9441B"
       offset=".8876"
       id="stop418" /><stop
       stop-color="#F71818"
       offset="1"
       id="stop420" /></linearGradient><polygon
     points="261.66 738.54 320.18 694.74 378.71 738.54"
     fill="url(#n)"
     opacity=".4"
     id="polygon423" /><linearGradient
     id="o"
     x1="261.43"
     x2="378.48"
     y1="716.64"
     y2="716.64"
     gradientUnits="userSpaceOnUse"><stop
       stop-color="#FFFF25"
       offset="0"
       id="stop425" /><stop
       stop-color="#FEE916"
       offset=".0595"
       id="stop427" /><stop
       stop-color="#FED50E"
       offset=".1303"
       id="stop429" /><stop
       stop-color="#FECA06"
       offset=".2032"
       id="stop431" /><stop
       stop-color="#FEC600"
       offset=".2809"
       id="stop433" /><stop
       stop-color="#FB7B1E"
       offset=".6685"
       id="stop435" /><stop
       stop-color="#F9441B"
       offset=".8876"
       id="stop437" /><stop
       stop-color="#F71818"
       offset="1"
       id="stop439" /></linearGradient><polygon
     points="378.48 695.46 319.58 738.78 261.43 694.5"
     fill="url(#o)"
     opacity=".4"
     id="polygon442" /><g
     fill="#F2F2F2"
     id="g460"><polygon
       points="240.6 749.8 224.42 741.2 210.17 751.49 221.15 737.97 208.34 723.47 224.61 734 238.78 721.79 228.95 737.66"
       id="polygon444" /><polygon
       points="225.13 756.48 221.08 739.69 203.21 736.98 221.45 735.28 224.39 716.8 226.97 734.94 246.32 736.3 226.97 740.37"
       id="polygon446" /><polygon
       points="272.91 755.41 262.85 749.64 253.99 756.54 260.81 747.48 252.85 737.76 262.96 744.82 271.77 736.64 265.66 747.27"
       id="polygon448" /><polygon
       points="263.29 759.89 260.77 748.63 249.66 746.82 261 745.68 262.83 733.29 264.43 745.45 276.46 746.36 264.43 749.09"
       id="polygon450" /><polygon
       points="368.92 780.4 362.9 777.58 357.6 780.94 361.68 776.52 356.92 771.78 362.97 775.22 368.24 771.24 364.59 776.42"
       id="polygon452" /><polygon
       points="363.16 782.58 361.66 777.09 355.01 776.2 361.8 775.65 362.89 769.6 363.85 775.54 371.05 775.98 363.85 777.31"
       id="polygon454" /><polygon
       points="431.43 742.11 425.41 739.3 420.11 742.66 424.19 738.24 419.43 733.5 425.48 736.94 430.75 732.95 427.09 738.14"
       id="polygon456" /><polygon
       points="425.67 744.3 424.17 738.8 417.52 737.92 424.3 737.36 425.4 731.32 426.36 737.25 433.56 737.7 426.36 739.03"
       id="polygon458" /></g></svg>