<?xml version="1.0" encoding="UTF-8" standalone="no"?>
<svg
   xmlns:dc="http://purl.org/dc/elements/1.1/"
   xmlns:cc="http://creativecommons.org/ns#"
   xmlns:rdf="http://www.w3.org/1999/02/22-rdf-syntax-ns#"
   xmlns:svg="http://www.w3.org/2000/svg"
   xmlns="http://www.w3.org/2000/svg"
   xmlns:xlink="http://www.w3.org/1999/xlink"
   xmlns:sodipodi="http://sodipodi.sourceforge.net/DTD/sodipodi-0.dtd"
   xmlns:inkscape="http://www.inkscape.org/namespaces/inkscape"
   viewBox="0 0 554.50921 594.41058"
   version="1.1"
   id="svg106"
   sodipodi:docname="gems-44532.svg"
   width="554.50922"
   height="594.41058"
   inkscape:version="0.92.2 (5c3e80d, 2017-08-06)">
  <metadata
     id="metadata110">
    <rdf:RDF>
      <cc:Work
         rdf:about="">
        <dc:format>image/svg+xml</dc:format>
        <dc:type
           rdf:resource="http://purl.org/dc/dcmitype/StillImage" />
      </cc:Work>
    </rdf:RDF>
  </metadata>
  <sodipodi:namedview
     pagecolor="#ffffff"
     bordercolor="#666666"
     borderopacity="1"
     objecttolerance="10"
     gridtolerance="10"
     guidetolerance="10"
     inkscape:pageopacity="0"
     inkscape:pageshadow="2"
     inkscape:window-width="1920"
     inkscape:window-height="986"
     id="namedview108"
     showgrid="false"
     inkscape:zoom="0.22425739"
     inkscape:cx="-831.11393"
     inkscape:cy="181.75036"
     inkscape:window-x="-11"
     inkscape:window-y="-11"
     inkscape:window-maximized="1"
     inkscape:current-layer="svg106" />
  <defs
     id="defs46">
    <filter
       id="k"
       inkscape:label="Fluorescence"
       inkscape:menu="Color"
       inkscape:menu-tooltip="Oversaturate colors which can be fluorescent in real world"
       style="color-interpolation-filters:sRGB;">
      <feGaussianBlur
         stdDeviation=".5297"
         id="feGaussianBlur2"
         result="fbSourceGraphic" />
      <feColorMatrix
         result="fbSourceGraphicAlpha"
         in="fbSourceGraphic"
         values="0 0 0 -1 0 0 0 0 -1 0 0 0 0 -1 0 0 0 0 1 0"
         id="feColorMatrix6284" />
      <feColorMatrix
         id="feColorMatrix6286"
         type="hueRotate"
         values="0"
         in="fbSourceGraphic" />
      <feColorMatrix
         id="feColorMatrix6288"
         type="saturate"
         values="1" />
      <feColorMatrix
         id="feColorMatrix6290"
         type="matrix"
         values="2 -1 0 0 0 0 2 -1 0 0 -1 0 2 0 0 0 0 0 1 0 " />
    </filter>
    <filter
       id="i"
       inkscape:label="Fluorescence"
       inkscape:menu="Color"
       inkscape:menu-tooltip="Oversaturate colors which can be fluorescent in real world"
       style="color-interpolation-filters:sRGB;">
      <feGaussianBlur
         stdDeviation=".74753"
         id="feGaussianBlur5"
         result="fbSourceGraphic" />
      <feColorMatrix
         result="fbSourceGraphicAlpha"
         in="fbSourceGraphic"
         values="0 0 0 -1 0 0 0 0 -1 0 0 0 0 -1 0 0 0 0 1 0"
         id="feColorMatrix6292" />
      <feColorMatrix
         id="feColorMatrix6294"
         type="hueRotate"
         values="0"
         in="fbSourceGraphic" />
      <feColorMatrix
         id="feColorMatrix6296"
         type="saturate"
         values="1" />
      <feColorMatrix
         id="feColorMatrix6298"
         type="matrix"
         values="2 -1 0 0 0 0 2 -1 0 0 -1 0 2 0 0 0 0 0 1 0 " />
    </filter>
    <filter
       id="j"
       inkscape:label="Fluorescence"
       inkscape:menu="Color"
       inkscape:menu-tooltip="Oversaturate colors which can be fluorescent in real world"
       style="color-interpolation-filters:sRGB;">
      <feGaussianBlur
         stdDeviation=".40252"
         id="feGaussianBlur8"
         result="fbSourceGraphic" />
      <feColorMatrix
         result="fbSourceGraphicAlpha"
         in="fbSourceGraphic"
         values="0 0 0 -1 0 0 0 0 -1 0 0 0 0 -1 0 0 0 0 1 0"
         id="feColorMatrix6308" />
      <feColorMatrix
         id="feColorMatrix6310"
         type="hueRotate"
         values="0"
         in="fbSourceGraphic" />
      <feColorMatrix
         id="feColorMatrix6312"
         type="saturate"
         values="1" />
      <feColorMatrix
         id="feColorMatrix6314"
         type="matrix"
         values="2 -1 0 0 0 0 2 -1 0 0 -1 0 2 0 0 0 0 0 1 0 " />
    </filter>
    <filter
       id="h"
       inkscape:label="Fluorescence"
       inkscape:menu="Color"
       inkscape:menu-tooltip="Oversaturate colors which can be fluorescent in real world"
       style="color-interpolation-filters:sRGB;">
      <feGaussianBlur
         stdDeviation="1.31715"
         id="feGaussianBlur11"
         result="fbSourceGraphic" />
      <feColorMatrix
         result="fbSourceGraphicAlpha"
         in="fbSourceGraphic"
         values="0 0 0 -1 0 0 0 0 -1 0 0 0 0 -1 0 0 0 0 1 0"
         id="feColorMatrix6324" />
      <feColorMatrix
         id="feColorMatrix6326"
         type="hueRotate"
         values="0"
         in="fbSourceGraphic" />
      <feColorMatrix
         id="feColorMatrix6328"
         type="saturate"
         values="1" />
      <feColorMatrix
         id="feColorMatrix6330"
         type="matrix"
         values="2 -1 0 0 0 0 2 -1 0 0 -1 0 2 0 0 0 0 0 1 0 " />
    </filter>
    <filter
       id="l"
       inkscape:label="Fluorescence"
       inkscape:menu="Color"
       inkscape:menu-tooltip="Oversaturate colors which can be fluorescent in real world"
       style="color-interpolation-filters:sRGB;">
      <feGaussianBlur
         stdDeviation="6.78718"
         id="feGaussianBlur14"
         result="fbSourceGraphic" />
      <feColorMatrix
         result="fbSourceGraphicAlpha"
         in="fbSourceGraphic"
         values="0 0 0 -1 0 0 0 0 -1 0 0 0 0 -1 0 0 0 0 1 0"
         id="feColorMatrix6276" />
      <feColorMatrix
         id="feColorMatrix6278"
         type="hueRotate"
         values="0"
         in="fbSourceGraphic" />
      <feColorMatrix
         id="feColorMatrix6280"
         type="saturate"
         values="1" />
      <feColorMatrix
         id="feColorMatrix6282"
         type="matrix"
         values="2 -1 0 0 0 0 2 -1 0 0 -1 0 2 0 0 0 0 0 1 0 " />
    </filter>
    <filter
       id="g"
       x="-0.094290003"
       y="-0.1053"
       width="1.1885999"
       height="1.2106"
       inkscape:label="Fluorescence"
       inkscape:menu="Color"
       inkscape:menu-tooltip="Oversaturate colors which can be fluorescent in real world"
       style="color-interpolation-filters:sRGB;">
      <feGaussianBlur
         stdDeviation="1.45339"
         id="feGaussianBlur17"
         result="fbSourceGraphic" />
      <feColorMatrix
         result="fbSourceGraphicAlpha"
         in="fbSourceGraphic"
         values="0 0 0 -1 0 0 0 0 -1 0 0 0 0 -1 0 0 0 0 1 0"
         id="feColorMatrix6300" />
      <feColorMatrix
         id="feColorMatrix6302"
         type="hueRotate"
         values="0"
         in="fbSourceGraphic" />
      <feColorMatrix
         id="feColorMatrix6304"
         type="saturate"
         values="1" />
      <feColorMatrix
         id="feColorMatrix6306"
         type="matrix"
         values="2 -1 0 0 0 0 2 -1 0 0 -1 0 2 0 0 0 0 0 1 0 " />
    </filter>
    <filter
       id="e"
       x="-0.16443001"
       y="-0.16419999"
       width="1.3289"
       height="1.3284"
       inkscape:label="Fluorescence"
       inkscape:menu="Color"
       inkscape:menu-tooltip="Oversaturate colors which can be fluorescent in real world"
       style="color-interpolation-filters:sRGB;">
      <feGaussianBlur
         stdDeviation="4.15726"
         id="feGaussianBlur20"
         result="fbSourceGraphic" />
      <feColorMatrix
         result="fbSourceGraphicAlpha"
         in="fbSourceGraphic"
         values="0 0 0 -1 0 0 0 0 -1 0 0 0 0 -1 0 0 0 0 1 0"
         id="feColorMatrix6316" />
      <feColorMatrix
         id="feColorMatrix6318"
         type="hueRotate"
         values="0"
         in="fbSourceGraphic" />
      <feColorMatrix
         id="feColorMatrix6320"
         type="saturate"
         values="1" />
      <feColorMatrix
         id="feColorMatrix6322"
         type="matrix"
         values="2 -1 0 0 0 0 2 -1 0 0 -1 0 2 0 0 0 0 0 1 0 " />
    </filter>
    <filter
       id="f"
       x="-0.96873999"
       y="-1.0898"
       width="2.9375"
       height="3.1796999"
       inkscape:label="Fluorescence"
       inkscape:menu="Color"
       inkscape:menu-tooltip="Oversaturate colors which can be fluorescent in real world"
       style="color-interpolation-filters:sRGB;">
      <feGaussianBlur
         stdDeviation="4.58827"
         id="feGaussianBlur23"
         result="fbSourceGraphic" />
      <feColorMatrix
         result="fbSourceGraphicAlpha"
         in="fbSourceGraphic"
         values="0 0 0 -1 0 0 0 0 -1 0 0 0 0 -1 0 0 0 0 1 0"
         id="feColorMatrix6340" />
      <feColorMatrix
         id="feColorMatrix6342"
         type="hueRotate"
         values="0"
         in="fbSourceGraphic" />
      <feColorMatrix
         id="feColorMatrix6344"
         type="saturate"
         values="1" />
      <feColorMatrix
         id="feColorMatrix6346"
         type="matrix"
         values="2 -1 0 0 0 0 2 -1 0 0 -1 0 2 0 0 0 0 0 1 0 " />
    </filter>
    <linearGradient
       id="d"
       x1="-817.88"
       x2="-796.91998"
       y1="575.88"
       y2="560.47998"
       gradientUnits="userSpaceOnUse">
      <stop
         stop-color="#f00"
         offset="0"
         id="stop26" />
      <stop
         stop-color="#f00"
         stop-opacity="0"
         offset="1"
         id="stop28" />
    </linearGradient>
    <linearGradient
       id="c"
       x1="-694.79999"
       x2="-726.42999"
       y1="869.72998"
       y2="870.01001"
       gradientUnits="userSpaceOnUse">
      <stop
         stop-color="#500"
         offset="0"
         id="stop31" />
      <stop
         stop-color="#500"
         stop-opacity="0"
         offset="1"
         id="stop33" />
    </linearGradient>
    <linearGradient
       id="b"
       x1="-638.41998"
       x2="-647.51001"
       y1="926.84998"
       y2="934.16998"
       gradientUnits="userSpaceOnUse">
      <stop
         stop-color="#800000"
         offset="0"
         id="stop36" />
      <stop
         stop-color="#800000"
         stop-opacity="0"
         offset="1"
         id="stop38" />
    </linearGradient>
    <linearGradient
       id="a"
       x1="-806.77002"
       x2="-844.01001"
       y1="567.57001"
       y2="531.03998"
       gradientUnits="userSpaceOnUse">
      <stop
         stop-color="#fff"
         offset="0"
         id="stop41" />
      <stop
         stop-color="#fff"
         stop-opacity="0"
         offset="1"
         id="stop43" />
    </linearGradient>
    <linearGradient
       inkscape:collect="always"
       xlink:href="#d"
       id="linearGradient4606"
       gradientUnits="userSpaceOnUse"
       x1="-817.88"
       y1="575.88"
       x2="-796.91998"
       y2="560.47998" />
    <linearGradient
       inkscape:collect="always"
       xlink:href="#c"
       id="linearGradient4608"
       gradientUnits="userSpaceOnUse"
       x1="-694.79999"
       y1="869.72998"
       x2="-726.42999"
       y2="870.01001" />
    <linearGradient
       inkscape:collect="always"
       xlink:href="#b"
       id="linearGradient4610"
       gradientUnits="userSpaceOnUse"
       x1="-638.41998"
       y1="926.84998"
       x2="-647.51001"
       y2="934.16998" />
    <linearGradient
       inkscape:collect="always"
       xlink:href="#a"
       id="linearGradient4612"
       gradientUnits="userSpaceOnUse"
       x1="-806.77002"
       y1="567.57001"
       x2="-844.01001"
       y2="531.03998" />
    <linearGradient
       inkscape:collect="always"
       xlink:href="#d"
       id="linearGradient4614"
       gradientUnits="userSpaceOnUse"
       x1="-817.88"
       y1="575.88"
       x2="-796.91998"
       y2="560.47998" />
    <linearGradient
       inkscape:collect="always"
       xlink:href="#c"
       id="linearGradient4616"
       gradientUnits="userSpaceOnUse"
       x1="-694.79999"
       y1="869.72998"
       x2="-726.42999"
       y2="870.01001" />
    <linearGradient
       inkscape:collect="always"
       xlink:href="#b"
       id="linearGradient4618"
       gradientUnits="userSpaceOnUse"
       x1="-638.41998"
       y1="926.84998"
       x2="-647.51001"
       y2="934.16998" />
    <linearGradient
       inkscape:collect="always"
       xlink:href="#a"
       id="linearGradient4620"
       gradientUnits="userSpaceOnUse"
       x1="-806.77002"
       y1="567.57001"
       x2="-844.01001"
       y2="531.03998" />
    <filter
       inkscape:label="Fluorescence"
       inkscape:menu="Color"
       inkscape:menu-tooltip="Oversaturate colors which can be fluorescent in real world"
       style="color-interpolation-filters:sRGB;"
       id="filter6338">
      <feColorMatrix
         type="hueRotate"
         values="0"
         id="feColorMatrix6332" />
      <feColorMatrix
         type="saturate"
         values="1"
         id="feColorMatrix6334" />
      <feColorMatrix
         type="matrix"
         values="2 -1 0 0 0 0 2 -1 0 0 -1 0 2 0 0 0 0 0 1 0 "
         id="feColorMatrix6336" />
    </filter>
    <filter
       inkscape:label="Fluorescence"
       inkscape:menu="Color"
       inkscape:menu-tooltip="Oversaturate colors which can be fluorescent in real world"
       style="color-interpolation-filters:sRGB;"
       id="filter6354">
      <feColorMatrix
         type="hueRotate"
         values="0"
         id="feColorMatrix6348" />
      <feColorMatrix
         type="saturate"
         values="1"
         id="feColorMatrix6350" />
      <feColorMatrix
         type="matrix"
         values="2 -1 0 0 0 0 2 -1 0 0 -1 0 2 0 0 0 0 0 1 0 "
         id="feColorMatrix6352" />
    </filter>
  </defs>
  <g
     transform="matrix(1.9495,0,0,2.0216,261.43013,-2233.3209)"
     id="g76"
     style="filter:url(#l)">
    <path
       transform="matrix(4.4162,0,0,4.5555,2938.3,-2894.2)"
       d="m -633.74,939.48 3.1567,-50.886 -8.8388,-9.5964 -22.097,0.50507 c -19.557,7.5645 -30.527,19.5 -31.567,36.492 l -1.1364,19.193 8.46,7.8287 52.023,-3.5355 z"
       id="path48"
       inkscape:connector-curvature="0"
       style="fill:#d40000;filter:url(#k)" />
    <path
       transform="matrix(4.3662,0,0,4.5042,3610,-1222.9)"
       d="m -826.21,573.04 28.789,0.75762 -3.0305,-26.643 c -6.4826,10.382 -15.237,18.87 -25.759,25.885 z"
       id="path50"
       inkscape:connector-curvature="0"
       style="opacity:0.90717002;fill:url(#linearGradient4606);filter:url(#i)" />
    <path
       transform="matrix(5.145,5.4036,-5.5468,5.0122,8517.2,762.8)"
       d="m -717.08,892.11 c -5.4895,-3.477 -8.6411,-15.956 -7.0393,-27.872 1.6018,-11.916 7.3504,-18.757 12.84,-15.28 5.4896,3.477 8.6411,15.956 7.0393,27.872 -1.6016,11.915 -7.3489,18.756 -12.838,15.282"
       id="path52"
       inkscape:connector-curvature="0"
       style="fill:url(#linearGradient4608);filter:url(#g)" />
    <path
       transform="matrix(6.1608,0,0,5.6188,4038,-3898.2)"
       d="m -661.9,939.41 28.789,0.75762 -3.0305,-26.643 c -6.4826,10.382 -15.237,18.87 -25.759,25.885 z"
       id="path54"
       inkscape:connector-curvature="0"
       style="fill:url(#linearGradient4610);filter:url(#j)" />
    <path
       transform="matrix(4.3662,0,0,4.5042,3610,-1222.9)"
       d="m -852.7,556.41 12.122,25.128 7.3236,-23.234 23.865,6.8185 -5.8084,-25.759 23.107,-0.63135 -20.077,-16.036 c -16.382,-8.5651 -42.108,13.064 -40.532,33.714 z"
       id="path56"
       inkscape:connector-curvature="0"
       style="opacity:0.84810001;fill:url(#linearGradient4612);filter:url(#e)" />
    <path
       transform="matrix(2.4689,4.3256,-3.6806,3.2786,4935.7,1435)"
       d="m -717.08,892.11 c -5.4895,-3.477 -8.6411,-15.956 -7.0393,-27.872 1.6018,-11.916 7.3504,-18.757 12.84,-15.28 5.4896,3.477 8.6411,15.956 7.0393,27.872 -1.6016,11.915 -7.3489,18.756 -12.838,15.282"
       id="path58"
       inkscape:connector-curvature="0"
       style="fill:#d40000;fill-opacity:0.98430996;filter:url(#h)" />
    <path
       transform="matrix(2.4689,4.3256,-3.6806,3.2786,4931.3,1438.9)"
       d="m -717.08,892.11 c -5.4895,-3.477 -8.6411,-15.956 -7.0393,-27.872 1.6018,-11.916 7.3504,-18.757 12.84,-15.28 5.4896,3.477 8.6411,15.956 7.0393,27.872 -1.6016,11.915 -7.3489,18.756 -12.838,15.282"
       id="path60"
       inkscape:connector-curvature="0"
       style="opacity:0.32068003;fill:#d40000;fill-opacity:0.98430996" />
    <path
       transform="matrix(4.3662,0,0,4.5042,2895,-2846.6)"
       d="m -681.3,911.24 c -3.0125,-0.78136 -4.742,-3.5856 -3.863,-6.2633 0.879,-2.6777 4.0338,-4.2152 7.0463,-3.4338 3.0125,0.7814 4.742,3.5856 3.863,6.2634 -0.879,2.6778 -4.033,4.2148 -7.0452,3.4341"
       id="path62"
       inkscape:connector-curvature="0"
       style="fill:#ffffff;fill-opacity:0.98430996;filter:url(#f)" />
    <g
       transform="translate(454.57,-6.0609)"
       id="g74"
       style="fill:none;stroke:#f0f1f5">
      <path
         d="m -313.84,1393.1 13.941,-231.81 -39.034,-43.717 -97.585,2.3009 c -86.368,34.46 -134.82,88.834 -139.41,166.24 l -5.0186,87.433 37.361,35.664 229.74,-16.106 z"
         id="path64"
         inkscape:connector-curvature="0"
         style="stroke-width:2.21700001" />
      <path
         d="m -457.34,1381.6 143.16,11.441 -18.356,-126.16 c -25.983,48.189 -71.064,90.482 -124.81,114.72 z"
         id="path66"
         inkscape:connector-curvature="0"
         style="opacity:0.90717002;stroke-width:2.21700001" />
      <path
         d="m -574.63,1268.5 52.821,134.51 40.191,-103.58 99.914,27.855 -21.075,-113.17 95.891,-13.392 -111.36,-79.882 c -61.388,4.2829 -135.69,54.208 -156.38,147.65 z"
         id="path68"
         inkscape:connector-curvature="0"
         style="opacity:0.84810001;stroke-width:2.21700001" />
      <path
         transform="matrix(2.4689,4.3256,-3.6806,3.2786,4481.2,1442.5)"
         d="m -717.08,892.11 c -5.4895,-3.477 -8.6411,-15.956 -7.0393,-27.872 1.6018,-11.916 7.3504,-18.757 12.84,-15.28 5.4896,3.477 8.6411,15.956 7.0393,27.872 -1.6016,11.915 -7.3489,18.756 -12.838,15.282"
         id="path70"
         inkscape:connector-curvature="0"
         style="stroke-width:0.4524;stroke-linecap:round" />
      <path
         d="m -298.74,1163.7 c -21.055,128.9 -98.054,213.84 -242.58,245.7"
         id="path72"
         inkscape:connector-curvature="0"
         style="stroke-width:2.21700001" />
    </g>
  </g>
  <path
     transform="matrix(8.6094,0,0,9.2094,5976.8701,-8095.7209)"
     d="m -633.74,939.48 3.1567,-50.886 -8.8388,-9.5964 -22.097,0.50507 c -19.557,7.5645 -30.527,19.5 -31.567,36.492 l -1.1364,19.193 8.46,7.8287 52.023,-3.5355 z"
     id="path78"
     inkscape:connector-curvature="0"
     style="fill:#d40000;filter:url(#k)" />
  <path
     transform="matrix(8.512,0,0,9.1057,7286.1701,-4716.9209)"
     d="m -826.21,573.04 28.789,0.75762 -3.0305,-26.643 c -6.4826,10.382 -15.237,18.87 -25.759,25.885 z"
     id="path80"
     inkscape:connector-curvature="0"
     style="opacity:0.90717002;fill:url(#linearGradient4614);filter:url(#i)" />
  <path
     transform="matrix(10.03,10.924,-10.813,10.133,16853.17,-702.71087)"
     d="m -717.08,892.11 c -5.4895,-3.477 -8.6411,-15.956 -7.0393,-27.872 1.6018,-11.916 7.3504,-18.757 12.84,-15.28 5.4896,3.477 8.6411,15.956 7.0393,27.872 -1.6016,11.915 -7.3489,18.756 -12.838,15.282"
     id="path82"
     inkscape:connector-curvature="0"
     style="fill:url(#linearGradient4616);filter:url(#g)" />
  <path
     transform="matrix(12.011,0,0,11.359,8120.6701,-10125.521)"
     d="m -661.9,939.41 28.789,0.75762 -3.0305,-26.643 c -6.4826,10.382 -15.237,18.87 -25.759,25.885 z"
     id="path84"
     inkscape:connector-curvature="0"
     style="fill:url(#linearGradient4618);filter:url(#j)" />
  <path
     transform="matrix(8.512,0,0,9.1057,7286.1701,-4716.9209)"
     d="m -852.7,556.41 12.122,25.128 7.3236,-23.234 23.865,6.8185 -5.8084,-25.759 23.107,-0.63135 -20.077,-16.036 c -16.382,-8.5651 -42.108,13.064 -40.532,33.714 z"
     id="path86"
     inkscape:connector-curvature="0"
     style="opacity:0.84810001;fill:url(#linearGradient4620);filter:url(#e)" />
  <path
     transform="matrix(4.8132,8.7447,-7.1754,6.628,9870.77,656.12913)"
     d="m -717.08,892.11 c -5.4895,-3.477 -8.6411,-15.956 -7.0393,-27.872 1.6018,-11.916 7.3504,-18.757 12.84,-15.28 5.4896,3.477 8.6411,15.956 7.0393,27.872 -1.6016,11.915 -7.3489,18.756 -12.838,15.282"
     id="path88"
     inkscape:connector-curvature="0"
     style="fill:#d40000;fill-opacity:0.98430996;filter:url(#h)" />
  <path
     d="M 9.4745787,306.43473 C 8.0013787,235.38514 82.373919,125.11454 175.58577,60.142546 268.79762,-4.8294439 345.55369,0.09819614 347.02737,71.148656 348.50105,142.19912 274.12803,252.46885 180.91618,317.44084 87.712469,382.40795 10.962649,377.49168 9.4698587,306.46548"
     id="path90"
     inkscape:connector-curvature="0"
     style="opacity:0.32068003;fill:#d40000;fill-opacity:0.98430996;stroke-width:9.72875214;filter:url(#filter6338)" />
  <path
     transform="matrix(8.512,0,0,9.1057,5892.4701,-7999.5209)"
     d="m -681.3,911.24 c -3.0125,-0.78136 -4.742,-3.5856 -3.863,-6.2633 0.879,-2.6777 4.0338,-4.2152 7.0463,-3.4338 3.0125,0.7814 4.742,3.5856 3.863,6.2634 -0.879,2.6778 -4.033,4.2148 -7.0452,3.4341"
     id="path92"
     inkscape:connector-curvature="0"
     style="fill:#ffffff;fill-opacity:0.98430996;filter:url(#f)" />
  <g
     transform="matrix(1.9495,0,0,2.0216,1134.7701,-2257.0209)"
     id="g104"
     style="fill:none;stroke:#f0f1f5;filter:url(#filter6354)">
    <path
       d="m -313.84,1393.1 13.941,-231.81 -39.034,-43.717 -97.585,2.3009 c -86.368,34.46 -134.82,88.834 -139.41,166.24 l -5.0186,87.433 37.361,35.664 229.74,-16.106 z"
       id="path94"
       inkscape:connector-curvature="0"
       style="stroke-width:2.21700001" />
    <path
       d="m -457.34,1381.6 143.16,11.441 -18.356,-126.16 c -25.983,48.189 -71.064,90.482 -124.81,114.72 z"
       id="path96"
       inkscape:connector-curvature="0"
       style="opacity:0.90717002;stroke-width:2.21700001" />
    <path
       d="m -574.63,1268.5 52.821,134.51 40.191,-103.58 99.914,27.855 -21.075,-113.17 95.891,-13.392 -111.36,-79.882 c -61.388,4.2829 -135.69,54.208 -156.38,147.65 z"
       id="path98"
       inkscape:connector-curvature="0"
       style="opacity:0.84810001;stroke-width:2.21700001" />
    <path
       transform="matrix(2.4689,4.3256,-3.6806,3.2786,4481.2,1442.5)"
       d="m -717.08,892.11 c -5.4895,-3.477 -8.6411,-15.956 -7.0393,-27.872 1.6018,-11.916 7.3504,-18.757 12.84,-15.28 5.4896,3.477 8.6411,15.956 7.0393,27.872 -1.6016,11.915 -7.3489,18.756 -12.838,15.282"
       id="path100"
       inkscape:connector-curvature="0"
       style="stroke-width:0.4524;stroke-linecap:round" />
    <path
       d="m -298.74,1163.7 c -21.055,128.9 -98.054,213.84 -242.58,245.7"
       id="path102"
       inkscape:connector-curvature="0"
       style="stroke-width:2.21700001" />
  </g>
</svg>
