<?xml version="1.0" encoding="UTF-8" standalone="no"?>
<svg
   xmlns:dc="http://purl.org/dc/elements/1.1/"
   xmlns:cc="http://creativecommons.org/ns#"
   xmlns:rdf="http://www.w3.org/1999/02/22-rdf-syntax-ns#"
   xmlns:svg="http://www.w3.org/2000/svg"
   xmlns="http://www.w3.org/2000/svg"
   xmlns:sodipodi="http://sodipodi.sourceforge.net/DTD/sodipodi-0.dtd"
   xmlns:inkscape="http://www.inkscape.org/namespaces/inkscape"
   viewBox="0 0 155.9646 113.46889"
   version="1.1"
   id="svg42"
   sodipodi:docname="map-148263.svg"
   inkscape:version="0.92.2 (5c3e80d, 2017-08-06)">
  <metadata
     id="metadata48">
    <rdf:RDF>
      <cc:Work
         rdf:about="">
        <dc:format>image/svg+xml</dc:format>
        <dc:type
           rdf:resource="http://purl.org/dc/dcmitype/StillImage" />
      </cc:Work>
    </rdf:RDF>
  </metadata>
  <defs
     id="defs46" />
  <sodipodi:namedview
     pagecolor="#ffffff"
     bordercolor="#666666"
     borderopacity="1"
     objecttolerance="10"
     gridtolerance="10"
     guidetolerance="10"
     inkscape:pageopacity="0"
     inkscape:pageshadow="2"
     inkscape:window-width="1920"
     inkscape:window-height="986"
     id="namedview44"
     showgrid="false"
     inkscape:zoom="2.0798653"
     inkscape:cx="77.9823"
     inkscape:cy="56.734444"
     inkscape:window-x="-11"
     inkscape:window-y="-11"
     inkscape:window-maximized="1"
     inkscape:current-layer="svg42" />
  <path
     style="fill:#deb887;stroke-width:0.1712444"
     inkscape:connector-curvature="0"
     id="path2"
     d="m 131.27624,112.0088 c -1.1281,-0.15673 -4.72829,-0.91466 -8.00052,-1.6843 -5.47458,-1.28768 -6.21493,-1.37898 -9.27866,-1.14414 -2.20195,0.16876 -3.4588,0.12132 -3.71127,-0.14009 -0.21004,-0.2174 -0.41267,-1.30731 -0.45029,-2.42207 -0.0376,-1.11476 -0.19436,-2.43559 -0.3483,-2.9353 -0.15395,-0.49971 -0.17677,0.57228 -0.0508,2.38227 0.28952,4.15779 0.0548,4.49022 -2.63874,3.73756 -1.00535,-0.28092 -2.60287,-0.60105 -3.54988,-0.71142 -2.25544,-0.26283 -8.639532,0.59692 -11.215365,1.51042 -2.694747,0.95567 -4.060307,0.93736 -6.198391,-0.083 -1.994123,-0.95176 -2.675572,-1.92054 -2.39687,-3.40819 0.103951,-0.55486 0.04639,-1.40016 -0.127918,-1.87851 -0.297515,-0.81633 -0.345745,-0.76937 -0.787551,0.76673 -0.723557,2.51568 -1.78549,2.96509 -7.057497,2.98624 -3.013733,0.0121 -5.13163,0.22946 -7.228468,0.74185 l -2.965729,0.72473 -1.112224,-0.85009 c -0.866849,-0.66254 -1.756287,-0.89931 -4.03173,-1.07315 -6.492484,-0.49606 -14.619748,0.0709 -18.848917,1.31496 -1.079923,0.31762 -2.099857,0.49057 -2.266629,0.38433 -0.166772,-0.10625 -0.732584,-1.33558 -1.257547,-2.73181 -0.524962,-1.39623 -1.004697,-2.53768 -1.066083,-2.53661 -0.06139,0.001 -0.36432,1.25138 -0.673229,2.77842 -0.393066,1.94313 -0.761172,2.89554 -1.226444,3.17316 -0.969448,0.57851 -7.951211,0.17704 -11.639722,-0.6693 -4.456445,-1.02255 -5.327909,-0.96182 -7.0555,0.49187 -2.511451,2.11322 -3.897899,2.67734 -6.7140149,2.73149 -1.9832721,0.0382 -2.9428032,-0.1373 -4.2763098,-0.78214 -3.2382545,-1.56596 -4.22524547,-3.72927 -3.940923,-8.63814 C 1.2573868,102.37621 1.4219871,97.721209 1.526544,93.699934 1.631101,89.678659 1.8757853,84.330655 2.0702866,81.815028 2.5921202,75.066272 2.1134356,51.531508 1.2344947,40.722272 0.2888235,29.092697 -0.22208568,16.726529 0.14835455,14.433139 0.38917386,12.942098 0.72804658,12.315487 1.9684051,11.067151 4.0047354,9.0179223 8.1465564,6.8099937 14.424205,4.4272332 19.360308,2.5537337 19.829714,2.4455199 24.539507,2.0950896 27.255984,1.893023 30.450136,1.5922275 31.637844,1.426659 c 1.645093,-0.2293406 2.228467,-0.1857807 2.449664,0.1828754 0.230497,0.3842355 0.392319,0.389979 0.785686,0.027838 0.38333,-0.352892 1.603706,-0.3904528 5.394637,-0.1660336 2.694653,0.1595233 6.126644,0.2719596 7.626867,0.2498624 3.705647,-0.054587 5.346777,0.2408323 5.545287,0.9982684 0.109736,0.4185462 0.410275,0.5607206 0.936907,0.4432247 0.426442,-0.095147 2.298552,0.1315731 4.160227,0.5038306 1.861675,0.3722574 4.572939,0.7695342 6.024995,0.8828537 2.595609,0.2025833 2.64521,0.1905984 2.948403,-0.7121727 0.169581,-0.5050263 0.745667,-1.2640038 1.28019,-1.6866285 0.920795,-0.7280399 1.454328,-0.7781668 10.153592,-0.9539759 5.049903,-0.102054 10.406842,-0.3444527 11.903978,-0.53866186 4.722881,-0.61258916 6.906892,0.70568046 4.966019,2.99759736 -0.80889,0.9551756 -0.641691,1.6645154 0.207977,0.882305 0.344637,-0.3172721 1.545199,-0.4692914 3.666592,-0.4642336 2.024375,0.00482 4.574935,-0.3017611 7.120965,-0.8559096 3.11461,-0.6779287 4.39403,-0.8022388 5.95584,-0.5786612 1.81559,0.2599206 2.04176,0.3953679 2.59355,1.5530405 0.3325,0.6975605 0.60746,1.0059744 0.61101,0.6853565 0.004,-0.3206179 0.30256,-0.8800682 0.6644,-1.243238 0.55353,-0.5555447 1.01175,-0.6259793 2.88809,-0.4439387 l 2.23034,0.2163791 -0.19411,-1.0301505 c -0.3354,-1.78002697 0.17156,-2.1379759 3.02894,-2.13789544 2.53789,7.002e-5 2.6145,0.0290028 7.99121,3.01725044 7.33359,4.0761415 14.65075,8.5677585 16.09537,9.8805345 2.01265,1.828805 1.92435,3.99599 -0.26899,6.599664 l -0.8204,0.973885 1.1352,0.208116 c 1.56236,0.286431 5.14367,2.078129 5.80983,2.906576 1.11976,1.392697 1.49844,3.538454 1.35354,7.669995 -0.21381,6.096465 -0.54523,7.788196 -2.19116,11.183751 -1.69377,3.494428 -3.42391,8.901091 -4.76507,14.89092 -1.47599,6.592457 -1.64976,11.807855 -0.91402,27.430415 0.34783,7.385542 0.79628,15.151892 0.99655,17.258522 0.59265,6.23373 0.15553,8.72064 -1.66311,9.46199 -1.29597,0.52828 -12.84942,0.73501 -16.07001,0.28755 z M 69.624507,6.0911589 c -0.0034,-0.2009034 -0.159624,-0.3625911 -0.347139,-0.359304 -0.187515,0.00329 -0.338147,0.1703555 -0.334736,0.3712572 0.0034,0.2009017 0.159624,0.3625911 0.347139,0.359304 0.187515,-0.00329 0.338147,-0.1703555 0.334736,-0.3712572 z" />
  <path
     style="fill:#b7b8a7;stroke-width:0.1712444"
     inkscape:connector-curvature="0"
     id="path4"
     d="m 131.61832,111.9833 c -0.94081,-0.17298 -4.59504,-1.00893 -8.12061,-1.8577 -5.81337,-1.39952 -6.72027,-1.52543 -9.74236,-1.35272 l -3.3322,0.19043 -0.28887,-2.61565 c -0.15887,-1.43865 -0.53261,-3.15863 -0.83049,-3.82211 -0.52178,-1.16213 -0.53119,-1.0994 -0.25691,1.71181 0.366,3.75118 0.35722,4.8877 -0.0412,5.32955 -0.20746,0.23009 -1.11013,0.15637 -2.52402,-0.20615 -3.04507,-0.78075 -10.718358,-0.34408 -14.113244,0.80316 -2.769542,0.9359 -4.52006,1.03913 -6.059536,0.35732 -2.154333,-0.95413 -2.470329,-1.40978 -2.696916,-3.8892 -0.238476,-2.61051 -0.650762,-2.76336 -1.383891,-0.5133 -0.752128,2.30841 -1.545817,2.58292 -7.95812,2.75241 -3.307974,0.0874 -5.829017,0.31995 -6.406686,0.59093 -1.416744,0.66456 -2.749752,0.57144 -3.776411,-0.26381 -2.007849,-1.6336 -16.746479,-1.45029 -22.662216,0.28184 -1.18728,0.34761 -2.270945,0.4907 -2.418965,0.31942 -0.147515,-0.17065 -0.725359,-1.60391 -1.284087,-3.18499 -0.558729,-1.58109 -1.090683,-2.6406 -1.182106,-2.35429 -0.09142,0.28632 -0.457215,1.8409 -0.812864,3.45488 l -0.646621,2.93449 -4.462162,0.0149 c -3.158045,0.0106 -5.337336,-0.19154 -7.456324,-0.69142 -4.532858,-1.06936 -5.610492,-0.95026 -7.659216,0.84655 -2.251214,1.97446 -3.023934,2.26687 -6.151482,2.32914 -2.884895,0.0574 -4.3209298,-0.39878 -6.0758672,-1.93007 -1.791548,-1.56306 -2.2690109,-3.09895 -2.0934624,-6.73482 0.082494,-1.70967 0.2543965,-5.658945 0.3820129,-8.776148 C 1.6910927,92.590569 2.0042325,86.912336 2.2593551,83.089456 2.9470175,72.785303 2.5417313,53.475401 1.3387975,39.229091 0.82910572,33.192642 0.32484,25.144515 0.21821569,21.343577 2.113633e-4,13.573369 0.10293941,13.089724 2.430397,10.929911 5.5339305,8.049682 16.713046,3.244465 21.986251,2.5239276 29.13396,1.5474251 33.882793,1.1672013 34.012584,1.5609846 c 0.168923,0.5120514 1.099981,0.508051 1.091276,-0.00468 -0.0043,-0.2561448 0.77442,-0.3276958 2.298524,-0.2111825 1.267781,0.096923 4.839215,0.28476 7.936318,0.4174264 3.097103,0.1326665 6.14607,0.3441439 6.775151,0.46994 1.068559,0.2136985 1.130513,0.3036451 0.941775,1.3673999 -0.11112,0.626253 -0.252415,1.7972453 -0.314004,2.602107 L 52.629658,7.6655351 52.940961,6.1605653 C 53.112179,5.3328275 53.587183,4.3136925 53.996513,3.895762 l 0.744235,-0.7597446 3.764987,0.7994931 c 2.193862,0.4658468 4.939015,0.7832913 6.578055,0.7606753 2.582298,-0.03563 2.811892,-0.09831 2.800587,-0.7642012 -0.0075,-0.4417004 0.515005,-1.1131912 1.336,-1.7169465 1.345243,-0.9892904 1.358846,-0.9911421 5.949574,-0.8111412 2.699202,0.105838 7.551735,-0.052907 11.739153,-0.3840396 3.925838,-0.31045044 7.527663,-0.46696268 8.003742,-0.34780937 0.476079,0.1191533 1.043183,0.55716007 1.260058,0.97336727 0.331625,0.63645 0.251459,0.9221218 -0.504352,1.7972297 -0.676946,0.7837741 -0.83486,1.2431061 -0.640061,1.8618335 l 0.2586,0.8213378 0.606269,-0.8933167 c 0.572515,-0.8435656 0.773577,-0.8900271 3.610999,-0.8343745 2.025301,0.03972 4.167701,-0.2060041 6.572031,-0.7537828 3.71834,-0.8471586 5.62383,-1.0124749 7.47874,-0.6488263 1.04503,0.2048571 1.3105,0.5439293 1.9156,2.4467275 0.19246,0.6051888 0.30021,0.5281337 0.78555,-0.5618634 l 0.56249,-1.263257 2.61798,0.019339 2.61798,0.019339 -0.20024,-1.1856583 c -0.32174,-1.90507079 0.5314,-2.56390273 3.01675,-2.3294975 1.74779,0.16475822 3.00225,0.75413125 9.47346,4.4508032 9.23162,5.2735388 14.09272,8.4068216 14.98482,9.6589036 1.02154,1.433598 0.61395,3.213939 -1.22254,5.339972 -0.81821,0.94722 -1.48681,1.770895 -1.4858,1.83039 10e-4,0.05949 0.4476,0.0044 0.99244,-0.122313 2.29141,-0.53311 6.80723,1.989047 7.77044,4.340075 0.6914,1.687327 0.77077,6.283431 0.17785,10.298552 -0.33402,2.261906 -0.86883,3.938765 -2.08065,6.523814 -1.75506,3.743693 -4.52044,12.848457 -5.34868,17.609084 -0.28052,1.612659 -0.60094,4.989055 -0.71204,7.503043 -0.22863,5.173103 0.55622,26.089234 1.26514,33.715751 0.64631,6.95307 0.28941,9.48253 -1.46868,10.40896 -1.0701,0.56398 -12.90573,0.78027 -15.59914,0.28506 z m 2.97592,-2.80424 c -0.31522,-1.04652 -0.44291,-2.28463 -0.32421,-3.1435 0.18374,-1.32964 2.58487,-9.435235 4.45402,-15.035796 2.0392,-6.110027 2.36903,-15.920922 1.26858,-37.729437 -0.37489,-7.42921 -0.73367,-15.890997 -0.79732,-18.804167 -0.11019,-5.043423 -0.0727,-5.399347 0.78547,-7.457174 0.49565,-1.188533 0.90025,-2.215634 0.89912,-2.282271 -0.001,-0.06664 -0.74644,-0.01355 -1.65628,0.118127 -0.95076,0.137607 -2.19721,0.058 -2.93124,-0.187215 -1.38893,-0.463984 -3.63801,-2.315662 -3.64971,-3.004894 -0.004,-0.235995 -0.55911,-1.608329 -1.23357,-3.049731 -1.55411,-3.321199 -6.72845,-9.0439967 -8.97067,-9.9215768 -0.88866,-0.3478257 -1.67619,-0.976656 -2.03265,-1.6231655 -0.32006,-0.5804555 -0.88304,-1.2211287 -1.25108,-1.4237419 -0.61308,-0.3374992 -0.71282,-0.1579525 -1.19012,2.1425352 -0.28651,1.380972 -0.51551,2.83167 -0.50885,3.223871 0.0172,1.011589 -0.96334,1.854559 -2.35298,2.023047 l -1.19121,0.144404 0.0886,-1.631028 c 0.089,-1.6388719 -0.32765,-3.5143042 -1.28847,-5.7996037 l -0.5175,-1.2309047 -2.80532,0.2805967 c -1.54296,0.1543321 -3.54032,0.5635474 -4.43871,0.9093715 -1.2265,0.4721785 -2.38382,0.5961034 -4.6469,0.4976392 -3.232255,-0.1406502 -3.392623,-0.054887 -3.36119,1.7965726 0.008,0.4727505 -0.130112,1.2904949 -0.306979,1.8171706 C 96.355486,10.640734 96.219344,10.713979 95.592564,10.368937 94.37478,9.6985427 93.767886,7.6438835 93.897246,4.6284082 93.990208,2.4602544 93.912578,1.9047825 93.493817,1.7410493 93.208616,1.6295714 90.639494,1.8741049 87.78475,2.2844496 82.771822,3.0050158 77.292457,3.0924881 73.056763,2.5195511 71.977324,2.3735439 71.366407,2.4921292 70.700699,2.9768904 l -0.898696,0.6544541 1.481377,0.5617109 c 1.631627,0.6186781 3.31,2.5171279 1.796195,2.0316835 -0.66593,-0.2135413 -1.050968,0.071963 -2.455687,1.8209769 C 69.707619,9.1865055 68.736303,10.123716 68.465352,10.128466 67.917629,10.138067 67.283556,8.7232048 67.26182,7.4428707 67.248209,6.6411886 67.083436,6.5979137 62.722741,6.250713 60.234097,6.052548 57.673754,5.8024917 57.033401,5.6950112 L 55.868969,5.4996043 56.122122,7.24271 c 0.162046,1.1157531 0.115167,1.9276608 -0.130241,2.2560284 -0.289329,0.3870546 -0.276663,0.8709636 0.05159,1.9722086 0.422328,1.416837 0.389657,1.544979 -1.122802,4.403787 -0.856782,1.619446 -1.725971,2.894018 -1.931367,2.83238 C 52.190738,18.467391 50.908345,15.057612 50.587545,12.321087 49.769766,5.3446108 49.597286,4.2345008 49.280077,3.9062455 48.911244,3.5244882 41.015266,2.5797302 38.515087,2.618222 L 36.963765,2.6421013 36.574396,4.86438 C 36.120133,7.457068 35.529971,7.6471741 34.260789,5.6100814 32.67143,3.0592452 32.51853,2.915316 31.507361,3.0216811 25.055004,3.7001853 17.396437,5.413408 15.632744,6.5728821 c -0.156145,0.1026533 0.618938,0.5584809 1.722477,1.0129668 1.103538,0.4544859 2.377736,1.2675757 2.83166,1.8068249 0.726703,0.8634082 0.80981,1.2451222 0.695514,3.1947812 -0.164024,2.798207 -1.933576,8.842347 -4.225502,14.432237 -1.813997,4.424235 -4.04326,11.746104 -4.923069,16.168855 -1.28215,6.445287 -1.70261,11.930572 -1.709978,22.305056 -0.0097,13.79246 0.581722,18.160879 3.789449,27.989714 1.932565,5.921981 2.523589,8.611043 2.582864,11.751563 0.0475,2.51706 0.08557,2.63995 0.703267,2.27138 1.000784,-0.5972 2.442013,-0.50171 5.907776,0.39143 3.344609,0.86189 9.053239,1.38435 9.699386,0.88771 0.464683,-0.35717 1.879588,-5.38518 2.325921,-8.26563 0.178789,-1.153687 0.552812,-2.590865 0.831164,-3.193706 0.278352,-0.602841 0.503148,-1.556287 0.49952,-2.118906 l -0.0066,-1.022872 0.818411,0.961361 c 0.759692,0.8924 1.63583,4.250125 1.672499,6.409983 0.0073,0.42775 0.362863,1.11492 0.790239,1.52701 0.590817,0.56972 0.78475,1.16081 0.809233,2.46648 0.03027,1.61448 0.08307,1.71022 0.882828,1.60079 0.467857,-0.064 5.646749,-0.35453 11.508688,-0.6456 10.749118,-0.53371 11.057168,-0.51688 13.047569,0.7127 0.954266,0.58953 2.977457,0.43389 4.621845,-0.35553 0.572819,-0.27502 2.475331,-0.50795 4.506328,-0.55176 l 3.515001,-0.0758 1.400321,-1.68549 c 0.770169,-0.92702 1.571828,-2.00989 1.781411,-2.40623 0.359736,-0.68032 0.437824,-0.68878 1.390337,-0.15081 0.994247,0.56155 1.014317,0.55467 1.353798,-0.46399 0.585503,-1.756846 1.594215,-1.717481 6.115323,0.23869 3.850352,1.66597 7.609733,2.90516 11.719086,3.86276 1.00176,0.23345 2.1207,0.75695 2.4865,1.16329 0.64532,0.71683 0.68529,0.71861 1.34149,0.06 0.80943,-0.81238 0.83442,-1.76733 0.10132,-3.87212 -0.41279,-1.18516 -0.46584,-1.83837 -0.2156,-2.65452 0.18256,-0.595346 0.32492,-1.495528 0.31635,-2.000463 -0.0185,-1.0862 1.40423,-3.9384 2.11815,-4.246616 0.52133,-0.225046 0.66577,0.07927 1.08906,2.294575 0.13396,0.701041 0.70843,2.437751 1.27661,3.859494 0.56819,1.42174 1.14724,3.48451 1.2868,4.58403 l 0.25372,1.99916 3.79808,0.14653 c 2.88015,0.11111 4.87443,0.44857 8.25277,1.39645 7.23033,2.02878 9.2089,2.53196 9.98522,2.53963 0.71787,0.007 0.72261,-0.0309 0.21405,-1.71926 z M 75.076107,8.2764621 c -0.433928,-0.5719354 -0.422089,-0.5850666 0.126387,-0.1401722 0.576022,0.4672433 0.761732,0.76405 0.481121,0.768969 -0.0708,0.00124 -0.344167,-0.281708 -0.607506,-0.6287951 z M 144.63833,109.29904 c 0.0806,-0.27545 -0.0496,-0.4102 -0.30375,-0.31439 -0.24463,0.0922 -0.50823,0.38458 -0.5858,0.64971 -0.0806,0.27545 0.0496,0.41021 0.30375,0.3144 0.24463,-0.0922 0.50823,-0.38458 0.5858,-0.64972 z m -47.884114,-1.86959 c 3.131504,-0.44324 3.546954,-0.57155 2.544408,-0.78598 -2.030677,-0.43443 -7.599614,-2.34815 -9.894598,-3.40014 -1.199156,-0.54971 -2.237322,-0.99846 -2.306961,-0.99724 -0.06964,0.001 -0.285335,0.33385 -0.479228,0.7392 -0.252937,0.52877 -0.240507,0.95194 0.044,1.49797 0.335045,0.64303 0.254218,0.92578 -0.521292,1.82377 l -0.917843,1.06267 0.82532,0.31089 c 0.453927,0.17099 1.057228,0.41075 1.340656,0.5328 0.597826,0.25744 4.048882,-0.0314 9.365392,-0.78392 z m -90.1309888,-1.2134 c 0.8967215,-0.0164 2.1664961,0.1989 2.8216864,0.47862 1.3183974,0.56281 1.3033424,0.58931 0.8277464,-1.45744 C 10.086621,104.43662 9.4555761,100.50137 8.8703373,96.492363 7.8917811,89.789055 7.7981322,88.380976 7.7050569,78.97389 7.5812562,66.460886 7.8905675,54.981271 8.4831854,50.093943 9.3292588,43.116842 10.973983,36.745152 14.736164,25.869095 c 1.744889,-5.044741 2.049376,-6.300071 2.137991,-8.818984 0.0849,-2.411416 0.002,-3.024056 -0.463549,-3.423814 -0.792497,-0.680509 -0.946227,-0.341144 -0.450185,0.99381 0.35761,0.9624 0.323464,1.413056 -0.218866,2.889404 -0.817127,2.224281 -2.786124,3.925927 -5.7416117,4.961457 -2.8187974,0.987785 -5.0397035,1.03418 -6.7449248,0.140906 l -1.3263463,-0.6948 0.327339,5.371128 C 2.4360478,30.242234 2.8505128,35.574605 3.1770251,39.137858 4.6868598,55.61392 4.7198762,73.978006 3.279271,96.037241 2.9838583,100.5609 2.7554175,105.04315 2.7716262,105.99786 l 0.029468,1.73574 1.0957795,-0.74325 c 0.6877922,-0.46653 1.7027296,-0.75441 2.72614,-0.77322 z M 142.54794,104.19733 c 0.84272,-0.0148 2.19734,0.23187 3.0105,0.54808 0.81317,0.31621 1.52594,0.50925 1.5843,0.42897 0.0583,-0.0803 -0.0544,-1.70521 -0.25057,-3.61103 -0.19616,-1.90582 -0.52117,-11.190276 -0.72223,-20.631456 l -0.36558,-17.167121 0.85118,-4.619383 c 1.09662,-5.951681 2.32173,-9.896159 5.1227,-16.495534 2.0306,-4.784009 3.15853,-8.685123 2.65454,-9.181178 -0.10049,-0.09888 -0.42752,0.231699 -0.72672,0.734601 -1.16769,1.962558 -2.59983,3.486201 -3.89664,4.145542 -1.48564,0.755386 -4.91356,0.998907 -5.95914,0.423334 -1.35489,-0.745887 -1.95147,-4.813834 -1.00626,-6.860777 1.02389,-2.21727 3.26995,-3.038619 3.53242,-1.291564 0.15533,1.034056 0.88529,0.8376 1.01836,-0.274073 0.20521,-1.714355 -1.64318,-2.542801 -4.03328,-1.807743 -2.7815,0.855431 -2.94175,2.526735 -1.89592,19.773229 0.59708,9.845879 0.79206,16.040837 0.74711,23.736943 -0.0334,5.72811 -0.0243,10.74299 0.0202,11.144099 0.0446,0.40111 0.10493,2.291085 0.13411,4.199689 0.0442,2.890288 -0.19063,4.606385 -1.40501,10.267798 -0.80194,3.738684 -1.45451,7.006914 -1.45017,7.262654 0.006,0.34561 0.20015,0.31559 0.756,-0.11679 0.41145,-0.32006 1.4376,-0.59402 2.28035,-0.60879 z m 5.66797,-66.265119 c 0.64351,-0.664872 0.72933,-1.086208 0.61027,-2.99625 -0.0762,-1.222384 -0.3047,-2.27801 -0.50776,-2.345716 -0.20307,-0.06771 -0.77249,0.291284 -1.26537,0.797865 -0.73395,0.754352 -0.89071,1.241568 -0.86609,2.691915 0.0267,1.572172 0.46198,2.640269 1.07169,2.629581 0.11465,-0.002 0.54542,-0.351815 0.95728,-0.777325 z M 139.495,19.389266 c -0.18472,-2.684309 0.65032,-4.068603 3.24575,-5.380403 1.10477,-0.558383 2.01178,-1.136558 2.01539,-1.284826 0.009,-0.352406 -1.52566,-1.339259 -8.1322,-5.2302319 -8.20152,-4.8303168 -11.59932,-6.5251048 -12.46093,-6.2151863 -1.43317,0.5154588 -0.77361,1.6601976 3.72653,6.4677525 4.9129,5.2483737 7.53127,8.3899467 8.77666,10.5303847 1.03477,1.778404 2.11533,3.042783 2.59388,3.034926 0.2278,-0.0036 0.31678,-0.732077 0.23487,-1.922451 z m 4.8675,-0.359329 c 0.11781,-0.212548 -0.12809,-0.324178 -0.58118,-0.26385 -0.67086,0.08932 -0.78809,-0.06179 -0.80403,-1.036406 -0.0125,-0.763942 -0.15874,-1.080515 -0.44256,-0.957986 -0.58952,0.254482 -0.50995,1.401358 0.14419,2.078371 0.6205,0.642253 1.3822,0.723621 1.68367,0.179834 z M 10.896583,19.683744 C 11.83919,18.737694 11.663209,18.22839 9.9910104,17.062951 8.1176243,15.75723 7.7234395,16.066276 7.7699245,18.80433 l 0.033681,1.983868 1.2319399,-0.236475 C 9.7131156,20.421655 10.55057,20.031124 10.896519,19.683869 Z m 0.07665,-3.819929 c 0.119569,-0.215717 -0.0295,-0.674525 -0.331262,-1.019538 -0.500315,-0.572048 -0.499401,-0.681942 0.01037,-1.247338 0.790027,-0.876222 0.215957,-1.266454 -0.8686368,-0.590446 -1.1868777,0.739742 -1.324201,1.950942 -0.3048411,2.688635 0.9245589,0.6691 1.1998239,0.700173 1.4943629,0.168758 z M 69.809623,5.7555693 C 69.521776,5.27574 68.587025,5.2421334 68.595001,5.7119136 c 0.0031,0.1844746 0.108016,0.6064564 0.233076,0.9377255 0.200872,0.5320735 0.28523,0.5381645 0.723339,0.052268 0.272778,-0.3025393 0.388968,-0.7283787 0.258207,-0.9463378 z" />
  <path
     style="fill:#64635d;stroke-width:0.1712444"
     inkscape:connector-curvature="0"
     id="path6"
     d="m 125.62167,110.31386 c -7.52816,-1.90106 -8.26952,-2.02244 -11.45588,-1.87706 l -3.40676,0.15543 -0.28453,-2.37002 c -0.30049,-2.50323 -1.18724,-5.28798 -1.81024,-5.68515 -0.36273,-0.23123 -0.10061,4.23819 0.39353,6.70966 0.11439,0.57211 0.009,1.29491 -0.24507,1.67515 -0.36828,0.55196 -0.61095,0.60505 -1.3888,0.30393 -3.31703,-1.28415 -10.512222,-0.98005 -15.061694,0.63658 -3.420039,1.2153 -6.260009,0.87798 -7.814935,-0.92829 -0.459473,-0.53371 -0.588611,-1.03912 -0.440462,-1.72378 0.11529,-0.53277 0.02507,-1.5334 -0.200481,-2.22364 -0.570459,-1.7457 -1.40347,-1.4531 -1.926269,0.67665 -0.592431,2.41305 -1.193406,2.63384 -7.716308,2.83434 -3.185684,0.0979 -5.850013,0.35024 -6.406417,0.60679 -1.413471,0.65169 -2.751225,0.56269 -3.749361,-0.24939 -1.925636,-1.5667 -14.559853,-1.54716 -21.377468,0.0332 -1.771608,0.41063 -3.333504,0.63037 -3.470769,0.48833 -0.508405,-0.52622 -2.072239,-5.21183 -2.090078,-6.26261 -0.03702,-2.18076 -0.660328,-0.99067 -1.308068,2.49775 -0.36503,1.96586 -0.787602,3.82299 -0.939033,4.1272 -0.429978,0.86342 -8.186539,0.77909 -11.966461,-0.13013 -4.402294,-1.05892 -5.419103,-0.94366 -7.459185,0.8456 -2.253335,1.97627 -3.080557,2.2941 -6.1282069,2.35515 -2.8086345,0.0563 -4.0207048,-0.29707 -5.7801537,-1.68476 -1.8023841,-1.42165 -2.63065851,-3.69006 -2.4152607,-6.6161 C 3.7055249,70.091718 3.6350248,61.377928 0.53839807,26.141322 0.16691049,21.914239 -0.06839058,17.684769 0.01550279,16.74248 0.41822043,12.218889 3.1281461,9.7109317 11.348333,6.2550878 16.99669,3.880345 20.231057,2.9854728 25.649271,2.2978492 c 2.85655,-0.3624579 5.84127,-0.7677417 6.633078,-0.900647 1.321952,-0.2219209 1.468324,-0.1643006 1.794044,0.7061723 0.440412,1.1770515 1.058331,1.2262638 1.038917,0.082748 -0.01421,-0.8367374 0.03859,-0.8509055 2.800787,-0.7524333 3.56428,0.1270651 4.16556,0.3209272 1.268812,0.4091303 -2.518063,0.076676 -3.044741,0.446791 -3.016338,2.1197695 0.02602,1.5327218 -0.691553,2.2234985 -1.418627,1.3654683 C 34.456859,4.9822187 33.945265,4.1492899 33.613051,3.477164 33.025575,2.2884727 32.965694,2.2622215 31.424047,2.5177587 30.552334,2.6622547 28.384423,2.9735721 26.606541,3.2095661 22.386609,3.7696926 13.012779,6.4639071 13.50643,6.9748576 c 0.09679,0.1001818 0.906404,0.3150903 1.799097,0.4775713 3.476399,0.6327333 5.270726,2.1450405 5.310289,4.4753861 0.04262,2.51023 -1.906873,9.021462 -4.829415,16.129985 -1.562888,3.801486 -3.738884,11.28339 -4.534901,15.593164 -2.2459254,12.158858 -2.3785088,31.005209 -0.288857,41.059287 0.415082,1.99686 1.546246,6.105677 2.513716,9.130821 2.059848,6.440948 2.715461,9.718158 2.496763,12.479028 -0.152519,1.92526 -0.130694,1.99083 0.583612,1.75345 2.00981,-0.668 2.984433,-0.63663 6.042927,0.19452 3.573813,0.97118 10.668676,1.52111 11.037614,0.85552 0.11565,-0.20866 0.648445,-2.40889 1.18399,-4.88918 0.535545,-2.4803 1.194286,-4.987406 1.463876,-5.571302 0.914459,-1.980279 1.695445,-0.657163 1.845051,3.125882 0.03889,0.98351 0.419683,2.75908 0.846211,3.94575 l 0.775496,2.15754 1.388147,-0.26519 c 0.763476,-0.14585 6.210478,-0.43306 12.104651,-0.63823 10.572899,-0.36802 10.734485,-0.36256 12.06649,0.40826 1.558335,0.90182 3.696578,0.77566 5.792906,-0.34179 1.065841,-0.56816 1.476628,-0.60398 2.980737,-0.25981 2.148632,0.49165 5.267026,0.46524 6.13372,-0.0519 0.373803,-0.22307 0.85963,-1.22945 1.153045,-2.38848 0.278885,-1.10168 0.660053,-2.10825 0.847031,-2.23669 0.186979,-0.12843 0.726739,0.14242 1.199483,0.6021 0.726301,0.70623 0.907343,0.75148 1.168138,0.29185 0.169751,-0.29916 0.306186,-0.82585 0.303215,-1.17043 -0.003,-0.34458 0.305249,-0.81186 0.68495,-1.03845 0.569272,-0.3397 1.39597,-0.0949 4.713131,1.39585 2.212431,0.99431 5.410604,2.19737 7.106756,2.67341 3.667961,1.02939 4.787311,1.59397 2.579842,1.30112 -1.646524,-0.21844 -7.937852,-2.29134 -10.86163,-3.5789 -2.494329,-1.09834 -3.026172,-0.896 -2.9941,1.13926 0.02049,1.30462 -0.08654,1.61777 -0.529333,1.54797 -0.666754,-0.1051 -1.052955,1.24824 -0.602768,2.11221 0.395661,0.75935 2.551631,1.42299 4.49933,1.38488 0.822055,-0.016 3.129807,-0.28987 5.128341,-0.60841 2.444578,-0.38964 5.161813,-0.53733 8.303459,-0.45134 l 4.66993,0.12782 -0.29532,-4.34471 c -0.21387,-3.1465 -0.17737,-4.850788 0.1323,-6.179248 0.50749,-2.177016 1.28978,-2.456293 1.61472,-0.576398 0.1212,0.701264 0.6643,2.398637 1.2069,3.771896 0.54259,1.37327 1.07036,3.09053 1.17285,3.81611 0.44343,3.13928 0.25828,2.96223 3.04454,2.91339 3.13495,-0.055 6.43004,0.55054 12.64338,2.3232 5.00024,1.42665 8.0917,2.10446 8.45611,1.85395 0.11545,-0.0794 -0.0785,-1.00555 -0.43089,-2.05827 -0.36516,-1.09067 -0.56722,-2.38846 -0.46978,-3.01721 0.21045,-1.35779 3.27987,-11.635039 4.577,-15.325498 0.52323,-1.488511 1.18237,-4.513149 1.46477,-6.721497 0.56979,-4.455432 0.82882,-5.296551 0.78518,-2.54956 -0.0159,1.000379 0.14468,2.54496 0.35682,3.432421 0.47259,1.977061 0.13904,6.088862 -0.78854,9.720724 -0.36089,1.413104 -1.01349,4.423322 -1.45022,6.68951 -0.86453,4.48613 -0.77051,6.27216 0.39364,7.4771 0.74193,0.76793 0.62369,1.22151 -0.23128,0.88731 -0.29991,-0.11723 -0.79292,-0.81745 -1.09557,-1.55604 -0.67322,-1.64295 -0.51915,-3.66997 0.73512,-9.671567 0.84457,-4.041339 1.49085,-8.784771 1.14238,-8.384926 -0.0889,0.102042 -1.16392,3.244927 -2.38887,6.984291 -1.90788,5.824082 -2.22238,7.142872 -2.19426,9.198462 0.0277,2.01712 0.18725,2.64048 1.00126,3.91041 l 0.96837,1.51078 3.0673,-0.0538 c 3.80025,-0.0666 5.84896,-0.95774 6.4132,-2.78951 0.31408,-1.01973 0.26888,-1.24175 -0.36086,-1.77196 -0.39596,-0.33339 -1.58255,-0.93459 -2.63686,-1.33601 -1.76084,-0.67042 -1.9821,-0.6824 -2.71695,-0.1473 -0.43997,0.3204 -0.79427,0.91723 -0.78733,1.32627 0.007,0.40904 -0.14252,0.64482 -0.33214,0.52392 -0.18963,-0.12089 -0.35288,-0.69743 -0.36279,-1.28123 -0.033,-1.94399 2.01238,-2.38741 5.27742,-1.14431 1.05849,0.40301 1.99244,0.65733 2.07559,0.56516 0.0832,-0.0922 -0.0572,-2.53107 -0.31172,-5.4198 -0.25454,-2.888728 -0.60543,-12.073419 -0.77977,-20.410621 -0.30203,-14.443814 -0.28354,-15.365633 0.39209,-19.555406 0.95929,-5.949097 2.4891,-10.982622 5.46387,-17.977893 2.48279,-5.838589 2.49588,-5.885798 2.59457,-9.41963 0.12658,-4.529743 -0.14654,-5.877237 -1.51909,-7.494424 -2.8683,-3.379886 -6.55946,-3.378824 -10.69675,0.0028 -1.26529,1.034177 -1.44698,1.394844 -1.9154,3.80217 -0.6362,3.269536 -0.58219,6.7546 0.3883,25.053323 0.41797,7.881048 0.67062,15.904512 0.58075,18.442769 l -0.15913,4.492021 -0.27879,-3.101038 c -0.15333,-1.705535 -0.3504,-6.223788 -0.43795,-10.040662 -0.0876,-3.816873 -0.36428,-10.320458 -0.61497,-14.452687 -0.25069,-4.132229 -0.53957,-10.375356 -0.64195,-13.873754 l -0.18616,-6.360868 1.03274,-2.47696 c 1.20529,-2.890918 1.094,-3.077946 -1.70195,-2.861937 -1.40746,0.108749 -2.27533,-0.04063 -3.27236,-0.563254 -1.69855,-0.890337 -1.94341,-1.200271 -2.89393,-3.661842 -0.42372,-1.097392 -1.23776,-2.809267 -1.80891,-3.804071 l -1.03856,-1.80883 1.35034,1.515375 c 0.75786,0.85047 1.69252,2.467302 2.13021,3.68498 0.91728,2.551981 2.22538,3.842863 4.2241,4.168766 1.8401,0.299893 2.47815,-0.322638 1.0881,-1.061491 -0.5537,-0.294292 -1.61187,-1.481841 -2.35155,-2.639056 -0.73968,-1.157216 -1.98476,-2.914772 -2.76703,-3.905875 C 131.50592,13.660149 123.434,5.0118118 122.85727,4.7728451 122.59192,4.6629179 122.33167,3.8838226 122.25153,2.9594422 122.08098,0.9921553 122.7194,0.04280451 124.2292,0.01828805 l 1.05524,-0.01713318 -1.09578,0.74326864 c -1.94939,1.32228029 -1.60105,2.08467749 3.37308,7.38267959 5.14449,5.4793859 7.00315,7.7204039 8.95679,10.8000589 1.36008,2.143746 3.34489,3.734245 4.71989,3.782116 0.49192,0.01712 2.38851,-1.206415 4.95238,-3.194866 0.94938,-0.736324 2.05589,-2.680685 2.04213,-3.588643 -0.006,-0.363626 -0.80916,-1.535693 -1.78606,-2.604649 l -1.776,-1.943398 1.92954,1.075303 c 2.03277,1.132774 2.97593,2.176404 2.99525,3.314195 0.0237,1.395425 -1.12318,3.293319 -2.87944,4.764851 -0.99367,0.832653 -1.74787,1.574845 -1.67595,1.649317 0.0719,0.07447 0.89278,-0.06727 1.82403,-0.314947 2.03875,-0.542189 4.28717,0.06682 6.52349,1.766927 2.19979,1.67232 2.66047,3.038722 2.49892,7.411122 -0.16315,4.414088 -0.99491,7.735627 -2.94701,11.76837 -1.48992,3.07815 -3.8808,10.945503 -4.99451,16.434431 -1.04156,5.133638 -1.19481,11.576331 -0.59353,24.953531 0.29786,6.626778 0.73987,14.18263 0.98225,16.790938 0.57788,6.21892 0.35587,8.75896 -0.88599,10.1362 l -0.93792,1.04025 -6.41934,0.0894 -6.41933,0.0895 -8.04912,-2.03252 z m -112.877351,0.54481 c 1.099002,-0.6558 1.72732,-2.77562 1.857672,-6.26675 0.114793,-3.07727 0.07935,-3.2424 -2.094612,-9.755632 C 11.291134,91.19237 10.045718,86.949051 9.7395705,85.406951 8.8263552,80.804847 8.2271697,71.525233 8.3326082,63.617459 8.5417479,47.933484 9.6064945,42.215306 15.508817,25.071801 19.909138,12.291929 20.046483,10.937771 17.080948,9.558939 14.213479,8.2257039 7.1566764,9.2451098 4.199679,11.419753 c -1.4318906,1.053016 -2.6320374,3.557855 -2.6003032,5.427058 0.018453,1.086909 0.3068465,1.571604 1.7887491,3.006315 l 1.7667503,1.710546 2.1020029,-0.217939 c 2.3396883,-0.24258 5.2148609,-1.662017 6.5120479,-3.214938 1.18552,-1.419157 1.058004,-3.222684 -0.278034,-3.932843 -1.297234,-0.689495 -1.303577,-0.890631 -0.02879,-0.912978 1.127736,-0.01977 2.420322,1.163955 2.438474,2.233159 0.01832,1.079219 -1.18613,3.418164 -2.291425,4.449802 -1.355958,1.265554 -4.4731369,2.55553 -6.8561727,2.837339 -1.6688357,0.197321 -2.1485172,0.09988 -3.4864484,-0.708113 -0.85328,-0.515301 -1.6178413,-0.811515 -1.6990802,-0.658252 -0.158194,0.298634 0.7683654,13.495352 1.4542527,20.71258 1.3143591,13.830234 1.2489128,32.198528 -0.1950229,54.731156 -0.747157,11.659255 -0.625143,12.975005 0.9971662,10.752565 0.5179536,-0.70955 0.9277035,-0.83567 2.7684815,-0.85221 1.3608219,-0.0122 2.5748292,0.20667 3.2794552,0.59133 1.3580456,0.74139 1.3539926,0.7697 0.5429516,-3.78272 C 9.2389719,96.992103 7.7819257,82.991878 8.3300264,83.561972 c 0.079213,0.08235 0.3492537,1.872678 0.6000748,3.978431 0.4860864,4.080769 2.8791738,18.367027 3.3948928,20.265497 0.524722,1.93272 0.07174,2.0995 -2.4349732,0.89691 -2.6526583,-1.27258 -4.5132103,-1.28631 -5.2528362,-0.0387 -0.4027233,0.67938 -0.3827325,0.87641 0.1581067,1.55794 1.0843733,1.36646 6.0580007,1.76463 7.9488047,0.63638 z M 52.464568,16.153207 C 51.566911,15.034624 51.321644,13.633191 51.647699,11.485593 51.921757,9.680523 51.880777,9.1584462 51.388224,8.1810559 50.973033,7.3570916 50.850403,6.5156956 50.965629,5.2816236 L 51.127985,3.5430408 49.521264,3.2072353 C 48.637559,3.0225433 46.79683,2.7749056 45.430736,2.6569059 43.022507,2.4489105 41.592887,1.8150795 43.528132,1.8133665 c 1.809991,-0.0016 9.010504,0.8261748 9.238383,1.0620561 0.125408,0.1298033 0.05436,0.7809883 -0.157874,1.4470578 -0.494817,1.5528965 -0.464442,3.2679441 0.06763,3.8186407 0.672636,0.6962071 0.834944,0.5015462 0.670217,-0.8039014 -0.143406,-1.1364846 0.51951,-3.2346946 1.161384,-3.6760249 0.149769,-0.1029564 1.651001,0.1215359 3.336128,0.4988649 1.685128,0.377329 4.676793,0.8538003 6.648476,1.0588293 3.125353,0.325015 3.60178,0.4646734 3.717797,1.0899406 0.223399,1.2029802 0.693052,1.4348182 1.422841,0.7023618 C 70.611286,6.0294525 70.503067,4.9785086 69.425766,4.9973935 68.134269,5.0200335 67.930413,3.9789561 69.02235,2.9372173 70.101716,1.9074702 70.929908,1.7529905 70.132922,2.7300463 69.297037,3.754887 69.446049,4.6317018 70.453098,4.6140484 71.65623,4.5929574 71.578312,5.6406407 70.230727,7.6040305 68.840528,9.6295235 68.25352,9.6564779 67.860473,7.7129963 67.501452,5.9374607 67.146147,5.7804154 63.612221,5.8350962 62.277223,5.8557543 59.846026,5.6466866 58.209691,5.3705227 57.862975,5.312009 57.523289,5.2601105 57.201535,5.215783 56.004726,5.0508861 55.056436,4.9907301 54.920194,5.0843567 c -0.172797,0.1187851 -0.295888,1.2336225 -0.27353,2.4774796 0.02228,1.2438584 -0.116574,3.5795297 -0.308727,5.1906397 -0.43102,3.613761 -0.948576,4.55337 -1.873566,3.400786 z m 74.187002,-4.720728 c -1.23085,-1.302448 -2.88752,-2.6706119 -3.68141,-3.0401492 -0.79389,-0.3695373 -1.77855,-1.1580261 -2.18823,-1.7518019 -0.81763,-1.1856494 -2.58701,-2.2887027 -3.1027,-1.9343235 -0.17996,0.1237113 -0.3303,0.9140957 -0.33411,1.7564139 -0.004,0.8423182 -0.16852,2.4385876 -0.36607,3.5473837 -0.29498,1.65553 -0.496,2.039246 -1.12434,2.146169 -0.84765,0.144214 -0.89206,0.0031 -0.82145,-2.6105673 0.0468,-1.7323912 -0.82081,-4.4636738 -1.60108,-5.0401568 -0.78252,-0.5781632 -6.31089,-0.1795408 -8.26626,0.5960455 -2.02719,0.8040399 -5.25745,1.0537581 -6.651219,0.5141604 -1.161118,-0.4495054 -1.637454,0.018569 -2.081567,2.0454129 -0.449608,2.0520834 -1.01366,2.4585433 -1.52297,1.097355 -0.480018,-1.282884 -0.467037,-2.0074728 0.03612,-2.0162931 0.227347,-0.00399 0.718877,-0.4308379 1.092294,-0.9485673 0.650662,-0.9021433 0.856166,-0.9501009 4.938422,-1.1523344 2.34266,-0.1160609 5.17566,-0.4815576 6.29554,-0.8122068 2.16715,-0.6399045 4.50713,-0.8162411 6.2631,-0.4719896 0.80221,0.1572614 1.125,0.4519291 1.27638,1.1651626 0.3894,1.8347461 1.56172,3.0482332 1.53698,1.591116 -0.0217,-1.2788632 0.94282,-2.3206199 2.16853,-2.3421065 1.51946,-0.026636 2.2301,0.2808948 2.2418,0.9701447 0.0149,0.8799273 1.71947,2.9796974 2.40908,2.9676085 0.34021,-0.00596 1.01097,0.3084177 1.49059,0.6986391 1.13922,0.9268579 4.56521,5.0215241 4.37666,5.2308281 -0.0803,0.0891 -1.15313,-0.903622 -2.38391,-2.206106 z m 13.88718,-2.2867561 c -1.65325,-1.0065396 -2.9522,-1.8896284 -2.88659,-1.9623992 0.14167,-0.1571272 6.05642,3.4062563 6.06058,3.6511833 0.004,0.250615 0.0609,0.280735 -3.17399,-1.6887309 z M 94.806056,2.9128111 C 95.628418,1.8126335 94.931947,1.261681 92.766783,1.299636 91.646855,1.3192682 90.632946,1.172614 90.513579,0.97374504 c -0.135987,-0.2266781 0.597714,-0.37586717 1.966543,-0.39986256 1.682274,-0.02949 2.315441,0.11278338 2.759056,0.61985112 0.727135,0.8313841 0.753487,1.7325089 0.05947,2.032168 C 94.471706,3.5828649 94.35885,3.5111662 94.806053,2.912882 Z M 79.452523,2.3142477 c 0.278054,-0.194474 2.421892,-0.478384 4.763937,-0.6308949 2.724176,-0.1773843 3.768947,-0.1562722 2.899935,0.058599 -2.131668,0.5270473 -8.252553,0.9841167 -7.663707,0.5722933 z" />
  <path
     style="fill:#8b4513;stroke-width:0.16593024"
     inkscape:connector-curvature="0"
     id="path10"
     d="m 70.713182,44.613159 -0.540821,0.765366 -0.362465,0.384381 -0.730872,0.428457 -0.105054,0.342082 c 0,0 -0.290135,0.307541 -0.249874,0.495933 0.04026,0.188391 0.04603,0.528363 0.04603,0.528363 0,0 -0.508257,0.500294 -0.727185,0.655275 -0.218927,0.154981 -0.508422,0.500297 -0.508422,0.500297 0,0 -0.18059,0.230049 -0.289971,0.307538 -0.109382,0.07749 -0.289975,0.30737 -0.433841,0.536775 -0.143865,0.229406 -0.288855,0.382923 -0.360708,0.49754 -0.07185,0.114617 -0.288853,0.38309 -0.39246,0.800719 -0.103604,0.417797 -0.390536,0.914043 -0.390536,0.914043 l -0.07073,0.190169 c 0.04796,0.641855 0.04972,0.755182 0.127511,0.980702 0.07779,0.225519 0.150279,0.148341 0.08468,0.641043 -0.06544,0.492364 -0.06223,0.681405 -0.132155,0.909514 -0.06993,0.228109 -0.284367,0.647344 -0.354767,0.837844 -0.0704,0.190499 0.156531,0.526258 0.156531,0.526258 0,0 0.119171,0.489463 0.04715,0.604083 -0.07202,0.11462 0.04266,0.339493 0.04266,0.339493 0,0 0.44731,0.25666 0.597595,0.405337 0.150285,0.148677 0.412349,0.370798 0.451161,0.483476 0.03881,0.112677 0.343066,0.636681 0.381878,0.749359 0.03881,0.112677 0.341135,0.523022 0.416838,0.63522 0.0757,0.112199 0.451806,0.521418 0.451806,0.521418 0,0 0.48612,0.36917 0.599516,0.518493 0.113397,0.149324 0.44667,0.218885 0.559094,0.330272 0.112752,0.111381 0.370325,0.06891 0.519807,0.179986 0.149483,0.111073 0.441536,-0.08348 0.590538,-0.01035 0.149002,0.07313 0.552368,-0.08525 0.661749,-0.162743 0.109382,-0.07749 0.36311,-0.346439 0.549636,-0.236519 0.186525,0.10992 0.295105,-0.0052 0.443462,0.03001 0.148358,0.03519 0.366319,-0.157397 0.513872,-0.159983 0.147552,-0.0026 0.514029,-0.160323 0.624694,-0.162262 0.110664,-0.0019 0.47602,-0.235396 0.623736,-0.237986 0.147717,-0.0026 0.329434,-0.156582 0.515154,-0.08443 0.185721,0.07215 0.108102,-0.152871 0.442181,-0.04554 0.334078,0.107333 0.442821,-0.0078 0.555407,0.103453 0.112755,0.111549 0.25855,-0.0042 0.37178,0.144962 0.113229,0.149159 0.299591,0.259082 0.339047,0.409702 0.03946,0.150619 0.263354,0.298006 0.263354,0.298006 l 0.222131,0.03372 c 0,0 0.291585,-0.231827 0.367765,-0.08185 0.07618,0.149976 0.40786,0.106376 0.40786,0.106376 l 0.338407,0.371927 0.113393,0.149155 c 0,0 0.23176,0.600848 0.198556,0.828145 -0.03321,0.227297 -0.0247,0.718532 -0.133441,0.833796 -0.108738,0.115432 -0.174174,0.607963 -0.174174,0.607963 0,0 -0.145151,0.153688 0.192139,0.450231 0.337291,0.296542 0.563273,0.557082 0.6765,0.706072 0.113396,0.149324 0.415725,0.560005 0.456775,0.823786 0.04154,0.263773 0.117882,0.413578 0.271374,0.751129 0.153491,0.33755 0.338409,0.372094 0.381716,0.749529 0.04331,0.377436 0.11708,0.375975 0.08468,0.640876 -0.0324,0.265237 -0.142419,0.304951 -0.02855,0.491885 0.113871,0.186933 0.267037,0.524657 0.232401,0.638622 -0.03496,0.11397 -0.100564,0.606504 -0.100564,0.606504 l -0.06993,0.228109 -0.321082,0.648493 -0.215724,0.343686 c -0.06929,0.265716 -0.212348,0.532893 -0.169043,0.91016 0.04314,0.377271 -0.178028,0.38098 0.12349,0.753553 0.301519,0.372573 0.456134,0.786011 0.646513,1.122915 0.190377,0.336735 0.306816,0.674935 0.347388,0.900939 0.0409,0.226166 0.189741,0.299297 0.268648,0.600201 0.07891,0.300903 0.11836,0.451355 0.121569,0.640396 0.0032,0.189041 -0.0255,0.680929 0.05053,0.792954 0.07603,0.112025 0.118365,0.451691 0.157819,0.602143 0.03946,0.15062 -0.107619,0.190984 0.118366,0.451692 0.225984,0.260707 0.376099,0.409051 0.526861,0.595506 0.150762,0.186454 0.112589,0.111384 0.227909,0.374031 0.115321,0.262648 0.265277,0.411331 0.306174,0.637161 0.0409,0.22583 0.08708,0.792145 0.202404,1.054792 0.11532,0.262648 0.267201,0.524654 0.267201,0.524654 0,0 0.410586,0.257304 0.557497,0.216943 0.146748,-0.04036 0.436412,-0.385341 0.659825,-0.276068 0.223417,0.109441 0.405934,-0.0071 0.590374,-0.01035 0.184441,-0.0032 0.365195,-0.233285 0.5498,-0.236521 0.184604,-0.0032 0.437524,-0.310125 0.58669,-0.237 0.149166,0.07313 0.330541,-0.0817 0.511939,-0.273811 0.181398,-0.19211 0.2895,-0.34498 0.616359,-0.653165 0.32686,-0.308185 0.290133,-0.307709 0.508255,-0.500462 0.218123,-0.192753 0.432719,-0.612495 0.689653,-0.692571 0.256935,-0.08008 0.326225,-0.345623 0.396791,-0.535958 0.07057,-0.190334 0.105531,-0.304305 0.213792,-0.457514 0.10826,-0.153209 0.03754,0.03763 0.213797,-0.457178 0.176259,-0.49481 0.394714,-0.687233 0.577228,-0.803958 0.182514,-0.116725 0.289333,-0.345145 0.399354,-0.385028 0.11002,-0.03988 0.297193,0.108148 0.217642,-0.230698 -0.07939,-0.338681 -0.01411,-0.83121 -0.08965,-0.943243 -0.07554,-0.112034 -0.180283,0.267493 -0.152856,-0.300112 0.02743,-0.567604 0.423576,-1.141337 0.423576,-1.141337 0,0 0.541298,-0.727588 0.723979,-0.844148 0.182681,-0.11656 0.217481,-0.230528 0.473458,-0.386327 0.25549,-0.155454 0.802724,-0.543074 0.799515,-0.732115 -0.0032,-0.189041 0.209943,-0.684162 0.208016,-0.797653 -0.0019,-0.113492 -0.0038,-0.226648 -0.08837,-0.867862 -0.08452,-0.641214 0.06527,-0.492529 -0.16632,-1.093211 -0.231593,-0.600682 -0.281641,-1.355858 -0.432236,-1.542148 -0.150595,-0.186289 -0.08549,-0.679151 -0.08805,-0.830081 -0.0026,-0.150931 0.249564,-0.533545 0.357663,-0.686584 0.108099,-0.153038 0.577539,-0.766345 0.577539,-0.766345 0,0 0.723173,-0.88192 0.9745,-1.301971 0.25132,-0.420386 0.503124,-0.802659 0.685,-0.95699 0.181875,-0.154332 0.61908,-0.502573 0.870884,-0.884846 0.251804,-0.382273 0.756378,-1.109217 0.7915,-1.223527 0.0348,-0.113799 0.323492,-0.496887 0.323492,-0.496887 0,0 0.397591,-0.498522 0.467042,-0.76424 0.06912,-0.265881 0.412981,-1.746062 0.340488,-1.669219 -0.07249,0.07684 -0.513869,0.160151 -0.660944,0.200515 -0.146744,0.04053 0.224863,0.184988 -0.846828,0.128371 -1.071691,-0.05662 -1.621482,0.141782 -1.621482,0.141782 -0.333606,-0.06989 -0.585407,0.312549 -0.705217,-0.214521 -0.119809,-0.52707 -0.198716,-0.827974 -0.426297,-1.202011 -0.227581,-0.374037 -0.378191,-0.522541 -0.718363,-1.00813 -0.34033,-0.48525 -0.299925,-0.259411 -0.601604,-0.631814 -0.301679,-0.372402 -0.37354,-0.258289 -0.566318,-0.746126 -0.192778,-0.487837 -0.337124,-0.296377 -0.570166,-0.972773 -0.233042,-0.676397 -0.38188,-0.749527 -0.498957,-1.125334 -0.117078,-0.375806 -0.26656,-0.486879 -0.346272,-0.825555 -0.07955,-0.338846 -0.957651,-2.062107 -1.070406,-2.173656 -0.11275,-0.111213 -0.30746,-0.712878 -0.268645,-0.600033 0.03898,0.112674 0.56199,0.481533 0.56199,0.481533 0,0 0.293178,-0.118665 0.404006,-0.120608 0.110829,-0.0019 0.560547,0.406154 0.563109,0.557085 0.0026,0.150931 0.790065,0.855729 0.983323,1.381512 0.193422,0.525779 0.421659,0.899805 0.460784,1.050263 0.03913,0.150457 0.418766,0.748712 0.570333,0.972938 0.151567,0.224226 0.638645,0.669119 0.716272,0.894641 0.07763,0.225522 0.791822,0.968888 0.800162,1.460126 0.0083,0.491238 0.351075,1.127758 0.390692,1.278207 0.03962,0.150449 0.706816,0.328019 0.706816,0.328019 l 0.881956,-0.242344 c 0,0 1.313542,-0.892605 1.461258,-0.895195 0.147717,-0.0026 1.319006,-0.590078 1.319006,-0.590078 0,0 0.47185,-0.461702 0.799354,-0.731944 0.327504,-0.270242 0.688373,-0.767953 0.75846,-0.996232 0.07009,-0.22828 0.21684,-0.268303 0.506167,-0.613783 0.289328,-0.345481 0.689656,-0.692403 0.427588,-0.914693 -0.262067,-0.222289 -0.408662,-0.143979 -0.78396,-0.515427 -0.375297,-0.371448 -0.337287,-0.296375 -0.604011,-0.783251 -0.266718,-0.486541 0.01893,-1.058672 -0.525099,-0.482012 -0.544024,0.576661 -0.319805,0.723706 -0.871525,0.847071 -0.551401,0.122856 -0.766642,0.504656 -1.031275,0.131268 -0.264633,-0.373388 -0.518999,-0.142046 -0.676505,-0.706409 -0.157506,-0.564363 -0.268647,-0.6002 -0.309217,-0.826036 -0.04057,-0.225836 -0.0038,-0.226816 -0.308745,-0.788595 -0.304894,-0.56178 -0.09815,-1.434647 0.09463,-0.946642 0.192781,0.488005 0.489332,0.558378 0.974981,0.890106 0.485317,0.331565 0.711469,0.592438 1.154768,0.622453 0.443299,0.03001 0.811866,-0.01423 0.886923,0.05986 0.07506,0.07409 0.146914,-0.04019 0.332798,0.03195 0.185884,0.07214 0.256132,-0.11768 0.3352,0.183053 0.07907,0.300733 0.485484,0.331731 0.673131,0.517371 0.187648,0.185639 0.186532,0.110255 0.667685,0.177225 0.481159,0.06697 1.145479,0.05566 1.145479,0.05566 l 0.70023,-0.05023 0.81315,0.06115 c 0,0 0.59647,0.329785 0.74386,0.327201 0.14739,-0.0026 0.1915,0.412623 0.56439,0.632802 0.3729,0.220178 0.44732,0.25666 0.67314,0.51737 0.22582,0.260711 0.19102,0.374678 0.49061,0.633928 0.29993,0.259579 0.77467,-0.0512 0.84652,-0.165647 0.0715,-0.11478 0.43736,-0.310122 0.36905,-0.0065 -0.0683,0.303653 0.37192,0.182242 0.27345,0.902404 -0.0985,0.720161 -0.17563,0.532081 0.0173,1.020251 0.19295,0.488169 1.03031,1.985262 1.07506,2.438076 0.0448,0.452814 0.26335,0.297838 0.3073,0.713048 0.044,0.41521 0.26784,0.562093 0.27297,0.864458 0.005,0.302365 0.26496,0.373214 0.30553,0.599554 0.0411,0.226163 0.44363,0.02984 0.55365,-0.0097 0.11019,-0.03989 0.61828,-0.540177 0.61828,-0.540177 0,0 0.22054,-0.07927 0.17691,-0.456699 -0.0436,-0.37743 -0.005,-0.302198 -0.0147,-0.868985 -0.01,-0.566787 -0.23096,-0.562907 -0.12991,-1.131467 0.10104,-0.568559 0.39037,-0.914208 0.45982,-1.179926 0.0694,-0.265719 0.35686,-0.724356 0.5036,-0.764882 0.14675,-0.04053 0.95189,-0.470117 1.132,-0.738111 0.18011,-0.267994 0.47008,-0.575197 0.76022,-0.88257 0.29014,-0.307373 0.80016,-0.69434 0.91291,-0.582959 0.11259,0.111384 0.0751,0.07426 0.25967,0.07102 0.1846,-0.0032 0.51916,0.14221 0.77802,0.175458 0.25902,0.03325 0.78669,0.666524 0.90313,1.004723 0.11644,0.3382 0.0414,0.263776 0.45565,0.748066 0.41427,0.483954 0.77818,0.17512 0.78845,0.77985 0.0103,0.60473 0.01,0.566787 0.19808,0.790367 0.18845,0.22358 0.39871,-0.422802 0.62132,-0.350965 0.22262,0.07184 0.25694,-0.08008 0.45164,0.521253 0.19471,0.601329 0.30538,0.599557 0.35286,1.203467 0.047,0.603918 -0.0364,0.03842 -0.0281,0.529494 0.008,0.491406 -0.0281,0.52983 0.0537,0.981827 0.0818,0.451997 0.34194,0.599084 0.30666,0.675274 0,0 0.21042,-0.646217 0.12878,-1.098552 -0.0816,-0.452335 -0.0186,-1.095632 0.1628,-1.287741 0.1814,-0.19211 0.36279,-0.384387 0.51852,0.104268 0.15606,0.48848 0.22342,0.109441 0.56503,0.670408 0.34162,0.560968 0.63513,0.442297 0.67651,0.706241 0.0414,0.263944 0.22695,0.298644 0.48869,0.520604 0.26223,0.222286 0.47907,-0.04602 0.77049,-0.278008 0.29141,-0.231992 1.089,-1.077599 1.12044,-1.418391 0.031,-0.340615 0.36439,-0.271056 -0.24089,-1.129521 -0.60529,-0.858464 -0.61043,-1.161165 -1.24668,-1.679182 -0.63591,-0.518023 -1.00576,-0.549325 -0.53744,-1.238016 0.46833,-0.688692 0.68196,-1.145867 0.98027,-0.961999 0.29832,0.183868 0.81411,0.136704 0.82694,0.892701 0.0128,0.755996 -0.12061,1.589624 0.38059,0.673641 0.5012,-0.915982 0.75077,-1.449527 0.60546,-1.295501 -0.14531,0.154027 0.32702,-0.308187 0.32702,-0.308187 0,0 0.0313,-0.340789 0.65614,-0.502887 0.62486,-0.162097 0.80769,-0.241042 1.02742,-0.358251 0.21973,-0.11721 0.834,-0.884199 0.93889,-1.22611 0.10489,-0.341912 0.38989,-0.951818 0.31163,-1.214947 -0.0783,-0.263465 -0.46929,-1.541498 -0.54243,-1.502598 -0.073,0.03923 -0.0361,0.03859 -0.5246,-0.48202 -0.48853,-0.520607 -0.82743,-0.892693 -0.90506,-1.118215 -0.0776,-0.225522 -0.26287,-0.260061 -0.0467,-0.566138 0.21619,-0.306077 0.32783,-0.270248 0.36022,-0.535485 0.0324,-0.265237 0.32349,-0.497055 -0.22678,-0.298311 -0.55028,0.198743 -0.14627,0.0783 -0.62662,0.04894 -0.48035,-0.02936 -1.72975,0.294823 -1.11579,-0.509611 0.61395,-0.804433 0.78956,-1.298896 0.90039,-1.300839 0.11083,-0.0019 0.65357,-0.654153 0.70056,-0.05023 0.0473,0.603912 0.26591,0.448769 0.30938,0.826033 0.0435,0.377265 0.76793,-0.429106 0.76793,-0.429106 0,0 0.25949,0.07102 0.44714,0.256663 0.18765,0.18564 0.19808,0.790367 0.19808,0.790367 0,0 -0.15076,-0.186455 0.2603,0.108794 0.41107,0.295249 0.85116,0.136223 0.86207,0.778728 0.0109,0.642504 0.0115,0.680279 0.27249,0.826848 0.26095,0.146569 0.51772,0.06666 0.73633,-0.126265 0.21862,-0.19293 0.57546,-0.879499 0.57546,-0.879499 0,0 0.0324,-0.265237 -0.56439,-0.632802 -0.59679,-0.367565 -0.97033,-0.62535 -1.1947,-0.810514 -0.22438,-0.185164 -0.16055,-0.753071 0.0568,-0.983932 0.21732,-0.23086 0.32639,-0.345962 0.24748,-0.646866 -0.0789,-0.300904 0.10184,-0.531123 0.65597,-0.503051 0.55413,0.02807 0.66351,-0.04925 0.66351,-0.04925 0,0 0.11228,0.07344 0.10843,-0.153212 -0.004,-0.226647 0.67906,-1.297127 0.49445,-1.293891 -0.1846,0.0032 0.0329,-0.265078 -0.0853,-0.678818 -0.11821,-0.41374 0.35108,-1.064495 -0.0598,-1.359747 -0.4109,-0.295252 -0.52446,-0.444572 -0.79037,-0.893341 -0.26592,-0.448769 -0.23064,-0.525128 -1.19182,-0.621804 -0.96119,-0.09668 -1.39839,0.251397 -1.62502,-0.04692 -0.22662,-0.298315 -0.3243,0.459115 -0.48724,-0.445225 -0.16295,-0.904341 0.19582,-1.51554 0.19582,-1.51554 0,0 0.58396,-0.388095 0.72686,-0.655269 0.1429,-0.267174 0.73151,-0.39085 1.21492,-0.210227 0.48341,0.180623 1.18315,0.130403 1.77578,0.233708 0.5923,0.102806 0.56183,0.481367 0.84876,-0.01488 0.28693,-0.496246 -0.0122,-0.718054 0.20464,-0.986524 0.21684,-0.26847 0.46817,-0.688688 0.65709,-0.427499 0.18893,0.261189 0.56296,0.519302 0.85246,0.173986 0.28933,-0.345145 0.39935,-0.38486 0.39935,-0.38486 l 0.1498,0.148686 c 0,0 0.32894,-0.195032 0.33471,0.14494 0.006,0.340308 0.34452,0.712396 0.1644,0.980055 -0.18011,0.267658 -0.4388,0.234575 -0.4279,0.876912 0.0109,0.642337 0.009,0.529181 0.42358,1.051251 0.41507,0.521726 0.66559,0.06374 0.74899,0.629398 0.0834,0.565662 0.15509,0.451048 0.56777,0.821672 0.41267,0.370625 0.33824,0.37193 0.63752,0.593567 0.29929,0.221636 0.45069,0.445866 0.44427,0.06795 -0.006,-0.377914 0.0273,-0.567434 -0.0154,-0.906927 -0.043,-0.339319 0.285,-0.609906 0.0536,-1.172805 -0.23144,-0.562898 -0.0457,-0.528369 -0.49558,-0.936295 -0.44988,-0.407926 -0.73697,0.08866 -0.89446,-0.51349 -0.15749,-0.602149 0.68612,-0.881439 0.90649,-0.960874 0.22038,-0.07944 0.54418,-0.538709 0.62309,-0.237638 0.0789,0.301072 -0.52959,1.407865 0.52077,0.217587 1.05036,-1.190279 0.57883,-0.690461 0.57883,-0.690461 0,0 0.5522,-0.08525 0.66415,-0.01164 0.11179,0.07378 0.40049,-0.347262 0.28997,-0.30737 -0.11051,0.03989 -1.19068,-0.584038 -1.19068,-0.584038 l -0.783,-0.439704 c 0,0 0.25533,-0.193574 0.44042,-0.158864 0.18508,0.03471 0.21524,-0.3818 0.3992,-0.422979 0.18396,-0.04118 1.44346,0.239534 1.70457,0.3861 0.26111,0.146566 1.18379,0.168178 1.07168,0.09457 -0.11211,-0.07361 -0.70986,-0.516726 -0.74948,-0.667343 -0.0393,-0.150455 -1.33616,-0.430176 -1.74129,-0.385288 -0.40546,0.04472 -0.77225,0.164513 -1.10633,0.05701 -0.33409,-0.107501 -0.81893,-0.401457 -1.07731,-0.396927 -0.25838,0.0045 -3.51642,-0.580886 -3.66334,-0.540524 -0.14691,0.04036 -0.35638,0.762132 -0.46896,0.650748 -0.11259,-0.111384 -0.29704,-0.108318 -0.81653,-0.250355 -0.51949,-0.142037 -1.22213,-0.243246 -2.1461,-0.302452 -0.92398,-0.05921 -1.54818,0.102711 -1.8117,-0.195125 -0.26351,-0.297835 -0.81491,-0.174644 -1.44298,-0.201588 -0.6279,-0.02661 -1.36535,0.02393 -1.69751,0.02976 -0.33215,0.0058 -1.10744,-0.0182 -1.29269,-0.05291 -0.18525,-0.03471 -0.41107,-0.295249 -0.63304,-0.328975 -0.2223,-0.03406 -0.18669,-0.110085 -0.63063,-0.177875 -0.44394,-0.06779 -0.41555,-0.559671 -0.55605,-0.141564 -0.14049,0.418444 -0.0688,0.303661 -0.28757,0.45864 -0.21877,0.154978 -0.43513,0.461226 -0.58284,0.463815 -0.14772,0.0026 -0.73712,0.05071 -0.8494,-0.0229 -0.11227,-0.0736 -0.29783,-0.145922 -0.66688,-0.139453 -0.36904,0.0065 -0.3684,0.04408 -0.8494,-0.02306 -0.48099,-0.06714 -0.8494,-0.02306 -1.29606,-0.241781 -0.44667,-0.218718 -0.44924,-0.370152 -0.81764,-0.325908 -0.36808,0.04441 -0.37,-0.06909 -0.88693,-0.06002 -0.51693,0.0091 -1.13856,0.322414 -1.47024,0.366014 -0.33119,0.04359 -1.07057,-0.01919 -1.33087,-0.127982 -0.26031,-0.108794 -0.33857,-0.371923 -1.29623,-0.241946 -0.9575,0.13031 -1.51098,0.140013 -1.33167,-0.165585 0.1793,-0.305599 0.39566,-0.611678 0.50569,-0.651393 0.11002,-0.03971 0.36503,-0.233114 0.17914,-0.305427 -0.18556,-0.07249 -0.37208,-0.182407 -0.81539,-0.21259 -0.4433,-0.03018 -0.40369,0.15822 -1.06896,0.09431 -0.66527,-0.06391 0.36456,-0.270892 -0.99999,-0.209186 -1.36455,0.06171 -1.69495,0.180856 -1.8425,0.183442 -0.14755,0.0026 -0.33745,-0.296371 -0.69864,0.163391 -0.36118,0.459762 -0.87378,0.733417 -1.6109,0.784124 -0.73728,0.05088 -0.77626,-0.06196 -1.47265,0.214745 -0.696386,0.276708 -1.145472,-0.05549 -0.987491,0.546481 0.15798,0.601972 0.346272,0.825555 0.348195,0.938879 0.0019,0.113323 -0.317401,0.874975 -0.730869,0.428624 -0.413468,-0.44635 -1.182039,-2.209485 -0.829352,-1.006016 0.352521,1.203304 1.097508,1.606225 0.39984,1.807385 -0.697832,0.201162 -0.628873,-0.06455 -0.740823,-0.138325 -0.111783,-0.07361 -0.01026,-0.604562 -0.05228,-0.906281 -0.04202,-0.301718 -0.119004,-0.489298 -0.269122,-0.63781 -0.150118,-0.148512 -0.117244,-0.375971 -0.413632,-0.446347 -0.296388,-0.07038 -0.04074,-0.226169 -0.520449,-0.21776 -0.479709,0.0084 -0.890612,-0.286843 -0.768398,0.391496 0.122047,0.678175 0.225015,0.222939 0.531026,0.860103 0.30601,0.637163 0.851961,0.173994 0.45389,0.634571 -0.398071,0.460576 -1.470883,0.328239 -1.732471,0.143895 -0.261587,-0.184343 -0.183158,0.07878 -0.66897,-0.252942 -0.485812,-0.331724 -0.342096,-0.598913 -0.89109,-0.32462 -0.548994,0.274293 -0.725259,0.768767 -0.949961,0.583609 -0.224702,-0.185158 -0.733437,0.277358 -0.921887,0.05411 -0.188449,-0.223244 -0.926546,-0.210641 -1.070083,0.01876 -0.143538,0.229399 -0.587332,0.199225 -1.209461,0.512586 -0.622128,0.31336 -0.442347,0.04537 -1.206253,0.701459 -0.763907,0.656087 -1.198078,1.1927 -1.463188,0.781535 -0.265436,-0.410992 -1.680031,-1.104462 -1.128308,-1.227659 0.551723,-0.123197 0.806095,-0.354204 1.105853,-0.09496 0.299758,0.259246 0.778352,0.175453 0.848591,-0.01488 0.07024,-0.190328 0.399681,-0.385033 -0.04715,-0.603915 -0.446833,-0.218883 -0.480995,-0.06731 -1.186523,-0.319441 -0.705527,-0.252134 -0.0032,-0.188874 -0.965358,-0.323319 -0.962151,-0.134445 -1.369364,-0.20271 -1.628864,-0.273733 -0.259499,-0.07102 -0.627262,0.011 -0.996784,-0.02031 -0.369523,-0.03131 -0.629187,-0.102328 -0.960866,-0.05873 -0.331352,0.04359 -0.517076,-0.02872 -0.954286,0.319183 -0.437211,0.347905 -0.766803,0.504826 -1.057419,0.774422 -0.290616,0.269596 -1.056446,0.812359 -1.27473,1.005282 -0.218283,0.192924 -0.983,0.810904 -1.052926,1.039012 -0.06992,0.228109 0.08083,0.414396 -0.21187,0.570671 -0.292704,0.156274 -0.587809,0.161447 -0.80866,0.203105 -0.220852,0.04166 -0.0058,-0.34014 -0.220852,0.04166 -0.215076,0.381797 -0.11804,1.740891 0.06319,1.548617 0.181231,-0.192274 0.06031,-0.794728 0.881798,-0.242005 0.821492,0.552723 1.336965,0.46778 1.308895,0.997442 -0.02807,0.529662 0.561826,0.481535 0.637529,0.593734 0.0757,0.111863 0.440253,-0.159029 0.440253,-0.159029 0,0 0.802886,-0.543245 0.798396,-0.807667 -0.0045,-0.264423 0.501842,-0.878208 0.501842,-0.878208 0,0 -0.372416,-0.182401 -0.378832,-0.560316 -0.0064,-0.377914 0.10265,-0.493351 0.169846,-0.872556 0.0672,-0.379205 -0.40593,0.0073 0.689012,-0.730346 1.094942,-0.737629 1.176903,-0.247178 1.176903,-0.247178 0,0 0.149954,0.148515 -0.03064,0.378396 -0.180593,0.229881 -0.50248,0.840601 -0.574977,0.917276 -0.0725,0.07668 0.343707,0.674457 0.527983,0.671226 0.184605,-0.0032 0.551082,-0.160972 0.773216,-0.12708 0.222137,0.03406 0.588453,-0.123505 0.7004,-0.0499 0.111947,0.07361 0.374176,0.295728 0.192781,0.488005 -0.181395,0.192277 -0.583484,0.425873 -0.879705,0.355662 -0.296221,-0.07021 -0.748521,-0.591788 -0.477308,0.159511 0.271213,0.751299 -0.02085,0.945348 -0.242984,0.911456 -0.222134,-0.03389 -0.708092,-0.403232 -0.624694,0.162262 0.0834,0.565495 -0.46351,0.952941 -0.574338,0.954883 -0.110828,0.0019 -0.332634,-0.03195 -0.332634,-0.03195 0,0 -0.332966,-0.03212 -0.517242,-0.02889 -0.184605,0.0032 -0.550444,0.198578 -0.65854,0.351785 -0.108263,0.153041 -0.257737,0.04247 -0.442177,0.0457 -0.184441,0.0032 -0.0039,-0.226816 -0.374179,-0.295896 -0.370328,-0.06908 -0.592939,-0.140749 -0.811703,0.01423 -0.218763,0.154979 -0.549638,0.236351 -0.699278,0.125616 -0.149641,-0.110734 0.06752,-0.379378 -0.225341,-0.222765 -0.292862,0.156613 -0.506975,0.575843 -0.616995,0.615726 -0.110026,0.03955 0.332157,-0.0058 -0.110026,0.03955 -0.442178,0.04571 -0.624691,0.162431 -0.844904,0.241695 -0.220213,0.07926 0.08276,0.527719 -0.320611,0.685934 -0.403368,0.158214 -0.113707,-0.186936 -0.514033,0.160154 -0.400155,0.347423 -0.468965,0.650917 -0.615712,0.691275 -0.146748,0.04036 -0.108741,0.115264 -0.440257,0.158861 -0.331515,0.0436 -0.293822,0.08072 -0.477949,0.121736 -0.184127,0.04101 0.03898,0.112842 -0.36824,0.04424 -0.407219,-0.0686 -0.699917,0.08801 -0.623576,0.237815 0.07634,0.149805 1.448752,0.541559 0.414915,0.521896 -1.033837,-0.01966 -0.698473,0.163388 -0.474579,0.310607 0.223894,0.147218 0.337124,0.296377 0.448596,0.332377 0.111473,0.036 0.303448,0.486233 0.303448,0.486233 0,0 0.294625,-0.04312 0.114676,0.224705 -0.179948,0.267823 0.07955,0.338846 -0.09928,0.682222 -0.17883,0.343375 -0.182516,0.116557 -0.328786,0.194693 -0.14627,0.07814 -0.363271,0.346608 -0.773219,0.126912 -0.409948,-0.219697 -0.706649,-0.327854 -1.187161,-0.357048 -0.480354,-0.02953 -0.149641,-0.110735 -0.477148,0.159339 -0.327662,0.270581 -0.396307,0.574072 -0.353484,0.913394 0.04266,0.339325 0.08725,0.79231 -0.01973,1.021068 -0.106977,0.228759 -0.102965,0.455404 -0.02358,0.794253 0.07971,0.338675 0.303775,0.486227 0.303775,0.486227 0,0 0.517878,0.06632 0.629187,0.102328 0.111308,0.036 0.330874,-0.08137 0.629183,0.10216 0.298478,0.183865 0.595033,0.254406 0.775623,0.02436 0.18059,-0.230048 0.914191,-0.50741 1.132,-0.737943 0.217808,-0.230533 0.36375,-0.308663 0.249235,-0.533539 -0.114515,-0.224876 0.20802,-0.797486 0.390536,-0.914043 0.182517,-0.116557 0.586524,-0.237165 0.586524,-0.237165 l 0.431275,-0.687874 c 0,0 0.361985,-0.422326 0.54707,-0.387617 0.185084,0.03471 1.224696,0.394512 1.142744,-0.09544 -0.08195,-0.489947 0.06287,-0.643797 0.176739,-0.456864 0.113871,0.186933 0.407857,0.106208 0.407857,0.106208 0,0 0.146273,-0.07797 0.258861,0.03342 0.112586,0.111216 0.268484,0.600203 0.491898,0.709477 0.223419,0.109609 0.409784,0.219699 0.55878,0.292491 0.148996,0.07279 0.295269,-0.0052 0.59503,0.254238 0.299761,0.259415 0.597435,0.405508 0.63608,0.51802 0.03914,0.112672 0.301849,0.372736 0.301849,0.372736 0,0 0.259499,0.07102 0.188291,0.223582 -0.07121,0.15256 -0.432391,0.61249 -0.615716,0.691107 -0.183324,0.07862 -0.665435,-0.06408 -0.478427,0.08396 0.186842,0.147868 0.448597,0.332377 0.557334,0.216945 0.108905,-0.115267 0.796947,-0.883381 0.796947,-0.883381 0,0 -0.03625,0.03842 -0.0032,-0.189041 0.03304,-0.227463 -0.0083,-0.491071 0.178191,-0.380983 0.186368,0.110259 0.299761,0.259414 0.370972,0.107023 0.07121,-0.152392 0.14627,-0.07814 -0.04026,-0.188224 -0.186529,-0.110088 -0.640095,-0.744833 -0.862229,-0.778725 -0.222134,-0.03389 -0.782202,-0.402268 -0.782202,-0.402268 0,0 -0.112425,-0.111387 -0.375936,-0.409055 -0.263512,-0.297667 -0.335844,-0.220996 -0.41444,-0.484287 -0.0786,-0.263291 -0.305533,-0.599386 0.101847,-0.530955 0.40738,0.06843 0.669922,0.328329 1.042818,0.548675 0.372896,0.220347 0.300563,0.297018 0.636407,0.518014 0.335844,0.220996 0.376911,0.447159 0.634323,0.404861 0.257575,-0.0423 0.556215,0.141393 0.561989,0.481533 0.0058,0.340139 0.0858,0.716595 0.160862,0.791019 0.07506,0.07442 0.298956,0.221643 0.375462,0.371445 0.0765,0.149803 0.230474,0.52513 0.343539,0.674292 0.113394,0.149155 0.225985,0.260707 0.339859,0.447808 0.113874,0.187102 0.146908,-0.04053 0.258858,0.03325 0.112111,0.07361 0.259019,0.03308 0.256454,-0.118022 -0.0026,-0.151098 0.02967,-0.416332 0.02967,-0.416332 0,0 0.51436,-0.16016 0.365522,-0.233291 -0.148838,-0.07313 -0.599683,-0.518658 -0.565196,-0.670406 0.03449,-0.151748 -0.0077,-0.453296 0.177222,-0.418751 0.185243,0.03437 0.375623,0.371274 0.776423,0.06179 0.4008,-0.309481 0.877944,-0.468989 0.737926,-0.01294 -0.140018,0.456053 0.04619,0.528193 0.01732,1.020251 -0.02838,0.49205 0.153655,0.337547 0.416528,0.597608 0.262872,0.260061 0.447793,0.294773 0.633514,0.366922 0.18572,0.07215 0.480354,0.02953 0.776428,0.06213 0.296074,0.0326 0.477783,-0.121901 0.737449,-0.05071 0.259336,0.07103 0.847947,-0.05282 0.960061,0.02096 0.112113,0.07377 0.551084,-0.160804 0.592298,0.102974 0.04138,0.263944 0.183963,-0.04101 0.08356,0.565492 -0.1004,0.606502 -0.241059,1.02478 -0.241059,1.02478 -0.39246,0.800719 -0.536803,0.992346 -0.720767,1.033357 -0.183635,0.041 -0.292539,0.156272 -0.625174,0.124317 -0.332801,-0.03212 -0.73809,0.01294 -1.219724,-0.09198 -0.481634,-0.104915 -1.363593,0.137261 -1.736325,-0.08309 -0.372732,-0.220349 -0.886284,-0.02225 -1.11243,-0.282786 -0.226146,-0.260537 -0.594061,-0.21647 -0.744343,-0.364979 -0.150281,-0.148509 -0.230948,-0.562739 -0.220684,0.04182 0.01026,0.604562 -0.321252,0.648159 -0.389895,0.951817 -0.06864,0.303658 0.113066,0.149162 -0.293509,0.118503 -0.406578,-0.03083 -0.513391,0.197929 -1.111461,-0.245017 -0.59807,-0.442947 -0.893342,-0.437939 -1.191656,-0.621807 -0.298315,-0.183868 -0.584766,0.350324 -0.890133,-0.248897 -0.305366,-0.599221 -0.703129,-0.1012 -0.748357,-0.591791 -0.04523,-0.49076 -0.0077,-0.453296 0.02406,-0.756307 0.03176,-0.303012 0.433199,-0.57455 0.246835,-0.684641 -0.186365,-0.110091 -0.04219,-0.301716 -0.298476,-0.183697 -0.25629,0.118018 -0.624697,0.162094 -0.918042,0.280594 -0.293342,0.118668 0.66415,-0.01164 -0.773052,0.127077 -1.437202,0.13872 -1.840737,0.296769 -1.840737,0.296769 0,0 -0.111947,-0.07361 -0.293986,0.08073 -0.18204,0.154335 -0.436406,0.385677 -0.696547,0.27688 -0.260143,-0.108966 -0.407219,-0.0686 -0.627903,-0.02678 -0.220685,0.04182 -0.372088,-0.182407 -0.627262,0.011 -0.255178,0.193234 -0.548997,0.274125 -0.661111,0.20035 -0.112292,-0.07461 -0.302027,-0.373572 -0.302027,-0.373572 z" />
  <path
     style="fill:#8b4513;stroke-width:0.16593024"
     inkscape:connector-curvature="0"
     id="path12"
     d="m 95.822495,69.045004 c -0.103604,0.417797 -0.499276,1.029307 -0.499276,1.029307 l -0.731839,0.390855 c 0,0 -0.254038,0.231337 -0.401277,0.271704 -0.146914,0.04019 -0.512747,0.235871 -0.512747,0.235871 0,0 -0.333279,-0.0699 -0.217006,0.268138 0.116439,0.338199 0.160551,0.753406 0.12542,0.867212 -0.0348,0.114136 -0.03095,0.340951 -0.02581,0.643316 0.0051,0.302365 -0.09912,0.681884 -0.282443,0.760669 -0.183322,0.07879 -0.366477,0.157736 -0.325097,0.421679 0.04138,0.263944 0.05501,1.057376 0.05501,1.057376 l 0.492705,0.747417 c 0,0 0.145629,-0.115911 0.440898,-0.121087 0.295269,-0.0052 0.585887,-0.274604 0.585887,-0.274604 0,0 0.333598,0.06939 0.289331,-0.345312 -0.04395,-0.41521 0.132483,-0.90952 0.09334,-1.022359 -0.03865,-0.11268 0.322054,-0.610555 0.320133,-0.723711 -0.0019,-0.113492 0.358143,-0.648639 0.354931,-0.837847 -0.0032,-0.189209 0.249877,-0.495765 0.28292,-0.722892 0.03304,-0.227126 0.06094,-0.757121 0.132155,-0.909513 0.07121,-0.152392 0.105695,-0.304308 0.10313,-0.455407 l -0.0077,-0.453463 z" />
  <path
     style="fill:#8b4513;stroke-width:0.16593024"
     inkscape:connector-curvature="0"
     id="path14"
     d="m 124.80301,73.640088 c -0.10811,0.152871 -0.15429,1.779313 -0.22486,1.969479 -0.0706,0.190167 -0.2016,1.1754 -0.12365,1.400581 0.0779,0.225181 0.20224,1.054963 0.13312,1.320844 -0.0691,0.265881 0.0555,1.095154 -0.12992,1.060618 -0.18492,-0.03471 -0.25725,0.04246 -0.25532,0.155619 0.002,0.113492 0.26366,0.335451 0.26366,0.335451 0,0 0.44315,-0.0076 0.62694,-0.04878 0.1838,-0.04118 0.54964,-0.236518 0.84491,-0.241694 0.29527,-0.0052 0.47602,-0.235228 0.73407,-0.239752 0.25839,-0.0045 0.80883,-0.20294 0.95766,-0.130145 0.14884,0.07279 0.36119,-0.45993 0.62149,-0.350967 0.26031,0.108962 0.80754,-0.278825 1.06576,-0.283352 0.25822,-0.0045 0.36199,-0.422326 0.65854,-0.351617 0.29656,0.07071 0.84619,-0.165977 1.10649,-0.05752 0.25982,0.109139 0.65774,-0.389389 0.84859,-0.01488 0.19086,0.374513 0.74724,0.516239 0.75045,0.705112 0.003,0.188873 -0.0271,0.605385 -0.0271,0.605385 l 0.44235,-0.04571 c 0,0 0.69317,-0.46575 0.80416,-0.467696 0.111,-0.0019 0.36264,-0.384216 0.36585,-0.195174 0.003,0.188705 -0.21139,0.608615 -0.2818,0.798611 -0.0706,0.190334 0.0807,0.414566 0.0807,0.414566 0,0 0.37258,0.182398 0.23063,0.524959 -0.14194,0.342729 0.0412,0.264115 0.009,0.529013 -0.0326,0.26524 0.003,0.151099 0.15235,0.299616 0.14979,0.148518 0.41349,0.409068 0.63401,0.367081 0.22052,-0.04199 0.29062,-0.269596 0.47714,-0.159508 0.18637,0.110091 0.55397,0.02808 0.6672,0.177402 0.11372,0.148982 -0.6919,0.541131 0.69944,-0.125619 1.39134,-0.66675 1.53599,-0.820933 1.71675,-1.050985 0.18075,-0.230052 0.39872,-0.46042 0.54338,-0.614267 0.14466,-0.153847 0.0353,-0.113976 0.47201,-0.461873 0.43705,-0.347734 0.43962,-0.196636 0.83497,-0.846262 0.39535,-0.649626 0.68612,-0.881271 0.7583,-0.996061 0.0722,-0.114791 0.21876,-0.154979 0.24795,-0.609425 0.0292,-0.453942 0.31724,-0.874804 0.31467,-1.025903 -0.003,-0.151098 0.10426,-0.379518 0.0629,-0.643629 -0.0414,-0.264112 0.13682,-0.644759 -0.0911,-1.01879 -0.22791,-0.374032 0.10168,-0.530785 -0.23305,-0.676564 -0.33473,-0.14578 -0.55476,-0.06568 -0.63303,-0.328976 -0.0783,-0.263297 -0.37306,-0.220344 -0.49591,-0.93629 -0.12286,-0.715946 -0.56697,-0.784068 -0.56697,-0.784068 0,0 -0.44602,-0.181111 -0.33664,-0.258432 0.10939,-0.07732 0.13745,-0.607487 0.0982,-0.757942 -0.0396,-0.150449 -0.0454,-0.490589 -0.15974,-0.715132 -0.11452,-0.225043 -0.19358,-0.525776 -0.30874,-0.788595 -0.11516,-0.262818 -0.30088,-0.334966 -0.37995,-0.635867 -0.0791,-0.300901 -0.19167,-0.412621 -0.22967,-0.487358 -0.0385,-0.0749 -0.11886,-0.451347 -0.18525,-0.03471 -0.0667,0.416982 -0.20113,1.21301 -0.20113,1.21301 0,0 -0.28436,0.647848 -0.39182,0.838662 -0.10746,0.190645 -0.20978,0.683991 -0.39486,0.649281 -0.18509,-0.03471 -0.29239,0.194391 -0.44026,0.158861 -0.14787,-0.03553 -0.3684,0.04441 -0.48099,-0.06697 -0.11259,-0.111384 -0.41299,-0.408573 -0.56135,-0.443926 -0.14819,-0.03502 -0.26399,-0.335277 -0.37482,-0.333334 -0.11082,0.0019 -0.29976,-0.259582 -0.26527,-0.41133 0.0342,-0.151743 0.0653,-0.492361 0.0998,-0.644277 0.0342,-0.151742 0.25003,-0.495935 0.25003,-0.495935 0,0 -0.004,-0.226648 -0.18845,-0.223412 -0.1846,0.0032 -0.22149,0.0039 -0.62807,-0.02694 -0.40658,-0.03083 -0.51755,-0.0665 -0.66559,-0.0639 -0.14805,0.0026 0.14659,-0.07814 -0.25758,0.0423 -0.40417,0.120443 -0.58331,0.426206 -0.8372,0.695326 -0.2534,0.268943 -0.0335,0.189349 -0.2534,0.268943 -0.21988,0.07959 -0.18782,-0.185805 -0.32847,0.232641 -0.14066,0.418447 0.0829,0.527549 -0.027,0.605215 -0.10987,0.07766 -0.8898,-0.248903 -0.8898,-0.248903 0,0 0.1838,-0.04118 0.0329,-0.22746 -0.15059,-0.186457 -0.3028,-0.448122 -0.52204,-0.330921 -0.21924,0.117201 -0.40321,0.196165 -0.54723,0.387619 -0.14402,0.191454 -0.14195,0.342561 -0.25005,0.4956 -0.10809,0.153038 -0.4032,0.158212 -0.43768,0.310127 -0.0345,0.151916 -0.0279,0.52966 -0.13777,0.569372 -0.11002,0.03988 -0.15011,-0.148177 -0.26142,-0.184179 -0.11131,-0.03583 -0.0797,-0.338844 -0.15012,-0.148512 -0.0704,0.190331 -0.14499,0.153517 -0.25052,0.457822 -0.10586,0.304311 -0.13809,0.569545 -0.24811,0.609259 -0.11003,0.03972 10e-4,0.07555 -0.32783,0.270416 -0.32863,0.19469 -0.40257,0.195986 -0.87826,0.431208 -0.4757,0.235222 -0.36503,0.233283 -0.69655,0.276712 -0.33135,0.04376 -0.40353,0.158385 -0.62422,0.20004 -0.22101,0.04166 -0.3676,0.08185 -0.5854,0.312549 -0.21781,0.230701 -0.40064,0.30931 -0.54755,0.349839 -0.14691,0.04053 -0.29271,0.194396 -0.29271,0.194396 z" />
  <path
     style="fill:#8b4513;stroke-width:0.16593024"
     inkscape:connector-curvature="0"
     id="path16"
     d="m 126.72665,58.675404 c -0.14354,0.229568 -0.6117,0.91792 -0.7955,0.959096 -0.18397,0.04084 -0.36536,0.233288 -0.51355,0.197932 -0.1482,-0.03536 -0.47971,0.0084 -0.58204,0.501587 -0.10232,0.493178 -0.28244,0.761005 -0.39407,0.725008 -0.11164,-0.036 0.19663,0.714653 -0.4356,0.423616 -0.63223,-0.291036 -0.40128,0.271704 -0.47265,0.424266 -0.0714,0.152563 0.12029,0.564848 0.15974,0.7153 0.0398,0.150446 0.15461,0.413102 0.30617,0.636993 0.15156,0.22389 0.26656,0.486711 0.52366,0.406968 0.25711,-0.07974 1.06992,-0.01875 1.06992,-0.01875 0,0 0.29752,0.108142 0.4818,0.104912 0.18444,-0.0032 0.22021,-0.07943 0.33071,-0.08137 0.1105,-0.0019 0.32558,-0.383901 0.28821,-0.420864 -0.0375,-0.03746 -0.14995,-0.148683 0.0674,-0.379376 0.21731,-0.230692 0.47458,-0.310606 0.50714,-0.575846 0.0326,-0.26524 -0.0783,-0.263129 0.0298,-0.416503 0.10809,-0.153375 0.36696,-0.119455 0.29078,-0.269599 -0.0762,-0.150144 0.0717,-0.114614 -0.081,-0.41456 -0.15269,-0.299947 -0.33922,-0.409867 -0.19808,-0.790367 0.14114,-0.380501 0.2879,-0.458646 0.247,-0.684644 -0.0409,-0.225998 0.17931,-0.305598 -0.0836,-0.565659 -0.26254,-0.259731 -0.37465,-0.333505 -0.56054,-0.406154 z" />
  <path
     style="fill:#8b4513;stroke-width:0.16593024"
     inkscape:connector-curvature="0"
     id="path18"
     d="m 134.0235,62.327591 c 0.14724,-0.04037 0.65726,-0.427334 0.70586,0.252295 0.0486,0.67963 0.0818,0.489783 0.31002,0.863809 0.22824,0.374025 0.3769,0.485113 0.63207,0.291542 0.25517,-0.19357 0.55028,-0.198911 0.61828,-0.540008 0.0682,-0.341436 0.0682,-0.341436 0.2895,-0.345316 0.22133,-0.0039 0.29463,-0.04295 0.40835,0.106535 0.11306,0.148826 0.18395,-0.0036 0.66848,0.252615 0.48453,0.256176 0.88868,0.173183 1.18877,0.43276 0.30009,0.259576 0.44668,0.219221 0.85501,0.363038 0.40833,0.143818 0.22004,-0.07943 0.59615,0.329791 0.3761,0.409219 0.2308,0.524956 0.41812,0.71077 0.18765,0.18564 0.32975,-0.157092 0.26351,0.297667 -0.0662,0.45476 -0.59037,0.01035 0.19551,0.638933 0.78588,0.628584 0.89848,0.740639 1.15973,0.924821 0.26176,0.184509 0.45005,0.408091 0.22888,0.411968 -0.22116,0.0039 -0.92269,0.01618 -0.99823,-0.09603 -0.0755,-0.112201 -0.40914,-0.181925 -0.63529,-0.442462 -0.22565,-0.260377 -0.70857,-0.441177 -0.82292,-0.665888 -0.11485,-0.225037 -0.26368,-0.297832 -0.44812,-0.294599 -0.18444,0.0032 -0.36503,0.233114 -0.61908,0.502237 -0.25406,0.269122 -0.14979,-0.14835 -0.48036,-0.02937 -0.33039,0.119318 -0.70151,-0.02566 -0.88885,-0.173516 -0.18733,-0.147859 -0.1538,-0.375162 -0.44698,-0.256665 -0.29318,0.118497 -0.47907,0.04618 -0.37225,-0.182404 0.10681,-0.228588 0.0277,-0.529824 0.0277,-0.529824 0,0 0.10457,-0.37986 -0.15492,-0.450715 -0.2595,-0.07086 -0.26416,-0.335442 -0.52383,-0.406798 -0.25966,-0.07136 -0.66863,-0.25278 -0.66863,-0.25278 0,0 -0.0369,6.47e-4 -0.14836,-0.03518 -0.11147,-0.03583 -0.11131,-0.036 -0.40786,-0.106208 -0.29655,-0.07021 -0.51677,0.0087 -0.66736,-0.177399 -0.15109,-0.186281 -0.0816,-0.452167 -0.0816,-0.452167 0,0 0.59166,0.0652 -0.006,-0.377914 l -0.59807,-0.442947 c 0,0 0.0728,-0.03923 0.0348,-0.114135 -0.0385,-0.07523 0.36839,-0.0065 0.36839,-0.0065 z" />
  <path
     style="fill:#8b4513;stroke-width:0.16593024"
     inkscape:connector-curvature="0"
     id="path20"
     d="m 117.36419,59.481383 c 0,0 0.18765,0.185976 0.48227,0.142857 0.29463,-0.04312 0.52654,0.595512 0.71532,0.818918 0.18813,0.223585 0.30104,0.334964 0.7113,0.592441 0.41026,0.257309 0.36503,-0.233282 0.93216,0.550616 0.56712,0.783897 0.30024,0.297191 0.56695,0.783732 0.26657,0.487215 0.41877,0.748881 0.56825,0.859954 0.14949,0.111073 0.26544,0.410823 0.30442,0.523666 0.0386,0.11268 0.30263,0.448125 0.30456,0.561617 0.002,0.113492 0.081,0.414392 -0.13584,0.682695 -0.21684,0.268302 -0.40097,0.309484 -0.40097,0.309484 0,0 -0.44667,-0.219054 -0.59807,-0.443115 -0.1514,-0.224061 -0.33905,-0.409869 -0.60529,-0.858632 -0.26624,-0.448764 -0.56953,-0.935167 -0.72093,-1.159228 -0.1514,-0.224062 -0.37675,-0.44733 -0.49126,-0.67187 -0.11451,-0.22454 -0.42133,-0.899811 -0.57017,-0.972942 -0.14883,-0.07313 -0.18973,-0.298961 -0.4526,-0.559022 -0.26255,-0.260067 -0.22967,-0.487358 -0.3429,-0.636517 -0.11323,-0.149158 -0.37723,-0.485107 -0.37723,-0.485107 z" />
  <path
     style="fill:#8b4513;stroke-width:0.16593024"
     inkscape:connector-curvature="0"
     id="path22"
     d="m 46.091457,90.215522 c -0.260947,-0.146569 -0.818925,-0.401457 -1.00593,-0.549323 -0.187006,-0.147865 -0.754613,-0.969876 -0.754613,-0.969876 l -0.41957,-0.786484 c 0,0 -0.48981,-0.596156 -0.382993,-0.824744 0.106813,-0.228755 0.325741,-0.383736 0.323817,-0.49706 -0.0019,-0.113324 0.214268,-0.419737 0.02774,-0.529657 -0.186368,-0.110258 -0.187006,-0.147865 -0.303609,-0.486062 -0.116436,-0.338032 -0.121576,-0.640732 -0.270408,-0.713527 -0.148832,-0.07279 -0.268003,-0.562258 -0.416197,-0.597446 -0.148197,-0.03536 -0.300402,-0.297189 -0.300402,-0.297189 l -0.27346,-3.057038 c 0,0 -0.09767,-1.396701 -0.176423,-1.697944 -0.07875,-0.301242 0.09463,-0.946473 -0.0996,-1.510192 -0.19423,-0.56372 0.01588,-1.247549 -0.0988,-1.472421 -0.114679,-0.224873 0.05902,-0.870278 -0.06191,-1.4729 -0.120929,-0.602622 0.419725,-1.368153 -0.02694,-1.587039 -0.44667,-0.218885 -0.12029,-0.565015 -0.489335,-0.558546 -0.369046,0.0065 -0.630472,-0.178045 -0.967115,-0.436477 C 40.059059,71.91283 39.42329,71.432422 39.23564,71.246614 39.047996,71.061142 38.449115,70.580088 38.262109,70.432223 38.075103,70.284358 37.879591,69.645089 37.728829,69.458635 37.578073,69.272516 37.494674,68.707022 37.267406,68.370765 37.040142,68.034676 36.735414,67.473062 36.659547,67.360866 36.583677,67.248671 35.7553,66.280591 35.7553,66.280591 l 0.06351,-0.605855 c 0,0 0.547711,-0.349842 0.472011,-0.461873 -0.0757,-0.11203 0.0332,-0.227633 -0.229192,-0.44958 -0.26239,-0.221948 -0.232403,-0.63879 -0.01411,-0.831378 0.21828,-0.193092 0.540009,-0.803474 0.540009,-0.803474 l 0.53745,-0.954236 c 0,0 0.43464,-0.499339 0.428868,-0.839311 -0.0058,-0.339972 0.617643,-0.577615 0.243464,-0.873511 -0.374178,-0.295896 -0.194066,-0.563722 -0.308745,-0.788595 -0.114679,-0.224873 -0.0433,-0.3771 0.285005,-0.609738 0.328307,-0.232638 0.904569,-1.074197 0.904569,-1.074197 0,0 0.440895,-0.121255 0.551559,-0.123195 0.110664,-0.0019 0.274736,-1.214635 0.620366,-0.426855 0.34563,0.78778 0.449237,0.370152 0.348196,0.938879 -0.101042,0.568727 0.155254,0.451045 0.300241,0.29736 0.144987,-0.153685 -0.07202,0.11462 0.2117,-0.571003 0.283717,-0.685623 0.169211,-0.909996 0.356861,-0.724188 0.18765,0.185808 0.262067,0.222289 0.596148,0.329791 0.333918,0.107504 0.444102,0.06762 0.558453,0.292497 0.114515,0.224876 0.07266,-0.07684 0.701846,0.02565 0.629189,0.102496 1.509055,-0.253337 1.404804,0.126349 -0.104252,0.379687 -0.332799,-0.03195 0.190856,0.374681 0.523655,0.406633 0.598878,0.480886 0.895269,0.55143 0.29639,0.07054 0.554127,0.02807 1.004811,0.473771 0.450684,0.445698 0.561826,0.481535 0.676336,0.706075 0.114517,0.225044 0.29639,0.07054 0.484843,0.293956 0.188452,0.223412 0.446675,0.219221 0.704892,0.214694 0.258216,-0.0045 -0.0039,-0.226983 0.407216,0.06843 0.411069,0.295417 0.706971,0.327511 0.901678,0.929008 0.194708,0.601497 0.563112,0.557253 0.278109,1.167159 -0.285002,0.609906 -0.870723,0.884674 -0.613147,0.842373 0.257573,-0.04247 0.733596,-0.277696 0.881792,-0.242341 0.148191,0.03502 0.219405,-0.117203 0.442822,-0.0078 0.223416,0.109441 0.255815,-0.155628 0.223416,0.109441 -0.0324,0.265069 -0.03705,6.5e-4 -0.03256,0.26524 0.0045,0.26459 -0.07827,-0.263297 0.36648,-0.157568 0.444749,0.105729 0.180587,-0.230217 0.705528,0.252133 0.524941,0.482351 0.522539,0.331249 0.711305,0.592441 0.189091,0.261019 0.366483,-0.1574 0.479233,-0.04619 0.112749,0.111214 0.443459,0.02985 0.776902,0.09974 0.333443,0.0699 0.106817,-0.228588 0.62935,0.102325 0.522206,0.330919 1.037044,0.208536 1.152841,0.508961 0.115798,0.300425 0.409304,0.181755 0.559902,0.368212 0.150598,0.186457 0.220044,-0.0796 0.372255,0.182572 0.152039,0.261668 0.593742,0.178353 0.524291,0.444072 -0.06945,0.266054 0.112427,0.111554 0.04506,0.490594 -0.06736,0.37904 -0.315472,0.988635 -0.534074,1.143442 -0.218603,0.154808 -0.215554,0.34402 -0.360064,0.535482 -0.14451,0.191463 -0.113871,-0.186933 -0.289494,0.345316 -0.175624,0.532249 -0.137286,0.607317 -0.276502,1.100973 -0.139215,0.493657 -0.03689,6.47e-4 -0.139212,0.493825 -0.102325,0.493178 -0.02341,0.79425 -0.124454,1.363145 -0.101039,0.568895 -0.06415,0.568081 -0.130873,0.985063 -0.06672,0.416982 0.181237,-0.191939 -0.13617,0.6827 -0.317234,0.875141 -0.354769,0.837677 -0.459015,1.217699 -0.104409,0.380025 0.03817,0.0749 -0.363911,0.308834 -0.402083,0.233932 -0.181876,0.154332 -0.659181,0.31401 -0.476981,0.159505 -1.064948,0.321292 -1.24875,0.362132 -0.183802,0.04084 -0.918042,0.280594 -0.688854,0.730007 0.229189,0.449413 0.230477,0.525298 0.01861,1.096136 -0.211867,0.570838 -0.540654,0.765531 -0.536168,1.029785 0.0045,0.264423 -0.138738,0.531434 -0.172252,0.721119 -0.03384,0.189691 0.328783,-0.194861 -0.104249,0.379854 -0.433032,0.574715 -0.472652,0.424098 -0.614594,0.766828 -0.141781,0.342558 0.0013,0.07538 -0.141781,0.342558 -0.14306,0.267177 -0.510184,0.386802 -0.510184,0.386802 0,0 0.03993,0.188397 -0.108902,0.115435 -0.148835,-0.07296 -0.110023,0.03971 -0.666241,-0.101847 -0.556218,-0.141561 -0.636237,-0.517681 -0.705527,-0.252133 -0.06929,0.265716 0.04395,0.41521 0.380594,0.67381 0.336485,0.25877 0.891415,0.324446 0.748194,0.591794 -0.143222,0.267348 -0.143061,0.267177 -0.25116,0.420215 -0.10826,0.153209 0.148194,0.03519 -0.10826,0.153209 -0.256454,0.118022 -0.395667,0.611846 -0.506331,0.613786 -0.110665,0.0019 -0.181398,0.192109 -0.330234,0.119147 -0.148835,-0.07296 -0.522208,-0.331087 -0.593583,-0.178692 -0.07137,0.152395 -0.224702,-0.185158 -0.178833,0.343208 0.04603,0.528363 0.124943,0.829435 -0.05774,0.946162 -0.182677,0.116728 -0.627426,0.011 -0.627426,0.011 l -0.07699,-0.187748 -0.256935,0.08008 c 0,0 -0.102965,0.455404 0.08276,0.52772 0.185723,0.07232 0.150115,0.148344 0.338406,0.371926 0.188292,0.223583 0.08485,0.641209 0.08485,0.641209 0,0 0.0019,0.113491 -0.179307,0.305598 -0.181234,0.192106 -0.252606,0.344669 -0.28757,0.458639 -0.03513,0.113974 -0.248114,0.60926 0.0834,0.565494 0.331349,-0.04376 0.586687,-0.237167 0.596954,0.367563 0.01027,0.604729 0.155254,0.451044 -0.02213,0.869799 -0.177386,0.418754 -0.324458,0.459286 -0.354933,0.837679 -0.03031,0.378558 0.04411,0.415039 0.121736,0.640561 0.07763,0.225523 0.260305,0.108795 0.07763,0.225523 -0.182188,0.116551 -0.737595,0.0131 -0.737595,0.0131 z" />
  <path
     style="fill:#8b4513;stroke-width:0.16593024"
     inkscape:connector-curvature="0"
     id="path24"
     d="m 36.048487,59.622451 -0.26463,-0.37322 c 0,0 -0.114518,-0.225044 -0.299761,-0.259414 -0.185243,-0.03437 -0.599519,-0.518661 -0.599519,-0.518661 0,0 -0.187006,-0.147865 -0.191495,-0.412288 -0.0045,-0.264422 -0.159263,-0.677522 -0.0563,-1.132925 0.102965,-0.455403 0.130395,-1.02284 0.09094,-1.17346 -0.03962,-0.150449 0.181234,-0.192107 -0.07955,-0.338846 -0.260785,-0.14674 -0.778185,-0.175288 -1.110343,-0.169466 -0.331993,0.0058 -0.736163,0.126431 -0.809301,0.165331 -0.07314,0.03907 0.386688,-1.140691 0.457258,-1.330857 0.07057,-0.190167 0.388609,-1.027535 0.386688,-1.140691 -0.0019,-0.113492 0.108096,-0.153207 -0.115795,-0.300257 -0.223891,-0.147051 -0.594225,-0.216467 -0.813793,-0.09926 -0.219402,0.117371 -0.187006,-0.147865 -0.363751,0.308663 -0.176745,0.456529 -0.353004,0.951339 -0.573214,1.030771 -0.22021,0.07943 -0.659017,0.314008 -0.659017,0.314008 0,0 -0.554127,-0.02807 -0.739373,-0.06261 -0.185246,-0.03454 -0.967118,-0.436645 -1.11916,-0.698481 -0.152045,-0.262004 -0.235446,-0.827666 -0.239933,-1.09192 -0.0045,-0.264591 0.387807,-1.065139 0.34771,-1.253533 -0.0401,-0.188395 0.390059,-0.951821 0.35108,-1.064663 -0.03898,-0.112842 0.06544,-0.492531 0.173535,-0.64557 0.108099,-0.153038 0.65854,-0.351785 0.803527,-0.50547 0.144987,-0.153685 0.400161,-0.347088 0.657093,-0.427331 0.256931,-0.08024 0.477308,-0.159511 0.661749,-0.162744 0.184441,-0.0032 0.657093,-0.427331 0.737927,-0.01294 0.08083,0.414396 0.410586,0.257304 0.595668,0.291845 0.185082,0.03454 0.225343,0.222933 0.512109,-0.273478 0.286765,-0.496411 0.579466,-0.652854 0.58139,-0.53953 0.0019,0.113492 0.479071,-0.04602 0.554771,0.06602 0.0757,0.11203 0.220207,-0.0796 0.482275,0.142689 0.262068,0.222289 0.631754,0.253595 0.596787,0.367397 -0.03496,0.113971 0.149477,0.110738 0.151403,0.224229 0.0019,0.113492 0.143225,-0.267179 0.154771,0.412932 0.01155,0.680111 0.203048,1.092735 0.203048,1.092735 0,0 0.267842,0.562428 0.37658,0.446997 0.108737,-0.115432 0.324938,-0.421341 0.324938,-0.421341 0,0 0.365195,-0.233285 0.09351,-1.022362 -0.271691,-0.789076 -0.0911,-1.018957 -0.169366,-1.282254 -0.07827,-0.263297 -0.081,-0.414561 0.356049,-0.762295 0.43705,-0.347734 1.494301,-1.122321 1.750117,-1.277949 0.255816,-0.155628 0.838968,-0.581663 0.838968,-0.581663 0,0 0.219405,-0.117204 0.251324,-0.420218 0.03192,-0.303015 0.723812,-0.844314 0.758299,-0.996062 0.03449,-0.151748 0.507783,-0.537904 0.507783,-0.537904 0,0 0.511298,-0.311585 0.471206,-0.499644 -0.0401,-0.188227 0.655336,-0.54049 0.766,-0.54243 0.110664,-0.0019 0.704406,0.176413 0.698631,-0.163726 -0.0058,-0.339972 -0.0071,-0.415689 0.356858,-0.724356 0.363915,-0.308666 0.835759,-0.770704 1.020363,-0.77394 0.184605,-0.0032 0.806098,-0.354036 1.06303,-0.434279 0.256931,-0.08024 1.062546,-0.472393 0.332157,-0.0058 -0.730389,0.46657 -0.255174,0.193403 -0.396311,0.573903 -0.141137,0.380501 -0.243625,0.873682 0.447952,0.294435 0.691577,-0.579247 0.652601,-0.691922 0.910343,-0.734058 0.25774,-0.0423 0.0757,0.112031 0.625977,-0.08671 0.550277,-0.198743 0.586049,-0.274774 0.586049,-0.274774 0,0 0.25453,-0.231345 0.104892,-0.341912 -0.149479,-0.110905 0.143225,-0.26718 -0.406577,-0.03083 -0.549802,0.236354 -0.512106,0.273647 -0.883078,0.166624 -0.370972,-0.107022 -0.923817,-0.05954 -0.524299,-0.444575 0.399517,-0.38503 0.914191,-0.50741 0.579469,-0.652686 -0.334559,-0.145279 -1.180104,0.05864 -1.29013,0.09819 -0.110187,0.03972 -0.369687,-0.0313 -0.590538,0.01035 -0.220852,0.04166 -0.15268,-0.299442 -0.0064,-0.377746 0.146267,-0.0783 0.62229,-0.313531 1.210098,-0.474979 0.587809,-0.161448 2.026461,-0.224453 2.358454,-0.230273 0.331993,-0.0058 0.7761,0.06214 1.031272,-0.131435 0.255171,-0.193571 0.766641,-0.504656 0.837846,-0.657384 0.07121,-0.152727 0.362632,-0.384215 0.362632,-0.384215 0,0 0.326219,-0.34596 0.139213,-0.493825 -0.187006,-0.147865 -0.377385,-0.484769 -0.523655,-0.406633 -0.14627,0.07814 -0.02774,0.529825 -0.331352,0.04359 -0.303606,-0.485895 -0.268003,-0.562258 -0.41748,-0.672996 -0.149476,-0.110737 -0.295913,-0.03277 -0.194063,-0.563554 0.10185,-0.530788 0.06094,-0.757122 0.06094,-0.757122 0,0 0.102969,-0.455235 -0.0083,-0.49107 -0.111472,-0.036 -0.187006,-0.147865 -0.369525,-0.03148 -0.182681,0.11656 -1.206893,0.663852 -1.426297,0.781056 -0.219405,0.117204 -0.524461,-0.444405 -0.418286,-0.710767 0.106334,-0.266701 0.03496,-0.114138 -0.119004,-0.489298 -0.153966,-0.37516 -0.745628,-0.440696 -0.967121,-0.436813 -0.221492,0.0039 -0.743701,-0.327204 -0.887567,-0.0978 -0.143865,0.229405 -0.906331,0.960703 -1.052926,1.039012 -0.146595,0.07831 -0.379787,-0.63587 -0.470565,0.53742 -0.09094,1.173627 0.431598,1.50454 -0.157494,1.590439 -0.589091,0.0859 -1.100081,0.434929 -1.100081,0.434929 0,0 -0.478901,0.04635 -0.473771,0.348546 0.0051,0.302197 -0.167119,1.023484 -0.387493,1.102919 -0.220374,0.07943 -0.775617,-0.02402 -0.963909,-0.247604 -0.188291,-0.223583 0.01893,-1.058672 0.01893,-1.058672 l 0.326382,-0.345963 c 0,0 -2.368073,-0.336346 -2.333917,-0.488257 0.03449,-0.151748 -0.708093,-0.403232 -0.78572,-0.628754 -0.07763,-0.225522 -0.123019,-0.716111 -0.05228,-0.90628 0.07073,-0.19017 1.051479,-1.114559 1.564871,-1.312488 0.513391,-0.197929 1.391977,-0.629143 1.649072,-0.709389 0.257095,-0.08025 0.700397,-0.05006 0.844907,-0.241527 0.14451,-0.191462 0.175459,-0.532246 0.175459,-0.532246 0,0 -0.08276,-0.527887 0.06607,-0.454924 0.148835,0.07296 0.409143,0.181925 0.447955,0.294602 0.03881,0.112677 0.04347,0.377265 0.296549,0.0702 0.253081,-0.307059 0.583481,-0.426041 0.876023,-0.582144 0.292543,-0.156104 0.736003,-0.12626 0.991982,-0.281891 0.25598,-0.155631 0.695905,-0.314654 0.726378,-0.693215 0.03047,-0.378561 -0.115154,-0.262482 -0.300403,-0.297189 -0.185079,-0.03437 0.07442,0.03665 -0.547711,0.349842 -0.622132,0.313193 -0.441539,0.08331 -0.880513,0.317723 -0.438973,0.23441 -0.475381,0.273002 -0.515312,0.08477 -0.04026,-0.188392 0.06544,-0.492532 0.06544,-0.492532 0,0 0.03641,-0.03859 -0.223252,-0.109444 -0.259661,-0.07085 -0.25774,0.0423 -0.3004,-0.297021 -0.04266,-0.339493 0.170326,-0.834611 -0.19599,-0.677046 -0.366316,0.157565 -0.702962,-0.101035 -0.948514,0.659155 -0.245552,0.76019 -1.117718,1.569486 -1.342421,1.384328 -0.224702,-0.185158 -0.262067,-0.222289 -0.446672,-0.219053 -0.184605,0.0032 -0.446669,-0.218885 -0.779468,-0.250837 -0.332798,-0.03195 -1.32927,-0.01448 -1.586681,0.02781 -0.257737,0.04247 -0.556051,-0.141396 -0.773857,0.0893 -0.217806,0.230702 -0.544341,0.538713 -0.542414,0.652205 0.0019,0.113491 -0.339218,-0.410034 -0.449238,-0.370152 -0.11002,0.03988 -0.408662,-0.14398 -0.740492,-0.138163 -0.332157,0.0058 -0.556859,-0.179335 -0.667359,-0.177398 -0.110665,0.0019 0.105367,-0.304302 -0.0058,-0.34014 -0.111303,-0.03567 -2.511465,-0.06933 -2.511465,-0.06933 0,0 -0.779945,-0.288615 -1.074409,-0.245667 -0.294463,0.04295 -1.105692,0.09479 -1.731355,0.21928 -0.625663,0.124493 -1.541617,0.518408 -1.836081,0.561356 -0.294625,0.04312 -0.958775,0.05476 -1.072649,-0.13234 -0.114035,-0.18693 0.03432,-0.151745 -0.114035,-0.18693 -0.148358,-0.03518 -0.03865,-0.11268 -0.375294,-0.37128 -0.336647,-0.2586 0.139376,-0.493828 -0.524938,-0.482182 -0.664314,0.01165 -1.070728,-0.01919 -1.660458,0.02911 -0.58973,0.04829 -1.802402,0.371669 -1.950596,0.336481 -0.148194,-0.03519 -1.325255,0.212329 -1.511784,0.102241 -0.186367,-0.110259 -1.100081,0.434929 -1.284999,0.400384 -0.185082,-0.03454 -0.884999,0.05347 -1.067516,0.170025 -0.182516,0.116557 -1.064475,0.358733 -0.765997,0.542598 0.298478,0.183865 0.26463,0.37322 0.303445,0.486065 0.03881,0.112845 -0.288692,0.38292 -0.288692,0.38292 0,0 -0.07394,0.0013 -0.482275,-0.14269 -0.408501,-0.14415 -0.852603,-0.211769 -1.035283,-0.09521 -0.182681,0.11656 -0.510821,0.349364 -0.434479,0.499169 0.07634,0.149805 0.598714,0.480889 0.670727,0.366101 0.07201,-0.114788 0.252609,-0.344501 0.47458,-0.310607 0.22197,0.03389 0.551084,-0.160803 0.262231,0.222287 -0.288853,0.38309 -0.544027,0.576493 -0.727824,0.617668 -0.183802,0.04084 -0.625982,0.08638 -1.031271,0.131436 -0.405289,0.04506 -0.371775,-0.144626 -0.73424,0.239754 -0.362465,0.384381 -0.514033,0.160155 -0.580751,0.577137 -0.06672,0.416982 -0.140499,0.418107 0.009,0.529013 0.149479,0.110905 -0.292704,0.156274 0.04138,0.263775 0.33392,0.107672 0.741777,0.21388 0.70681,0.327683 -0.03513,0.114141 0.366483,-0.1574 0.150118,0.148512 -0.216365,0.305912 -0.359259,0.573254 0.07827,0.263297 0.437528,-0.309957 0.699753,-0.08801 1.065592,-0.283349 0.365839,-0.195342 0.734243,-0.239586 0.953006,-0.394565 0.218764,-0.154978 0.325744,-0.383569 0.655972,-0.503051 0.330227,-0.119482 0.111308,0.036 0.151403,0.224229 0.0401,0.188227 0.0038,0.226648 0.222773,0.0715 0.218924,-0.155149 0.22069,-0.04149 0.512749,-0.235704 0.29206,-0.194217 0.620847,-0.38891 0.844263,-0.279469 0.223256,0.109612 0.297032,0.108319 0.444749,0.10573 0.147716,-0.0026 -0.185085,-0.03471 0.147552,-0.0026 0.332796,0.03178 -0.149479,-0.110905 0.961985,0.13428 1.111464,0.245185 1.403687,0.05096 1.484357,0.465364 0.08067,0.414398 0.220848,-0.04182 0.409781,0.219532 0.18893,0.261189 0.295913,0.03277 0.414273,0.484122 0.118366,0.451691 0.02887,1.70053 -0.04234,1.852922 -0.07121,0.152391 -0.108099,0.153038 -0.06544,0.492531 0.04266,0.339325 0.513072,1.956711 0.36744,2.072454 -0.145631,0.115742 -0.477144,0.159508 -0.477144,0.159508 l -0.172894,0.683344 c 0,0 -0.285482,0.571961 -0.53873,0.878855 -0.253247,0.306894 -0.578825,0.690628 -0.758943,0.958119 -0.179949,0.267823 -0.319964,0.724044 -0.573691,0.992993 -0.253728,0.268949 -0.477145,0.159508 -0.393746,0.725002 0.0834,0.565494 0.01989,1.17135 0.100723,1.585913 0.08084,0.414563 0.275061,0.977947 0.426464,1.202176 0.151403,0.224229 0.262229,0.222118 0.523652,0.406465 0.261424,0.184347 0.597599,0.405505 0.563753,0.595027 -0.03384,0.189523 0.05999,1.359912 0.05999,1.359912 0,0 0.227906,0.373864 0.271687,0.788909 0.04411,0.415207 0.309384,0.826202 0.309384,0.826202 l 0.229836,0.487523 c 0,0 0.111308,0.036 0.264152,0.335442 0.152844,0.29944 0.152686,0.299779 0.192137,0.450063 0.03962,0.150784 0.03898,0.112842 0.03962,0.150784 6.38e-4,0.03761 -0.04796,-0.641855 -0.124946,-0.829602 -0.07699,-0.187748 -0.08083,-0.414228 -0.158458,-0.639751 -0.07763,-0.225522 0.02855,-0.492052 -0.198555,-0.828144 -0.227101,-0.336092 -0.227745,-0.374034 -0.344184,-0.712234 -0.116436,-0.338032 -0.270569,-0.713357 -0.124138,-0.791663 0.146431,-0.07831 0.248597,-0.571146 0.553486,-0.0097 0.304889,0.561444 0.339217,0.410034 0.383804,0.862851 0.04442,0.45282 0.15782,0.602143 0.271688,0.788909 0.113871,0.186933 0.382998,0.825079 0.535201,1.086744 0.152045,0.262004 -0.0026,-0.151098 0.338409,0.372095 0.341139,0.52319 0.380115,0.635864 0.571613,1.04832 0.191498,0.412455 0.302326,0.410512 0.418121,0.71077 0.115801,0.300593 0.04074,0.226169 -0.02743,0.567437 -0.068,0.341265 0.08597,0.71676 0.08597,0.71676 0,0 0.519804,0.179817 0.558616,0.292495 0.03881,0.112677 0.558616,0.292494 0.635125,0.442464 0.07651,0.149971 0.559257,0.33027 0.559257,0.33027 0,0 0.410426,0.257474 0.559097,0.33044 0.148671,0.07296 0.59327,0.140911 0.59327,0.140911 0,0 0.296391,0.07054 0.407694,0.106211 0.111305,0.03583 0.443462,0.03001 0.443462,0.03001 0,0 0.291422,-0.231824 0.403369,-0.158215 0.111944,0.07344 0.366477,-0.157735 0.480348,0.0292 0.113873,0.187101 0.335366,0.183218 0.448599,0.332545 0.113232,0.149326 0.223894,0.147218 0.411705,0.332856 0.187811,0.185637 0.37161,0.144629 0.558616,0.292494 0.187006,0.147865 0.334559,0.145279 0.556052,0.141396 0.221492,-0.0039 0.221328,-0.0039 0.369689,0.03147 0.148361,0.03535 0.219402,-0.117371 0.370167,0.06925 0.150765,0.186622 0.263347,0.297671 0.377218,0.484604 0.113871,0.186933 0.372252,0.182404 0.414274,0.484122 0.04202,0.30155 0.115159,0.262818 0.119645,0.527073 0.0045,0.26459 0.153969,0.375328 0.266083,0.449102 0.11178,0.07344 0.524126,0.444075 0.524126,0.444075 l 0.555413,0.103789 0.448596,0.332377 z" />
  <path
     style="fill:#8b4513;stroke-width:0.16593024"
     inkscape:connector-curvature="0"
     id="path26"
     d="m 47.279477,24.309564 2.209296,-0.322207 c 0,0 0.774815,-0.01358 1.157575,-0.30377 0.38276,-0.290188 -0.0048,-0.283394 1.153727,-0.530418 1.158538,-0.247024 0.824618,-0.354696 1.435442,-0.252046 0.610824,0.10265 0.776741,0.09991 1.442979,0.201588 0.666075,0.101681 0.829269,-0.07113 1.440889,0.0881 0.611621,0.159231 0.887567,0.0978 1.385803,0.08906 l 1.549793,-0.02717 c 0.774979,-0.01359 1.486845,-0.479663 1.768399,-0.20112 0.281554,0.278542 0.445709,0.162307 1.38869,0.259134 0.942817,0.09683 1.326538,-0.136779 1.715872,-0.03008 0.389334,0.106701 1.050925,-0.07502 1.8267,-0.03202 0.775776,0.043 1.161426,-0.07695 1.438169,-0.0818 0.276743,-0.0049 0.546584,-0.406585 0.93993,-0.07324 0.393346,0.333346 0.883719,-0.128849 0.946668,0.323646 0.06295,0.452495 0.776902,0.09974 0.06311,0.452492 -0.713789,0.352753 -0.604088,0.294068 -1.094625,0.756265 -0.490537,0.462198 0.346591,0.844359 -0.698393,1.259681 -1.044983,0.415322 -1.221651,-0.205468 -1.486844,0.479662 -0.265194,0.685131 0.01443,0.850181 -0.03504,1.191289 -0.04948,0.341108 -0.159343,0.399629 -0.486689,0.688846 -0.327182,0.289213 -0.331993,0.0058 -1.104085,0.189474 -0.772091,0.183656 -1.32269,0.363428 -1.654683,0.369248 -0.332157,0.0058 -1.04691,0.30183 -1.266479,0.419036 -0.219566,0.117375 0.392383,0.2766 -0.764393,0.637119 -1.156775,0.360519 -1.434478,0.308792 -1.758776,0.767908 -0.324297,0.459115 -0.212828,0.51426 -0.429345,0.801533 -0.216518,0.287274 -0.861584,1.432662 -1.198552,1.155091 -0.336805,-0.277574 -0.502087,-0.218082 -0.783641,-0.496624 -0.281554,-0.278543 -0.454368,-0.672349 -0.624297,-0.896254 -0.16993,-0.223904 -0.234966,-0.78972 -0.295991,-1.128891 -0.06103,-0.339171 -0.572895,-1.123869 -0.01732,-1.020251 0.555409,0.103622 0.886606,0.04122 1.050761,-0.07501 0.164154,-0.116236 0.323495,-0.516032 0.323495,-0.516032 0,0 -0.06584,-0.622565 -0.237854,-0.959791 -0.172017,-0.337225 -0.06584,-0.622564 -0.348351,-0.957685 -0.282517,-0.335288 -0.281554,-0.278542 -0.6749,-0.611888 -0.393346,-0.333345 -0.285405,-0.505358 -0.895266,-0.551262 -0.60986,-0.0459 -0.778829,-0.21323 -0.999358,-0.152602 -0.22053,0.06063 -0.947632,-0.380391 -0.173777,-0.450552 0.773854,-0.07016 1.495503,0.03038 1.495503,0.03038 0,0 0.988609,-0.470929 0.655655,-0.521687 -0.332956,-0.05093 0.488447,-0.575686 -0.283481,-0.392034 -0.771927,0.183652 -1.653719,0.425993 -1.874252,0.486454 -0.220532,0.06046 -0.773054,0.126909 -1.323653,0.306681 -0.550598,0.179773 -1.215873,0.13484 -1.541131,0.537377 -0.325258,0.402538 0.0077,0.453464 -0.325422,0.402541 -0.332954,-0.05076 0.270008,-0.401569 -0.498072,0.0087 -0.768079,0.4103 -0.547711,0.349842 -0.937042,0.243309 -0.389332,-0.106533 -0.669126,-0.271748 -0.669126,-0.271748 0,0 0.497436,-0.06548 -0.223253,-0.109444 -0.720689,-0.04396 -0.720525,-0.04396 -1.003045,-0.379421 -0.282521,-0.335456 -0.116439,-0.338199 0.04755,-0.454432 0.164316,-0.116406 0.27113,-0.345161 0.27113,-0.345161 z" />
  <path
     style="fill:#8b4513;stroke-width:0.16593024"
     inkscape:connector-curvature="0"
     id="path28"
     d="m 46.104981,26.881623 c -0.271932,0.288245 -0.929508,0.696775 -0.760378,0.863931 0.16913,0.167156 0.290216,0.788752 0.619486,0.612859 0.329106,-0.175889 -0.06792,-0.735885 1.212825,-0.304738 1.280913,0.431144 1.161426,-0.07695 1.449715,0.598305 0.288289,0.67526 0.518277,1.181422 0.355089,1.354571 -0.163188,0.173149 -0.215554,0.344019 -0.766317,0.523795 -0.550762,0.179775 -0.76824,0.41047 -0.37586,0.686902 0.392379,0.276432 1.116758,0.54738 1.451641,0.711797 0.334884,0.164418 1.332316,0.203528 0.824457,-0.354525 -0.507858,-0.558053 0.09815,-0.738965 0.09815,-0.738965 0,0 0.95357,0.720528 0.60714,-0.124001 -0.346591,-0.844358 -0.568084,-0.840475 -0.346591,-0.844358 0.221493,-0.0039 0.668962,0.271751 0.668962,0.271751 l 0.213794,-0.457346 -0.234003,-0.732975 -0.732074,-0.724243 c 0,0 0.599113,-0.577458 -0.23304,-0.676228 -0.832152,-0.09877 -0.776902,-0.09974 -1.224538,-0.375538 -0.447635,-0.275799 -0.504807,-0.387987 -1.332312,-0.20336 -0.827506,0.184626 -1.102161,0.302799 -1.102161,0.302799 z" />
  <path
     style="fill:#8b4513;stroke-width:0.16593024"
     inkscape:connector-curvature="0"
     id="path30"
     d="m 33.773106,27.77828 c 0.326382,-0.345962 1.198555,-1.154922 1.53456,-0.934097 0.335841,0.220828 0.827178,-0.184621 1.220524,0.148725 0.393346,0.333345 0.842738,0.722303 1.176819,0.829804 0.334081,0.107501 0.714754,-0.296007 1.049798,-0.13176 0.334881,0.16425 1.479945,-0.876378 1.27209,-0.07889 -0.207856,0.797483 0.294064,1.0154 -0.313873,1.08282 -0.607936,0.06742 -1.264388,0.532526 -1.544182,0.36731 -0.279794,-0.165216 -0.504011,-0.331406 -0.942981,-0.09683 -0.438971,0.234578 -0.217481,0.230527 -0.717641,0.125937 -0.50016,-0.10459 -0.606812,0.123995 -0.720364,-0.04414 -0.113713,-0.167959 -0.444745,-0.105561 -0.398157,-0.616739 0.04659,-0.511178 0.21363,-0.457343 -0.118527,-0.45152 -0.331993,0.0058 -0.607773,0.06742 -0.832153,-0.09877 -0.22438,-0.166187 -0.665913,-0.101852 -0.665913,-0.101852 z" />
  <path
     d="m 31.182289,58.678541 c -4.649276,30.110024 1.485307,38.541309 12.34158,37.480845 6.459534,-0.631127 16.030812,-22.070302 24.55675,-26.855141 5.143338,-2.88671 -12.559668,-21.332853 -7.741403,-20.206725 1.776527,0.415211 15.202775,-8.334842 20.083333,-5.278307 4.720266,2.956534 6.191747,1.026747 8.996598,6.419725 0.643003,1.236223 1.733229,3.959189 4.143684,5.573906 3.362814,2.252681 20.003719,2.681672 24.906359,8.299671 5.35694,6.139005 6.94519,15.460021 -1.5972,16.428857 -2.59339,0.294226 -18.718396,-7.695952 -2.80731,-15.053223 3.09204,-1.429769 9.49213,18.524238 3.95253,19.543928 C 106.92594,87.073509 98.932528,69.758306 99.091019,69.704462"
     id="path34"
     inkscape:connector-curvature="0"
     style="fill:none;stroke:#ff0000;stroke-width:0.70875055;stroke-linejoin:round;stroke-dasharray:2.12625169, 2.12625169" />
  <path
     d="m 102.46837,66.284336 -1.92892,-1.014662 -1.634315,3.201379 -2.801135,-2.600716 -1.429408,1.46946 3.723697,1.761846 -2.715415,2.426637 1.665389,1.354339 1.78232,-3.290512 2.976217,2.646125 1.04676,-1.72162 -3.521531,-1.581963 2.836411,-2.650247 z"
     id="path36"
     inkscape:connector-curvature="0"
     style="fill:#ff0000;stroke-width:0.70875055" />
</svg>
