<?xml version="1.0" encoding="UTF-8"?>
<svg viewBox="0 0 1172 853" xmlns="http://www.w3.org/2000/svg">
 <g fill-rule="evenodd" stroke-width=".5">
  <path d="m5 426v-421h1162v842h-1162v-421zm67-387.2l1 0.2 6 0.8q6 0.7 8.5 2.2t7 1.5 5.5 0.5-0.8 1.2q-1.7 0.8 0.8 1.3t3 1.5 1-1.5 1.5 3.5 1.3 18q0.2 12 9.2 13.2 9 1.3 9.8 3 0.7 1.8 1 2l0.2 0.3 3 0.5 3 0.5v0.5h11l2 0.2 2 0.3 47.2-0.7q47.3-0.8 49.8 4.7t3 6.5l0.5 1 0.3 0.2 0.2 0.3h4l0.2-0.3 0.3-0.2 0.3-0.2 0.2-0.3 0.2-0.3 0.3-0.2 2.7-5.5q2.8-5.5 23.3-3.7 20.5 1.7 23.7 9.4 3.3 7.8 3.8 9.8l0.5 2 0.5 1 0.5 1 0.3 1.5 0.2 1.5h2l0.2-3 0.3-3 1.7-9.8q1.8-9.7 6.8-10.2t18.5-1.5 18-2 37-0.5 35.5 1.5 16.2 1.7q13.3 0.8 15.8 8.8t2.8 9l0.2 1 1 0.2 1 0.3 0.2 0.3 0.3 0.2 0.3 0.2 0.2 0.3 1 0.5 1 0.5h3l0.5-0.3 0.5-0.2 0.2-1 0.3-1 3.3-10.5q3.2-10.5 15.2-9.7 12 0.7 23.5 1.7t40 0.5 41-2.5 33-2.7q20.5-0.8 21.3 4.7 0.7 5.5 1.2 8l0.5 2.5 0.5 1 0.5 1 0.3 0.2 0.2 0.3 0.2 0.3 0.3 0.2 0.3 0.2 0.2 0.3 0.2 0.3 0.3 0.2 0.3 0.2 0.2 0.3h2l0.2-0.3 0.3-0.2 0.3-0.2 0.2-0.3 0.2-0.3 0.3-0.2 0.5-1 0.5-1 3-8.5q3-8.5 27.7-8.3 24.8 0.3 33.8 1.8t38.5 1.5 39.5-1 16.5 1 26 2.3q19.5 0.2 20.3 4.2 0.7 4 1.2 5l0.5 1 0.3 0.2 0.2 0.3 0.2 0.3 0.3 0.2 0.3 0.2 0.2 0.3 1.5 0.3 1.5 0.2 0.2-1 0.3-1 1.3-5.5q1.2-5.5 27.2-6.7 26-1.3 34-0.6 8 0.8 8.2 3.3 0.3 2.5 0.3 9.5v7l0.3 0.2 0.2 0.3 1 0.3 1 0.2 0.2-1 0.3-1 0.5-2 0.5-2 0.5-1.5q0.5-1.5 0.8-1.5h0.2l0.2-1.5 0.3-1.5 0.5-1.5 0.5-1.5 0.5-1 0.5-1 0.3-1 0.2-1 16-0.8q16-0.7 31-1l15-0.2h8l6.8-0.5q6.7-0.5 7.4-6.3 0.8-5.7 12-6 11.3-0.2 12-14.2 0.8-14 8.3-14.2 7.5-0.3 13.5-1.3t16 0 10 1.3v0.2l13 2.5q13 2.5 13 17t4 15.5-4.2 292.5q-8.3 291.5-10.3 360t-3.3 77.3q-1.2 8.7-11.2 8.2t-14.5-1.5-6-1.3l-1.5-0.2-1-0.2-1-0.3-0.2-0.3-0.3-0.2h-0.5l-3-0.2q-3-0.3-24.5-0.6l-21.5-0.2-17.5-0.2q-17.5-0.3-28-1.8t-42.5-2.2q-32-0.8-33.8-5.8l-1.7-5-0.3-0.2-0.2-0.3h-3l-0.2 0.3-0.3 0.2-0.3 0.2-0.2 0.3-0.2 0.3-0.3 0.2-0.5 1q-0.5 1-1.8 4.2-1.2 3.3-18.7 5.3t-46.5 2.5-36-1l-7-1.5v-0.5l-24.5 0.2q-24.5 0.3-31.5 0.3t-11.2-6.7l-4.3-6.8-0.3-0.2-0.2-0.3-1-0.5-1-0.5h-2l-1 0.5-1 0.5-0.2 0.3-0.3 0.2-0.3 0.2-0.2 0.3-0.2 0.3q-0.3 0.2-3.6 6.4-3.2 6.3-24.7 6.3t-46-1-45.5 0.5-39.5 2.2q-18.5 0.8-20.3-7.7l-1.7-8.5-0.3-1.5-0.2-1.5h-3l-0.2 3-0.3 3-0.5 6q-0.5 6-0.8 7.5l-0.2 1.5-3.5-0.2q-3.5-0.3-9-0.8t-25-1.2q-19.5-0.8-20.7-3.3-1.3-2.5-3.6-2.5-2.2 0-3.7 2.2-1.5 2.3-43.5 2.8t-55.5 0.5-37 0-39.5 0.5-17.2-5.2l-1.3-5.8-0.3-1.5-0.2-1.5h-3l-0.2 1-0.3 1-0.3 0.2-0.2 0.3-0.2 0.3-0.3 0.2-0.5 1q-0.5 1-2.5 5.5t-55.3 4l-53.2-0.5-6.5 0.2q-6.5 0.3-18.5 0.6l-12 0.2-1.5 0.5q-1.5 0.5-1.5 2.5v2l-2-0.2q-2-0.3-3-0.8t-3 0.5-7 1.5-5.5-0.8q-0.5-1.2-6.5-1.2h-6.2q-0.3 0-8.6 0.5l-8.2 0.5v0.2q0 0.3-0.5 0.6l-0.5 0.2-5 0.2q-5 0.3-13.5-0.4-8.5-0.8-9.7-14.3-1.3-13.5-4.8-190t-7.8-358.5q-4.2-182 2.3-182.5l6.5-0.5v-17.5q0-17.5 17.5-17.3 17.5 0.3 19.5 0.8t3 0.8z" fill="#fefefe" stroke="#fefefe"/>
  <path d="m0 426.5v-426.5h1172v853h-1172v-426.5zm5-0.5v-421h1162v842h-1162v-421z" fill="#fcfcfc" stroke="#fcfcfc"/>
  <path d="m891.8 310.8l-0.3 0.2-0.5 1-0.5 1-0.3 0.2-0.2 0.3-0.2 0.3-0.3 0.2-0.3 0.2-0.2 0.3-0.2 0.3-0.3 0.2-0.3 0.2-0.2 0.3-0.2 0.3-0.3 0.2-0.3 0.2-0.2 0.3-1 0.3-1 0.2 0.2-1 0.3-1 0.3-0.2 0.2-0.3 0.2-0.3 0.3-0.2 0.3-0.2 0.2-0.3 0.2-0.3 0.3-0.2 0.3-0.2 0.2-0.3 0.2-0.3 0.3-0.2 0.3-0.2 0.2-0.3 0.2-0.3 0.3-0.2 0.3-0.2 0.2-0.3 0.2-0.3 0.3-0.2 6.7-5.8q6.8-5.7 17-12 10.3-6.2 9.3-13.7t-2-11.5-1.5-6.5l-0.5-2.5-0.5-2-0.5-2-0.5-1-0.5-1-0.3 0.2-0.2 0.3-1 0.5-1 0.5-0.2 0.3-0.3 0.2-0.5 1q-0.5 1-4.2 4.2-3.8 3.3-12.8 6.3t-19.5 2-19.5-5-14.5-10.5-7.3-12.8q-1.7-6.2-0.7-12.2t7-13.5l6-7.5 0.3-0.2 0.2-0.3 0.2-0.3 0.3-0.2 0.3-0.2 0.2-0.3 0.2-0.3 0.3-0.2 0.3-0.2 0.2-0.3 0.2-0.3 0.3-0.2 0.3-1.5 0.2-1.5-2.5-0.2-2.5-0.3-8.5-0.5q-8.5-0.5-18.5-0.5t-16.8 1.3q-6.7 1.2-16.4 5.4-9.8 4.3-21.3 7.3t-35.5 10.5-44.5 15-27.3 21.2q-6.7 13.8-13.2 25.3t-8.8 12.7q-2.2 1.3-12.7 10.8t-20.3 21.8q-9.7 12.2-16.2 23.7l-6.5 11.5-0.3 0.2-0.2 0.3 2 1.5q2 1.5 2.5 1t1.5-0.5h1l-0.2 0.3q-0.3 0.2-1.3 1.2t-1.5 6 0.5 6.5 1.5 4-1.2 5.3q-1.8 2.7-12.8 3.2t-19.5 4-26 5-21 3-6.3 5.8q-2.7 4.2-3.2 7.2t1 6 0.5 8.5-1.5 11.5-2 12 0.2 11q1.8 5 2.8 5.2l1 0.3 0.2 0.3 0.3 0.2v2l-0.3 0.2q-0.2 0.3-3.7 1.3l-3.5 1 0.2 0.3 0.3 0.2 0.3 0.2 0.2 0.3 1 0.5 1 0.5 1 0.5 1 0.5 4.5 1q4.5 1 6.5 1h2l-0.8 8.3q-0.7 8.2-1.2 9.2l-0.5 1-0.3 0.2-0.2 0.3-0.2 0.3-0.3 0.2-0.3 0.2-0.2 0.3-0.2 0.3-0.3 0.2-0.3 0.2-0.2 0.3-0.2 0.3-0.3 0.2-0.3 0.2-0.2 0.3-1 0.5-1 0.5-1 0.5-1 0.5h-3l-0.2-0.3-0.3-0.2-0.3-0.2-0.2-0.3-0.2-0.3-0.3-0.2-0.5-1.5q-0.5-1.5-1-5t-2.5-6.5l-2-3-0.3-0.2-0.2-0.3-0.2-0.3-0.3-0.2-0.3-0.2-0.2-0.3-1-0.5q-1-0.5-5-0.8-4-0.2-3.8 3.3l0.3 3.5-0.3-0.2-0.2-0.3-0.2-0.3-0.3-0.2-0.3-0.2-0.2-0.3-3.5-2q-3.5-2-8.3 0.7-4.7 2.8-6 4-1.2 1.3-3.7 1.6-2.5 0.2-3 1.4-0.5 1.3 0.5 1.6 1 0.2 1.5 3.2t-0.5 3 0.8 9q1.7 9 2 13l0.2 4h-2l-0.2-1q-0.3-1-0.8-3l-0.5-2-0.3 15q-0.2 15 0.8 15t0.8 5.5q-0.3 5.5-0.3 9.5v4l0.3 0.2 0.2 0.3h16q16 0 22.2 3.7 6.3 3.8 6.6 4l0.2 0.3 0.2 0.3 0.3 0.2 0.3 0.2 0.2 0.3 0.2 0.3 0.3 0.2 0.3 0.2 0.2 0.3 0.2 0.3 0.3 0.2 0.5 1 0.5 1 0.3 0.2 0.2 0.3 0.2 0.3 0.3 0.2 0.3 1 0.2 1h-2l-0.2-1-0.3-1-0.3-0.2-0.2-0.3-0.2-0.3-0.3-0.2-0.3-0.2-0.2-0.3-0.2-0.3-0.3-0.2-0.3-1-0.2-1-1-0.2q-1-0.3-7-3.8t-13-4-11 0.5-8.5 3.5-10.5 7l-6 4.5-0.2 0.3-0.3 0.2-0.3 0.2-0.2 0.3-1.5 0.3-1.5 0.2-0.2-1-0.3-1-5.5-19q-5.5-19-7.5-38t-1-28 12-16.5 14.5-11 5.2-6.5q1.8-3 6.3-5.5t9.3-15q4.7-12.5 4.2-18t-6.5-16-6-14.5 4.3-7.2q4.2-3.3 22.7-10 18.5-6.8 18.5-7.8t1-1 1 1 4.5-0.8q4.5-1.7 7.3-5.4 2.7-3.8 1.4-4.6-1.2-0.7 1.6-2.4 2.7-1.8 3-3.3 0.2-1.5 1.2-1.5t1-1 2.2-2q2.3-1 4-4.8 1.8-3.7 2.8-4 1-0.2 1.5-2.2t2-2 2.7-3.5q1.3-3.5 5.3-9t6-8.5 4-15 13.3-26.8q11.2-14.7 27.7-31.2t28.5-25 19.8-14.2q7.7-5.8 12.4-12 4.8-6.3 21.6-11 16.7-4.8 38.2-9.8t21.2-5.8q-0.2-0.7 26.3-4.2t28.7-1.2q2.3 2.2 4.8 7.2t8.2 9.2q5.8 4.3 12.3 6.8t18.5 2 18.8-4.2q6.7-3.8 10.2-9.3t5.2-9.7q1.8-4.3 11.8-3.3t13.2 3.3q3.3 2.2 6.3 8.2t8 26 11 51 5.3 33q-0.8 2-13.6 7-12.7 5-19.4 10.2-6.8 5.3-7 5.6z" fill="#e8cd92" stroke="#e8cd92"/>
  <path d="m989.2 422.5l-0.2 22.5-3.2 117q-3.3 117-3.8 161t-4 49.5-18.8 8.3q-15.2 2.7-34.7 3.2t-26.5 3-15 3.5-12 1.3l-4 0.2-3.5 0.2-3.5 0.3h-17q-17 0-18.5-1t-13-3-37.5-3-34.5-5.5-13.5-5-11.5 2-21.5 2.5-35.5-3-68-5-56-6.5-12-5-7.5 1-11 1.5-30.5-2-31-4-26.5-3-28-5.5-16-5-16.5 1.5-10.7 0.7q-1.3-1.2-5.3-11.7t-7.5-15.5-10.2-9.8q-6.8-4.7-19.8-5.7t-13.8-1.7q-0.7-0.8-0.7-47.3t1-51 2.7-6q1.8-1.5 2-5 0.3-3.5-2.7-21.5t-2-79 1.7-64.2q0.8-3.3 3-30.6 2.3-27.2 3.3-61.7t-0.5-56-3.5-31-0.5-47.5 2.5-40 7.3-5.2q6.2-3.3 26.2-6.3t49-6.5 44-5.5 27-1 56 1.5 51 2 17.5 2 9.5 0 13.5-4 93-4l78.5-0.5 1.5-0.5 1.5-0.5 1.5-0.5 1.5-0.5 1-0.5 1-0.5v-0.5l60.5 0.8q60.5 0.7 70-2.3t41.5-2.5 34.8 3.2q2.7 2.8 4.2 11.3t3 88.5 1.5 126-0.3 68.5zm-97.4-111.7l-0.3 0.2-0.5 1-0.5 1-0.3 0.2-0.2 0.3-0.2 0.3-0.3 0.2-0.3 0.2-0.2 0.3-0.2 0.3-0.3 0.2-0.3 0.2-0.2 0.3-0.2 0.3-0.3 0.2-0.3 0.2-0.2 0.3-1 0.3-1 0.2 0.2-1 0.3-1 0.3-0.2 0.2-0.3 0.2-0.3 0.3-0.2 0.3-0.2 0.2-0.3 0.2-0.3 0.3-0.2 0.3-0.2 0.2-0.3 0.2-0.3 0.3-0.2 0.3-0.2 0.2-0.3 0.2-0.3 0.3-0.2 0.3-0.2 0.2-0.3 0.2-0.3 0.3-0.2 6.7-5.8q6.8-5.7 17-12 10.3-6.2 9.3-13.7t-2-11.5-1.5-6.5l-0.5-2.5-0.5-2-0.5-2-0.5-1-0.5-1-0.3 0.2-0.2 0.3-1 0.5-1 0.5-0.2 0.3-0.3 0.2-0.5 1q-0.5 1-4.2 4.2-3.8 3.3-12.8 6.3t-19.5 2-19.5-5-14.5-10.5-7.3-12.8q-1.7-6.2-0.7-12.2t7-13.5l6-7.5 0.3-0.2 0.2-0.3 0.2-0.3 0.3-0.2 0.3-0.2 0.2-0.3 0.2-0.3 0.3-0.2 0.3-0.2 0.2-0.3 0.2-0.3 0.3-0.2 0.3-1.5 0.2-1.5-2.5-0.2-2.5-0.3-8.5-0.5q-8.5-0.5-18.5-0.5t-16.8 1.3q-6.7 1.2-16.4 5.4-9.8 4.3-21.3 7.3t-35.5 10.5-44.5 15-27.3 21.2q-6.7 13.8-13.2 25.3t-8.8 12.7q-2.2 1.3-12.7 10.8t-20.3 21.8q-9.7 12.2-16.2 23.7l-6.5 11.5-0.3 0.2-0.2 0.3 2 1.5q2 1.5 2.5 1t1.5-0.5h1l-0.2 0.3q-0.3 0.2-1.3 1.2t-1.5 6 0.5 6.5 1.5 4-1.2 5.3q-1.8 2.7-12.8 3.2t-19.5 4-26 5-21 3-6.3 5.8q-2.7 4.2-3.2 7.2t1 6 0.5 8.5-1.5 11.5-2 12 0.2 11q1.8 5 2.8 5.2l1 0.3 0.2 0.3 0.3 0.2v2l-0.3 0.2q-0.2 0.3-3.7 1.3l-3.5 1 0.2 0.3 0.3 0.2 0.3 0.2 0.2 0.3 1 0.5 1 0.5 1 0.5 1 0.5 4.5 1q4.5 1 6.5 1h2l-0.8 8.3q-0.7 8.2-1.2 9.2l-0.5 1-0.3 0.2-0.2 0.3-0.2 0.3-0.3 0.2-0.3 0.2-0.2 0.3-0.2 0.3-0.3 0.2-0.3 0.2-0.2 0.3-0.2 0.3-0.3 0.2-0.3 0.2-0.2 0.3-1 0.5-1 0.5-1 0.5-1 0.5h-3l-0.2-0.3-0.3-0.2-0.3-0.2-0.2-0.3-0.2-0.3-0.3-0.2-0.5-1.5q-0.5-1.5-1-5t-2.5-6.5l-2-3-0.3-0.2-0.2-0.3-0.2-0.3-0.3-0.2-0.3-0.2-0.2-0.3-1-0.5q-1-0.5-5-0.8-4-0.2-3.8 3.3l0.3 3.5-0.3-0.2-0.2-0.3-0.2-0.3-0.3-0.2-0.3-0.2-0.2-0.3-3.5-2q-3.5-2-8.3 0.7-4.7 2.8-6 4-1.2 1.3-3.7 1.6-2.5 0.2-3 1.4-0.5 1.3 0.5 1.6 1 0.2 1.5 3.2t-0.5 3 0.8 9q1.7 9 2 13l0.2 4h-2l-0.2-1q-0.3-1-0.8-3l-0.5-2-0.3 15q-0.2 15 0.8 15t0.8 5.5q-0.3 5.5-0.3 9.5v4l0.3 0.2 0.2 0.3h16q16 0 22.2 3.7 6.3 3.8 6.6 4l0.2 0.3 0.2 0.3 0.3 0.2 0.3 0.2 0.2 0.3 0.2 0.3 0.3 0.2 0.3 0.2 0.2 0.3 0.2 0.3 0.3 0.2 0.5 1 0.5 1 0.3 0.2 0.2 0.3 0.2 0.3 0.3 0.2 0.3 1 0.2 1h-2l-0.2-1-0.3-1-0.3-0.2-0.2-0.3-0.2-0.3-0.3-0.2-0.3-0.2-0.2-0.3-0.2-0.3-0.3-0.2-0.3-1-0.2-1-1-0.2q-1-0.3-7-3.8t-13-4-11 0.5-8.5 3.5-10.5 7l-6 4.5-0.2 0.3-0.3 0.2-0.3 0.2-0.2 0.3-1.5 0.3-1.5 0.2-0.2-1-0.3-1-5.5-19q-5.5-19-7.5-38t-1-28 12-16.5 14.5-11 5.2-6.5q1.8-3 6.3-5.5t9.3-15q4.7-12.5 4.2-18t-6.5-16-6-14.5 4.3-7.2q4.2-3.3 22.7-10 18.5-6.8 18.5-7.8t1-1 1 1 4.5-0.8q4.5-1.7 7.3-5.4 2.7-3.8 1.4-4.6-1.2-0.7 1.6-2.4 2.7-1.8 3-3.3 0.2-1.5 1.2-1.5t1-1 2.2-2q2.3-1 4-4.8 1.8-3.7 2.8-4 1-0.2 1.5-2.2t2-2 2.7-3.5q1.3-3.5 5.3-9t6-8.5 4-15 13.3-26.8q11.2-14.7 27.7-31.2t28.5-25 19.8-14.2q7.7-5.8 12.4-12 4.8-6.3 21.6-11 16.7-4.8 38.2-9.8t21.2-5.8q-0.2-0.7 26.3-4.2t28.7-1.2q2.3 2.2 4.8 7.2t8.2 9.2q5.8 4.3 12.3 6.8t18.5 2 18.8-4.2q6.7-3.8 10.2-9.3t5.2-9.7q1.8-4.3 11.8-3.3t13.2 3.3q3.3 2.2 6.3 8.2t8 26 11 51 5.3 33q-0.8 2-13.6 7-12.7 5-19.4 10.2-6.8 5.3-7 5.6zm-141.3 354.2q7.5-0.5 13 1.8 5.5 2.2 11.3 10.2 5.7 8 6.7 13.5t-1.7 11.3q-2.8 5.7-7.8 9.2t-13 5-14.5 0.5-11.5-4.5-9.2-9.8q-4.3-6.2-4.8-12.2t2-10.5 12.2-9.3q9.8-4.7 17.3-5.2zm61 40q5.5-0.5 11.3 2.2 5.7 2.8 7.7 6.8t2.5 8-0.5 6.5-2.7 4.3q-1.8 1.7-6.8 4.2t-10.5 1.5-8.7-4.3q-3.3-3.2-4.3-9.7t0.7-11.5q1.8-5 3.8-6.2 2-1.3 7.5-1.8z" fill="#e9ce92" stroke="#e9ce92"/>
  <path d="m464.8 107l0.2 1 1 0.2 1 0.3 0.2 0.3 0.3 0.2 0.3 0.2 0.2 0.3 1 0.5 1 0.5h3l0.5-0.3 0.5-0.2-0.2 1-0.3 1-0.3 0.2-0.2 0.3 0.2 0.3 0.3 0.2 0.3 0.2 0.2 0.3 1.5 0.5 1.5 0.5h7q7 0 11.5-1.5t19.5-1 32.5 6.5 24 5 14.5-4 38.5-2.5 50.5 2 42.5 1.5 26 0.5l3.5 0.5 2.5 0.3q2.5 0.2 2.5 1.2t-1 0.8q-1-0.3-1.2-0.6l-0.3-0.2-0.3 0.2-0.2 0.3-1 0.5-1 0.5h-6.5q-3.5 0-19 1.5l-15.5 1.5-0.2 0.3-0.3 0.2-0.3 0.2-0.2 0.3h15.5q15.5 0 14 0.5t12 0 16-0.5h6.5l2.5 0.3 2.5 0.2v0.5l-1 0.5-1 0.5-1.5 0.5-1.5 0.5-1.5 0.5-1.5 0.5-78.5 0.5q-78.5 0.5-93 4t-13.5 4-9.5 0-17.5-2-51-2-56-1.5-27 1-44 5.5-49 6.5-26.2 6.3q-6.3 3.2-7.3 5.2t-2.5 40 0.5 47.5 3.5 31 0.5 56-3.3 61.7q-2.2 27.3-3 30.6-0.7 3.2-1.7 64.2t2 79 2.7 21.5q-0.2 3.5-2 5-1.7 1.5-2.7 6t-1 51 0.7 47.3q0.8 0.7 13.8 1.7t19.8 5.7q6.7 4.8 10.2 9.8t7.5 15.5 5.3 11.7q1.2 1.3 10.7-0.7t16.5-1.5 16 5 28 5.5 26.5 3 31 4 30.5 2 11-1.5 7.5-1 12 5 56 6.5 68 5 35.5 3 21.5-2.5 11.5-2 13.5 5 34.5 5.5 37.5 3 13 3 18.5 1h17l3.5-0.3 3.5-0.2v0.5l-2.5 0.5-2.5 0.5-20.5 0.5q-20.5 0.5-21.5 0.8-1 0.2-1 1.7t-1 1.7l-1 0.3-3.5 0.5-3.5 0.5 2.5 0.5 2.5 0.5 1.2 1.7q1.3 1.8 1.6 2l0.2 0.3 2.5 0.5 2.5 0.5-1.5 0.5-1.5 0.5h-6q-3 0-14 0.5l-11 0.5 2.5 0.5 2.5 0.5 2 0.5 2 0.5-0.5 0.3-0.5 0.2-24.5 0.2q-24.5 0.3-31.5 0.3t-11.2-6.7l-4.3-6.8-0.3-0.2-0.2-0.3-1-0.5-1-0.5h-2l-1 0.5-1 0.5-0.2 0.3-0.3 0.2-0.3 0.2-0.2 0.3-0.2 0.3q-0.3 0.2-3.6 6.4-3.2 6.3-24.7 6.3t-46-1-45.5 0.5-39.5 2.2q-18.5 0.8-20.3-7.7l-1.7-8.5-0.3-1.5-0.2-1.5h-3l-0.2 3-0.3 3-0.5 6q-0.5 6-0.8 7.5l-0.2 1.5-3.5-0.2q-3.5-0.3-9-0.8t-25-1.2q-19.5-0.8-20.7-3.3-1.3-2.5-3.6-2.5-2.2 0-3.7 2.2-1.5 2.3-43.5 2.8t-55.5 0.5-37 0-39.5 0.5-17.2-5.2l-1.3-5.8-0.3-1.5-0.2-1.5h-3l-0.2 1-0.3 1-0.3 0.2-0.2 0.3-0.2 0.3-0.3 0.2-0.5 1q-0.5 1-2.5 5.5t-55.3 4l-53.2-0.5 0.2-0.5 0.3-0.5 0.3-0.2 0.2-0.3 1-0.5 1-0.5-0.2-0.3q-0.3-0.2-0.3-4.7t-3-17.5-4.5-27-3-170.5-1.5-275.5 2.7-120.8q2.8-1.7 8.6-11 5.7-9.2 6.2-17.7t-4-16.5-7.8-10q-3.2-2-5.4-8-2.3-6-2.8-15t1.2-10q1.8-1 2-2.5 0.3-1.5 2.3-6l2-4.5 0.3-0.2 0.2-0.3-3-0.5-3-0.5-0.2-0.3-0.3-0.2-0.3-0.2-0.2-0.3v-0.5l2 0.2 2 0.3 47.2-0.7q47.3-0.8 49.8 4.7t3 6.5l0.5 1 0.3 0.2 0.2 0.3h4l0.2-0.3 0.3-0.2 0.3-0.2 0.2-0.3 0.2-0.3 0.3-0.2 2.7-5.5q2.8-5.5 23.3-3.7 20.5 1.7 23.7 9.4 3.3 7.8 3.8 9.8l0.5 2 0.5 1 0.5 1 0.3 1.5 0.2 1.5h2l0.2-3 0.3-3 1.7-9.8q1.8-9.7 6.8-10.2t18.5-1.5 18-2 37-0.5 35.5 1.5 16.2 1.7q13.3 0.8 15.8 8.8t2.8 9z" fill="#d8b777" stroke="#d8b777"/>
  <path d="m1109 45.8v0.2l-3 0.2q-3 0.3-5.8 3.6-2.7 3.2-3.7 6.2t-2.3 5.5q-1.2 2.5-2.2 2.5t-2.5 2l-1.5 2-2 1.8q-2 1.7-0.2 4.4 1.7 2.8-0.8 92.8t-3 364.5 0 277l0.5 2.5 0.3 1.5 0.2 1.5 1 0.2 1 0.3v0.5l-3-0.2q-3-0.3-24.5-0.6l-21.5-0.2v-0.5l8.5-0.3 8.5-0.2-0.2-1-0.3-1-0.3-0.2-0.2-0.3h-5.5q-2.5 0-3-17.7l-0.5-17.8-0.2-12.5q-0.3-12.5-0.8-14t-1-116.5-2.2-329.5l-1.8-214.5-7-0.2-7-0.3v-0.5l6.8-0.5q6.7-0.5 7.4-6.3 0.8-5.7 12-6 11.3-0.2 12-14.2 0.8-14 8.3-14.2 7.5-0.3 13.5-1.3t16 0 10 1.3z" fill="#e5cc95" stroke="#e5cc95"/>
  <path d="m72 38.8l1 0.2v1q0 1 3 1.5t3.2 3.5q0.3 3 2.8 10.5t3.2 9q0.8 1.5 6.3 4.3 5.5 2.7 9.5 3l4 0.2v8l-1-0.2-1-0.3-0.2-0.3-0.3-0.2-0.3 0.2-0.2 0.3h-2l-1.5-0.5q-1.5-0.5-7.5-2l-6-1.5-0.2 0.3-0.3 0.2-1.7 6.2q-1.8 6.3-2.3 6.8t-1.5 0.8l-1 0.2h-0.5l-0.3 1-0.2 1-1.8 6q-1.7 6-3.2 26.5t-3 136.5-1.5 334-0.3 218.2q-0.2 0.3-1.2 0.8l-1 0.5 1 0.5 1 0.5-1 0.5q-1 0.5-1 0.8v0.2h-0.2q-0.3 0-0.6 0.5l-0.2 0.5-5 0.2q-5 0.3-13.5-0.4-8.5-0.8-9.7-14.3-1.3-13.5-4.8-190t-7.8-358.5q-4.2-182 2.3-182.5l6.5-0.5v-17.5q0-17.5 17.5-17.3 17.5 0.3 19.5 0.8t3 0.8z" fill="#b58738" stroke="#b58738"/>
  <path d="m73 40v-1l6 0.8q6 0.7 8.5 2.2t7 1.5 5.5 0.5-0.8 1.2q-1.7 0.8 0.8 1.3t3 1.5 1-1.5 1.5 3.5 1.3 18q0.2 12 9.2 13.2 9 1.3 9.8 3 0.7 1.8 1 2l0.2 0.3 3 0.5 3 0.5v0.5h-3.5q-3.5 0-8.7 356.5-5.3 356.5-5.6 362l-0.2 5.5h3l-1.5 0.5q-1.5 0.5-1.5 2.5v2l-2-0.2q-2-0.3-3-0.8t-3 0.5-7 1.5-5.5-0.8q-0.5-1.2-6.5-1.2h-6l0.2-0.5 0.3-0.5 0.3-0.2 0.2-0.3 0.2-0.3q0.3-0.2 0.8-4.2t-3.2-361l-3.8-357h0.2q0.3 0 0.6-1l0.2-1 1-0.2q1-0.3 1.5-0.8t2.3-6.8l1.7-6.2 0.3-0.2 0.2-0.3 6 1.5q6 1.5 7.5 2l1.5 0.5h2l0.2-0.3 0.3-0.2 0.3 0.2 0.2 0.3 1 0.3 1 0.2v-8l-4-0.2q-4-0.3-9.5-3-5.5-2.8-6.3-4.3-0.7-1.5-4.2-11.5t-5.8-11q-2.2-1-2.2-2z" fill="#e4cb95" stroke="#e4cb95"/>
  <path d="m1106 46.2l3-0.2 13 2.5q13 2.5 13 17t4 15.5-4.2 292.5q-8.3 291.5-10.3 360t-3.3 77.3q-1.2 8.7-11.2 8.2t-14.5-1.5-6-1.3l-1.5-0.2-0.2-0.5-0.3-0.5v-5.5q0-5.5 1-22t6.3-364.5q5.2-348-0.8-349.2l-6-1.3-0.2-0.3-0.3-0.2-0.3-0.2-0.2-0.3 0.2-0.3 0.3-0.2 0.3-1.5 0.2-1.5 1.5-2q1.5-2 2.5-2t2.2-2.5q1.3-2.5 2.3-5.5t3.7-6.2q2.8-3.3 5.8-3.6z" fill="#b58638" stroke="#b58638"/>
  <path d="m1e3 87.2l15-0.2-1.8 1q-1.7 1-1 2.5 0.8 1.5 1.8 1.5t2 2.2q1 2.3 2 2.6 1 0.2 0.5 1.4-0.5 1.3 0.5 1.6 1 0.2 2.8 14.2 1.7 14 2.2 324t4.5 318.5 7.3 12.7q3.2 4.3 4.4 7 1.3 2.8 1.8 0.8t0.8-2h0.2l0.5 17.8q0.5 17.7 3 17.7h5.5l0.2 0.3 0.3 0.2 0.3 1 0.2 1-8.5 0.2-8.5 0.3v0.5l-17.5-0.2q-17.5-0.3-28-1.8t-42.5-2.2q-32-0.8-33.8-5.8l-1.7-5-0.3-0.2-0.2-0.3h-3l-0.2 0.3-0.3 0.2-0.3 0.2-0.2 0.3-0.2 0.3-0.3 0.2-0.5 1q-0.5 1-1.8 4.2-1.2 3.3-18.7 5.3t-46.5 2.5-36-1l-7-1.5v-0.5l0.5-0.2 0.5-0.3-2-0.5-2-0.5-2.5-0.5-2.5-0.5 6-0.3q6-0.2 6-1.2t5-0.2q5 0.7 8 0.7h6l1.5-0.5 1.5-0.5-2.5-0.5-2.5-0.5-0.2-0.3q-0.3-0.2-1.6-2l-1.2-1.7-2.5-0.5-2.5-0.5 3.5-0.5 3.5-0.5 1-0.3q1-0.2 1-1.7t1-1.7q1-0.3 21.5-0.8l20.5-0.5 2.5-0.5 2.5-0.5v-0.5l4-0.2q4-0.3 12-1.3t15-3.5 26.5-3 34.7-3.2q15.3-2.8 18.8-8.3t4-49.5 3.8-161l3.2-117h0.5l0.5-5q0.5-5 1.5-32t2.5-54.5 1.5-126.5-1.5-106.5-0.2-7.3q1.2 0.3-2.8-3.7t-17.5-6.3q-13.5-2.2-13.7-3.2-0.3-1-1.8-1t-3.8-0.5l-2.2-0.5v2l-1-0.2-1-0.3v-0.5l0.2-1.5 0.3-1.5 0.5-1.5 0.5-1.5 0.5-1 0.5-1 0.3-1 0.2-1 16-0.8q16-0.7 31-1z" fill="#caa869" stroke="#caa869"/>
  <path d="m868 99l0.5 1 0.3 0.2 0.2 0.3 0.2 0.3 0.3 0.2 0.3 0.2 0.2 0.3 1.5 0.3 1.5 0.2 0.2-1 0.3-1 1.3-5.5q1.2-5.5 27.2-6.7 26-1.3 34-0.6 8 0.8 8.2 3.3 0.3 2.5 0.3 9.5v7l0.3 0.2 0.2 0.3 1 0.3 1 0.2 0.2-1 0.3-1 0.5-2 0.5-2 0.5-1.5q0.5-1.5 0.8-1.5h0.2v0.5l1 0.3 1 0.2v-2l3.8 0.5q3.7 0.5 4 1.5 0.2 1 13.7 3.2 13.5 2.3 17.5 6.3t2.8 3.7q-1.3-0.2 0.2 7.3t1.5 106.5-1.5 126.5-2.5 54.5-1.5 32l-0.5 5h-0.5l0.2-22.5q0.3-22.5 0.3-68.5t-1.5-126-3-88.5-4.2-11.3q-2.8-2.7-34.8-3.2t-41.5 2.5-70 2.3l-60.5-0.8-2.5-0.2-2.5-0.3h-6.5q-2.5 0-16 0.5t-12 0-14-0.5h-15.5l0.2-0.3 0.3-0.2 0.3-0.2 0.2-0.3 15.5-1.5q15.5-1.5 19-1.5h6.5l1-0.5 1-0.5 0.2-0.3 0.3-0.2 0.3-0.2 0.2-0.3-1.5-0.5-1.5-0.5-3.5-0.5q-3.5-0.5-26-0.5t-42.5-1.5-50.5-2-38.5 2.5-14.5 4-24-5-32.5-6.5-19.5 1-11.5 1.5h-7l-1.5-0.5-1.5-0.5-0.2-0.3-0.3-0.2-0.3-0.2-0.2-0.3 0.2-0.3 0.3-0.2 0.3-1 0.2-1 0.2-1 0.3-1 3.3-10.5q3.2-10.5 15.2-9.7 12 0.7 23.5 1.7t40 0.5 41-2.5 33-2.7q20.5-0.8 21.3 4.7 0.7 5.5 1.2 8l0.5 2.5 0.5 1 0.5 1 0.3 0.2 0.2 0.3 0.2 0.3 0.3 0.2 0.3 0.2 0.2 0.3 0.2 0.3 0.3 0.2 0.3 0.2 0.2 0.3h2l0.2-0.3 0.3-0.2 0.3-0.2 0.2-0.3 0.2-0.3 0.3-0.2 0.5-1 0.5-1 3-8.5q3-8.5 27.7-8.3 24.8 0.3 33.8 1.8t38.5 1.5 39.5-1 16.5 1 26 2.3q19.5 0.2 20.3 4.2 0.7 4 1.2 5zm88.2 0.8q-0.2-0.3 0-0.6 0.3-0.2 0.3 0.3t-0.3 0.3z" fill="#d1ad6f" stroke="#d1ad6f"/>
  <path d="m1013.2 88l1.8-1h8v0.5l7 0.3 7 0.2 1.8 214.5q1.7 214.5 2.2 329.5t1 116.5 0.8 14l0.2 12.5h-0.2q-0.3 0-0.8 2t-1.8-0.8q-1.2-2.7-4.4-7-3.3-4.2-7.3-12.7t-4.5-318.5-2.2-324q-1.8-14-2.8-14.2-1-0.3-0.5-1.6 0.5-1.2-0.5-1.4-1-0.3-2-2.6-1-2.2-2-2.2t-1.8-1.5q-0.7-1.5 1-2.5z" fill="#9a722d" stroke="#9a722d"/>
  <path d="m129.5 88h14.5v0.5l0.2 0.3 0.3 0.2 0.3 0.2 0.2 0.3 3 0.5 3 0.5-0.2 0.3-0.3 0.2-2 4.5q-2 4.5-2.3 6-0.2 1.5-2 2.5-1.7 1-1.2 10t2.8 15q2.2 6 5.4 8 3.3 2 7.8 10t4 16.5-6.2 17.7q-5.8 9.3-8.6 11-2.7 1.8-2.7 120.8t1.5 275.5 3 170.5 4.5 27 3 17.5 0.3 4.7l0.2 0.3-1 0.5-1 0.5-0.2 0.3-0.3 0.2-0.3 0.5-0.2 0.5-6.5 0.2q-6.5 0.3-18.5 0.6l-12 0.2h-3l0.2-5.5q0.3-5.5 5.6-362 5.2-356.5 8.7-356.5z" fill="#9e7530" stroke="#9e7530"/>
  <path d="m1086 69.8l2-1.8-0.2 1.5-0.3 1.5-0.3 0.2-0.2 0.3 0.2 0.3 0.3 0.2 0.3 0.2 0.2 0.3 6 1.3q6 1.2 0.8 349.2-5.3 348-6.3 364.5t-1 22v5.5l0.3 0.5 0.2 0.5-1-0.2-1-0.3-0.2-0.3-0.3-0.2h-0.5v-0.5l-1-0.3-1-0.2-0.2-1.5-0.3-1.5-0.5-2.5q-0.5-2.5 0-277t3-364.5 0.8-92.8q-1.8-2.7 0.2-4.4z" fill="#c7a261" stroke="#c7a261"/>
  <path d="m75.5 97l2-7h0.5l0.8 103q0.7 103 3.2 358t2 259-0.8 4.2l-0.2 0.3-0.2 0.3-0.3 0.2-0.3 0.5-0.2 0.5-0.5 0.2q-0.5 0.3-8 0.8l-7.5 0.5-1 0.3-1 0.2v-2l1.5-0.2 1.5-0.3-1-0.5-1-0.5 1-0.5q1-0.5 1.2-0.8 0.3-0.2 0.3-218.2t1.5-334 3-136.5 3.5-27.5z" fill="#caa564" stroke="#caa564"/>
  <path d="m750.5 665q7.5-0.5 13 1.8 5.5 2.2 11.3 10.2 5.7 8 6.7 13.5t-1.7 11.3q-2.8 5.7-7.8 9.2t-13 5-14.5 0.5-11.5-4.5-9.2-9.8q-4.3-6.2-4.8-12.2t2-10.5 12.2-9.3q9.8-4.7 17.3-5.2z" fill="#e0c385" stroke="#e0c385"/>
  <path d="m811.5 705q5.5-0.5 11.3 2.2 5.7 2.8 7.7 6.8t2.5 8-0.5 6.5-2.7 4.3q-1.8 1.7-6.8 4.2t-10.5 1.5-8.7-4.3q-3.3-3.2-4.3-9.7t0.7-11.5q1.8-5 3.8-6.2 2-1.3 7.5-1.8z" fill="#d8ba7c" stroke="#d8ba7c"/>
 </g>
</svg>
