<?xml version="1.0" encoding="UTF-8"?>
<svg width="600" height="600" viewBox="0 0 1 1" xmlns="http://www.w3.org/2000/svg">
 <path d="m.17525.10569-.00368.00845-.00911.00132-.02015.05468 .03597.04635 .04726-.00751 .01233.01549-.02176.00379-.00568-.00795-.00745.00104 .00583.00816-.01081.00177 .0045.00602 .01057-.00171 .01317.01888-.0197.00214-.02792-.03886-.05825.00706-.02466.0528 .00547.00742-.0034.00855 .03728.0448 .05813-.00799 .01712-.04468 .0196-.00294-.00799.02176-.00957.00092-.00283.00698 .00983-.00096-.0035.00923 .00747-.00089 .00343-.009 .02309-.00197-.008.01814-.04761.00475-.02302.05397 .0334.04777 .00916-.00104 .00571.00723 .05743-.00988 .02214-.05433-.03013-.03718 .00725-.01843 .01417.01696-.00406.0089 .00463.00592 .00416-.00912 .00693.00848 .00296-.0069-.00676-.0083 .00977-.02083 .01171.01598-.0197.04362 .03524.04691 .05806-.00505 .00369-.00844 .00911-.00132 .02015-.05469-.03599-.04634-.04725.00752-.01235-.0155 .02284-.00395 .00558.00782 .00745-.00104-.00573-.00802 .00974-.00159-.00451-.00603-.0095.00153-.01325-.019 .0197-.00214 .02792.03886 .05825-.00706 .02466-.0528-.00548-.00741 .00342-.00855-.03728-.0448-.05813.00799-.01712.04468-.0196.00294 .00761-.02074 .00972-.00094 .00283-.00698-.00997.00096 .00387-.01024-.00747.00089-.00381.01001-.02293.00197 .008-.01814 .04761-.00475 .02302-.05397-.0334-.04777-.00916.00103-.0057-.00722-.05743.00988-.02214.05433 .03013.03716-.00725.01844-.01485-.01779 .00398-.00876-.00462-.00594-.00409.00898-.00624-.00764-.00296.00692 .00608.00747-.00984.02097-.0117-.01599 .01969-.04361-.03523-.04691-.05807.00504zm.02112.01128 .02911-.0032 .00785.0095-.03028.00168-.00669-.00798zm.13589-.01757-.00443.00942-.02971.00608 .00518-.01118 .02896-.00431zm-.16448.03939 .00594.00855-.0096.02876-.00709-.01006 .01074-.02725zm.19768-.02556 .01732.02363-.00429.01153-.01659-.02538 .00357-.00978zm-.02395.01068 .01084.01462-.01057.02533-.01791.00236-.01092-.01439 .01055-.02531 .018-.0026zm-.14787.01913 .01808-.00209 .01665.02182-.00691.01669-.01791.00227-.01666-.02181 .00676-.01688zm.08151.04896 .01503.01843-.00295.00752-.00549-.00691c.00126-.00279.00207-.00472.0019-.00474l-.0045-.00669-.00232.00522-.00357-.00445-.00266.00761 .00304.00409-.00355.00809-.00476-.00652 .00985-.02165zm.14321.00732 .01227-.0011 .01822.02292-.01038.00087-.02011-.02269zm-.13985.01863 .00596.00704-.0038.00967-.00612-.00838 .00396-.00832zm-.13855.01815-.01368.02706-.01026.0018 .01179-.02681 .01214-.00204zm.10294-.00536 .00504.00632-.00766.00114-.00326-.00415-.00804.00057 .00347.00476-.00673.00103 .00526.0061 .00613-.00075 .00513.00699-.00802.00087-.01374-.01923 .02241-.00362zm.0733-.00948 .02351-.00228-.00806.02122-.00798.0012 .00284-.0072 .00523-.00074 .00353-.00724-.00586.00063 .00248-.00634-.00792.0015-.0024.0057-.00863.00094 .00326-.00739zm-.06354.02171 .00632.00794-.0092.00099-.00513-.00747 .00801-.00146zm.05722-.0074 .00906-.00071-.00276.00766-.01003.00151 .00373-.00846zm.08391-.00495 .02721-.00352 .01125.01429-.00724.0167-.02721.00351-.011-.01432 .007-.01665zm-.24931.03302 .02721-.00352 .011.01434-.007.01665-.02721.00352-.01125-.01429 .00724-.0167zm.14003-.00271 .00017.00021-.00027,3.587e-005 .0001-.00025zm.02488.01003 .0103-.00112 .00522.00759-.00907.00163-.00646-.0081zm.01785-.00194 .00802-.00087 .01382.01935-.02347.0038-.00503-.0063 .00873-.00131 .00316.00402 .00804-.00057-.00336-.00461 .00564-.00086-.00526-.00611-.00506.00059-.00523-.00712zm-.06367.00864-.00419.00949-.00918.00073 .00311-.00867 .01026-.00155zm-.01775.00268-.00324.00821-.00506.00072-.00353.00725 .00568-.0006-.00207.00532 .00792-.0015 .00202-.00468 .00879-.00097-.00327.00737-.02366.0023 .00844-.02223 .00798-.0012zm.20764-.02355-.01179.02681-.01214.00206 .01368-.02707 .01026-.0018zm-.33283.04382 .01038-.00087 .02011.02269-.01226.00111-.01823-.02293zm.16787-.01229 .00546.00747-.0039.00818-.00527-.00621 .00371-.00944zm.00993.01358 .00477.00652-.00979.02149-.01434-.01759 .00295-.00752 .00482.00607c-.0013.00287-.00215.00487-.00197.00489l.00451.00667 .0024-.00537 .00425.0053 .00266-.0076-.00373-.00493 .00348-.00794zm.04862.0407 .01791-.00227 .01666.02181-.00676.01688-.01808.00208-.01666-.02181 .00692-.01669zm-.10168.01393 .01092.01439-.01055.02532-.018.00259-.01084-.01461 .01057-.02533 .01791-.00237zm.15899-.01058 .0071.01007-.01075.02724-.00593-.00855 .00958-.02876zm-.2136.02841 .01659.02538-.00357.00978-.01731-.02361 .00429-.01154zm.14441.02444 .03028-.00168 .00669.00798-.02912.00319-.00784-.00949zm-.06404.00907-.00518.01117-.02896.00432 .00443-.00942 .02971-.00608z" fill="#00aad4"/>
 <path d="m.85079.11065-.00071.00035c-.00752.00477-.05966.03971-.09667.06455-.00383-.04474-.00922-.10699-.01021-.11579s-.00173.07335-.00203.12401l-.02473.01661-.02699-.01266c-.00802-.05002-.02129-.1319-.02089-.12224l.00756.11599-.1054-.04906c-.00887-.00388.06267.03818.10639.06376l.00202.02973-.02445.01704-.11633-.04302 .10426.05145-.09519.06673c-.00778.00574.06439-.03517.10841-.06024l.02676.01311 .00253.02967c-.03931.03195-.10359.08442-.09542.07924l.09667-.06457c.00383.04474.00922.107.0102.11581s.00173-.07335.00203-.12401l.02474-.01662 .02698.01265c.00802.05002.0213.13192.0209.12225l-.00758-.116 .1054.04906c.00887.00388-.06266-.03816-.10638-.06375l-.00202-.02973 .02444-.01703 .11633.04302-.10424-.05146 .09518-.06672 .00057-.00055-.10898.06079-.02675-.0131-.00254-.0297 .09613-.07957zm-.10971.0906-9.439e-005,.02021-.00253.00449-.00368.00138 .00034-.00208-.00091.0023-.00699.00263-.00232-.00709 .00121-.00215-.00141.00157-.00123-.00374 .00192-.00478 .01569-.01274zm.02767.04043-.01755.01002-.00515,5.847e-005-.00304-.0025 .00197-.00075-.00246.00036-.00575-.00473 .00497-.00556 .00248-2.552e-005-.00207-.00043 .00262-.00294 .0051-.00073 .01887.00722zm-.05907-.02649 .00262.00443-.00065.00389-.00162-.00134 .00154.00194-.00121.00735-.0073-.00153-.00126-.00212 .00066.002-.00386-.0008-.00318-.00404-.00318-.01996 .01745.01019zm.03471.05073 .00318.01996-.01745-.01019-.00262-.00443 .00065-.00389 .00162.00134-.00151-.00194 .00121-.00735 .00729.00153 .00126.00212-.00066-.002 .00386.00081 .00318.00405zm-.01903-.02423 .00189.00319-.00136.00339-.00184.00326-.00369.00053-.00366,4.032e-005-.00228-.0029-.00189-.00319 .00134-.00335 .00185-.00329 .0037-.00053 .00364-4.46e-005 .00228.0029zm-.02233.00504-.00497.00556-.00248,2.605e-005 .00207.00043-.00262.00294-.0051.00073-.01886-.00723 .01753-.01002 .00516-5.419e-005 .00304.00249-.00197.00075 .00245-.00035 .00575.00473zm.00956.01396 .00232.00708-.00121.00216 .00141-.00157 .00122.00373-.00192.0048-.0157.01273 .0001-.0202 .00253-.00449 .00369-.00139-.00035.00209 .00092-.0023 .00698-.00262z" fill="#00aad4"/>
 <path d="m.72272.78477-.00088-.00034-.00633-.00707-.01218-.00634-.01021-.01772-.0042.00037 .00538.01073-.00456-.00129-.01083-.01999-.02076-.0077-.01335.00941-.01551-.00563-.00925-.01885 .02032-.01679-.00613-.00243-.01989.01697-.00656-.0026 .01431-.01056-.00614-.00242-.01806.01363-.00863-.01659-.00978-.00453 .00775-.00691 .00346-.01838 .02122.00782 .00517-.00409-.01675-.00596 .00554-.00439 .02394.01048 .00517-.0041-.02432-.01018 .0034-.02074 .01322-.00987 .01549.00514 .01765-.01338 .00457-.02227 .004-.00256-.00205.01183 .00413-.00086 .00465-.01992 .00982-.0096 .004-.00861 .00074-.00057-.00052.00011 .00023-.00048-.00072.00058-.00929.00195-.01158.00738-.02046-1.67e-005-.00178.00382 .012.0007-.00341.00331-.02273-.00063-.01705.01414 .00148.01626-.01262.01061-.02097-.00141-.00438-.026-.00516.0041 .00475.0257-.00554.0044-.00198-.01767-.00516.0041 .00277.02245-.01868-.00082-.01101.00774-.00264-.01277-.01419-.01219 .01739-.01447-.00097-.00653-.01354.01153-.00103-.00699 .02105-.0155-.00097-.00653-.02098.01596-.01625-.01331-.00194-.01638 .0122-.01085-.00277-.02197-.017-.0151-.00022-.00474 .00923.00769 .00132-.00401-.01492-.01398-.0034-.01331-.00545-.00777-.00013-.00093-.00017.00051-.00031-.00044 .00015.00092-.00296.00902 .0006.01372-.01024.0177 .00242.00345 .0066-.01003 .00116.0046-.0119.01938 .00371.02183 .01482.00685 .00288.01624-.0117.01745-.0247-.0092 .00097.00653 .02463.00874 .00103.00699-.01629-.00712 .00097.00653 .02083.00882-.01005.01577 .00097.01074-.00986-.00326-.01765.00619-.00383-.02229-.00614-.00243 .00322.01749-.00657-.0026-.0029-.02598-.00614-.00242 .00334.02615-.01966.00743-.01516-.00652-.00329-.01599-.02042-.00859-.02157.00718-.00422-.00219 .01128-.00415-.00281-.00315-.01958.00594-.01322-.00371-.00946.00083-.00086-.00036 .00035.00039-.00053,5.07e-005 .00087.00034 .00633.00707 .01218.00634 .01022.01772 .0042-.00037-.00539-.01073 .00457.00129 .01082.01999 .02077.00771 .01334-.00941 .01551.00563 .00927.01886-.02033.01679 .00614.00242 .01988-.01696 .00657.0026-.01431.01055 .00614.00242 .01805-.01363 .00863.01659 .01144.0053-.00924.00824-.00346.01838-.02123-.00782-.00517.0041 .01675.00595-.00554.00439-.02394-.01047-.00516.00409 .02431.01019-.0034.02073-.01322.00987-.0155-.00514-.01764.01339-.00458.02227-.00399.00256 .00204-.01183-.00413.00086-.00464.01992-.00983.0096-.00401.0086-.00074.00057 .00052-.00011-.00023.00048 .00073-.00059 .00929-.00194 .01159-.00738 .02045,8.3e-006 .00178-.00382-.01199-.00071 .0034-.0033 .02274.00063 .01705-.01414-.00147-.01626 .01262-.01062 .02096.00142 .00438.02599 .00516-.0041-.00475-.0257 .00554-.00439 .00198.01767 .00517-.0041-.00277-.02246 .01868.00083 .00881-.00621 .00211.01017 .01419.01219-.01739.01446 .00097.00654 .01353-.01154 .00103.007-.02105.0155 .00097.00653 .02098-.01597 .01626.01332 .00193.01638-.0122.01084 .00277.02198 .017.01509 .00022.00474-.00923-.0077-.00133.00402 .01493.01398 .0034.01331 .00545.00777 .00012.00092 .00017-.00051 .00031.00044-.00014-.00092 .00296-.00902-.0006-.01372 .01024-.01771-.00242-.00345-.0066.01004-.00117-.0046 .0119-.01937-.00371-.02184-.01482-.00684-.00289-.01624 .0117-.01745 .02471.00921-.00097-.00653-.02463-.00875-.00103-.00699 .01629.00713-.00097-.00653-.02082-.00882 .01005-.01577-.00114-.01267 .01259.00416 .01765-.00619 .00384.02229 .00613.00243-.00321-.01748 .00656.0026 .00291.02597 .00613.00243-1.3e-006-8.3e-006-.00333-.02615 .01965-.00742 .01515.00651 .0033.01599 .02042.00858 .02157-.00717 .00421.00218-.01127.00414 .00281.00315 .01957-.00594 .01323.00371 .00945-.00082 .00087.00035-.00036-.0004 .00053-4.15e-005zm-.04864-.01918-.00013.00033-.00658.00252-.01445-.00572-.0024-.00586-.0003-.00011 .00028-.0007 .0003.00011 .00576-.00263 .01445.00572 .00306.00635zm-.02479-.16525-.0011.00695-.01218.00966-.00628-.00085-.00025.00019-.00047-.00059 .00025-.00019 .0006-.00631 .01218-.00966 .00703.00053 .00022.00027zm-.03067.13767-.00552-.00269-.00389-.01066 .00498.00147 .00442.01188zm-.01443-.09522-.00079.01265-.00435.00285 .00063-.01132 .0045-.00418zm.01045.10529-.01135.00564-.00464-.00234 .01013-.00511 .00587.0018zm-.01717-.11377-.00509.00343-.01116-.00197 .00376-.00358 .0125.00211zm-.00595.08386-.01603-.00686 .00959-.00633 .00644.01318zm-.00752-.04853-.00234.01447-.01101-.00329 .01335-.01119zm-.0027.07437-.01372.00521-.00266-.01117 .01638.00596zm-.01456-.09615-.01395.01045-.00068-.01147 .01464.00102zm-.00095.0496-.00704.01889-.00331-.00131 .00242-.00611-.00417-.00771-.00482-.00178 .0041-.0031 .00177-.00858-.00424-.00536 .0024-.00191 .01291.01698zm-.00946.02503-.00872.02038-.02196.00368-.00043-.00292 .00818-.00121 .00458-.00746-.00083-.00491 .0044.00185 .00832-.00276 .00315-.00795 .00331.00131zm-.00755-.04716-.0024.0019-.00514-.00649-.00876-.00023-.00383.00318-.00059-.00475-.00656-.00582-.00899.00133-.00045-.00303 .02245-.00287 .01427.01678zm.00143.04212-9.5e-005,.00024-.00475.00182-.01043-.00412-.00173-.00423-.00022-8.84e-005 .0002-.0005 .00021,8.99e-005 .00416-.00191 .01043.00413 .00222.00457zm-.00528-.03562-.00079.00502-.00879.00697-.00452-.00061-.00018.00015-.00034-.00043 .00018-.00015 .00043-.00454 .00879-.00698 .00507.00037 .00015.0002zm.00373.08184-.00821.01216-.00207-.0173 .01028.00514zm-.01907-.12536-.00835.00789-.00302-.01717 .01137.00927zm.01532.16114-.00808.00978-.00043-.00613 .00728-.00868 .00123.00504zm-.02927-.19432 .00029.00519-.00949-.00621-.00137-.00598 .01056.00701zm.01359.09722-.00015.00011-.00017-6.79e-005 .00014-.0001 .00018,5.75e-005zm.01313.14749 .00228.01538-.00396.00583-.00034,5e-005-.00548-.00442-.00228-.01538 .00388-.00501-4.66e-005-.00032 .00074-.00011 4.66e-005,.00032 .00516.00366zm-.01896-.12509 .00164.0111-.00285.00421-.00025,3.63e-005-.00395-.00321-.00164-.01109 .0028-.00361-3.33e-005-.00023 .00054-7.93e-005 3.33e-005,.00023 .00372.00265zm-.02707-.18247 .00228.01538-.00388.00501 4.67e-005,.00032-.00074.00011-4.67e-005-.00032-.00516-.00367-.00228-.01538 .00396-.00583 .00034-5.1e-005 .00548.00443zm.01907.12957 .00164.01109-.0028.00361 3.5e-005,.00024-.00054,7.91e-005-3.5e-005-.00024-.00373-.00265-.00164-.01109 .00287-.00421 .00025-3.61e-005 .00395.0032zm.00329.07277 .00043.00292-.02115.00269-.01285-.01554 .00273-.00217 .00414.00522 .00875.00023 .00396-.00329 .00063.0051 .00656.00582 .00679-.001zm-.01316-.08221 .00045.00302-.00597.00088-.00459.00747 .00087.00506-.00474-.00199-.00831.00276-.00277.00702-.00305-.0012 .00824-.01967 .01988-.00335zm.00661.05353 2.67e-005,.00018-.00014.00012-1.83e-005-.00019 .00013-.00011zm.01397.0949-.01056-.00702-.0003-.00519 .00949.00621 .00137.00599zm-.01732-.11635 2.5e-005,.00017-.00016-6.94e-005-4.5e-005-.00018 .00018,7.57e-005zm-.01443-.09475 .00042.00613-.00728.00869-.00122-.00505 .00808-.00977zm.01861.18018-.01137-.00926 .00835-.00789 .00302.01716zm-.01003-.06435-.00019.00015-.00043.00454-.00879.00698-.00507-.00038-.00016-.00019 .00079-.00502 .00879-.00697 .00453.00061 .00018-.00015 .00034.00043zm-.01221-.08244 .00208.01731-.01028-.00514 .0082-.01217zm.00939.06455-.0002.0005-.00021-8.07e-005-.00416.00191-.01043-.00413-.00222-.00458 9.67e-005-.00023 .00475-.00182 .01043.00412 .00173.00423 .00022,7.93e-005zm-.01603.01157-.00382.00289-.00177.00858 .00526.00663-.00273.00217-.01313-.01724 .00708-.02072 .00304.0012-.00279.00705 .00417.00771 .00467.00173zm-.00296.04245 .00069.01148-.01464-.00102 .01395-.01046zm-.0123-.08182-.01637-.00597 .01371-.00521 .00267.01118zm-.00556.05931-.01336.0112 .00235-.01448 .01101.00329zm-.00502-.03259-.00959.00633-.00643-.01319 .01602.00686zm-.00555.07765-.00377.00358-.0125-.00211 .00509-.00343 .01117.00197zm-.0176-.11772-.01012.00511-.00587-.00181 .01135-.00564 .00464.00234zm-.00026.09519-.00063.01133-.0045.00418 .00079-.01266 .00435-.00285zm-.01031-.06847-.00498-.00146-.00442-.01189 .00552.0027 .00389.01065zm-.01965.11106-.00026.00021-.0006.0063-.01218.00966-.00703-.00052-.00022-.00027 .0011-.00696 .01218-.00966 .00628.00086 .00026-.00021 .00047.00059zm-.02137-.14313-.00028.0007-.0003-.00012-.00576.00264-.01445-.00572-.00306-.00635 .00013-.00033 .00657-.00253 .01445.00572 .0024.00586 .0003.00012z" fill="#00aad4"/>
</svg>
