<?xml version="1.0" encoding="UTF-8" standalone="no"?>
<svg
   xmlns:dc="http://purl.org/dc/elements/1.1/"
   xmlns:cc="http://creativecommons.org/ns#"
   xmlns:rdf="http://www.w3.org/1999/02/22-rdf-syntax-ns#"
   xmlns:svg="http://www.w3.org/2000/svg"
   xmlns="http://www.w3.org/2000/svg"
   xmlns:sodipodi="http://sodipodi.sourceforge.net/DTD/sodipodi-0.dtd"
   xmlns:inkscape="http://www.inkscape.org/namespaces/inkscape"
   width="247.032"
   height="262.02539"
   viewBox="0 0 0.41172 0.43670898"
   version="1.1"
   id="svg8"
   sodipodi:docname="snowflake.svg"
   inkscape:version="0.92.2 (5c3e80d, 2017-08-06)">
  <metadata
     id="metadata14">
    <rdf:RDF>
      <cc:Work
         rdf:about="">
        <dc:format>image/svg+xml</dc:format>
        <dc:type
           rdf:resource="http://purl.org/dc/dcmitype/StillImage" />
        <dc:title></dc:title>
      </cc:Work>
    </rdf:RDF>
  </metadata>
  <defs
     id="defs12" />
  <sodipodi:namedview
     pagecolor="#ffffff"
     bordercolor="#666666"
     borderopacity="1"
     objecttolerance="10"
     gridtolerance="10"
     guidetolerance="10"
     inkscape:pageopacity="0"
     inkscape:pageshadow="2"
     inkscape:window-width="1920"
     inkscape:window-height="986"
     id="namedview10"
     showgrid="false"
     inkscape:zoom="0.39333333"
     inkscape:cx="113.4"
     inkscape:cy="253.67538"
     inkscape:window-x="-11"
     inkscape:window-y="-11"
     inkscape:window-maximized="1"
     inkscape:current-layer="svg8" />
  <path
     d="m 0.41172,0.2986867 -8.8e-4,-3.4e-4 -0.00633,-0.00707 -0.01218,-0.00634 -0.01021,-0.01772 -0.0042,3.7e-4 0.00538,0.01073 -0.00456,-0.00129 -0.01083,-0.01999 -0.02076,-0.0077 -0.01335,0.00941 -0.01551,-0.00563 -0.00925,-0.01885 0.02032,-0.01679 -0.00613,-0.00243 -0.01989,0.01697 -0.00656,-0.0026 0.01431,-0.01056 -0.00614,-0.00242 -0.01806,0.01363 -0.00863,-0.01659 -0.00978,-0.00453 0.00775,-0.00691 0.00346,-0.01838 0.02122,0.00782 0.00517,-0.00409 -0.01675,-0.00596 0.00554,-0.00439 0.02394,0.01048 0.00517,-0.0041 -0.02432,-0.01018 0.0034,-0.02074 0.01322,-0.00987 0.01549,0.00514 0.01765,-0.01338 0.00457,-0.02227 0.004,-0.00256 -0.00205,0.01183 0.00413,-8.6e-4 0.00465,-0.01992 0.00982,-0.0096 0.004,-0.00861 7.4e-4,-5.7e-4 -5.2e-4,1.1e-4 2.3e-4,-4.8e-4 -7.2e-4,5.8e-4 -0.00929,0.00195 -0.01158,0.00738 -0.02046,-1.67e-5 -0.00178,0.00382 0.012,7e-4 L 0.34375,0.09918 0.32102,0.09855 0.30397,0.11269 0.30545,0.12895 0.29283,0.13956 0.27186,0.13815 0.26748,0.11215 0.26232,0.11625 0.26707,0.14195 0.26153,0.14635 0.25955,0.12868 0.25439,0.13278 0.25716,0.15523 0.23848,0.15441 0.22747,0.16215 0.22483,0.14938 0.21064,0.13719 0.22803,0.12272 0.22706,0.11619 0.21352,0.12772 0.21249,0.12073 0.23354,0.10523 0.23257,0.0987 0.21159,0.11466 0.19534,0.10135 0.1934,0.08497 0.2056,0.07412 0.20283,0.05215 0.18583,0.03705 0.18561,0.03231 0.19484,0.04 0.19616,0.03599 0.18124,0.02201 0.17784,0.0087 0.17239,9.3e-4 0.17226,0 0.17209,5.1e-4 0.17178,7e-5 0.17193,9.9e-4 0.16897,0.01001 0.16957,0.02373 0.15933,0.04143 0.16175,0.04488 0.16835,0.03485 0.16951,0.03945 0.15761,0.05883 0.16132,0.08066 0.17614,0.08751 0.17902,0.10375 0.16732,0.1212 0.14262,0.112 0.14359,0.11853 0.16822,0.12727 0.16925,0.13426 0.15296,0.12714 0.15393,0.13367 0.17476,0.14249 0.16471,0.15826 0.16568,0.169 0.15582,0.16574 0.13817,0.17193 0.13434,0.14964 0.1282,0.14721 0.13142,0.1647 0.12485,0.1621 0.12195,0.13612 0.11581,0.1337 0.11915,0.15985 0.09949,0.16728 0.08433,0.16076 0.08104,0.14477 0.06062,0.13618 0.03905,0.14336 0.03483,0.14117 0.04611,0.13702 0.0433,0.13387 0.02372,0.13981 0.0105,0.1361 0.00104,0.13693 1.8e-4,0.13657 5.3e-4,0.13696 0,0.1370107 l 8.7e-4,3.4e-4 0.00633,0.00707 0.01218,0.00634 0.01022,0.01772 0.0042,-3.7e-4 -0.00539,-0.01073 0.00457,0.00129 0.01082,0.01999 0.02077,0.00771 0.01334,-0.00941 0.01551,0.00563 0.00927,0.01886 -0.02033,0.01679 0.00614,0.00242 0.01988,-0.01696 0.00657,0.0026 -0.01431,0.01055 0.00614,0.00242 0.01805,-0.01363 0.00863,0.01659 0.01144,0.0053 -0.00924,0.00824 -0.00346,0.01838 -0.02123,-0.00782 -0.00517,0.0041 0.01675,0.00595 -0.00554,0.00439 -0.02394,-0.01047 -0.00516,0.00409 0.02431,0.01019 -0.0034,0.02073 -0.01322,0.00987 -0.0155,-0.00514 -0.01764,0.01339 -0.00458,0.02227 -0.00399,0.00256 0.00204,-0.01183 -0.00413,8.6e-4 -0.00464,0.01992 -0.00983,0.0096 -0.00401,0.0086 -7.4e-4,5.7e-4 5.2e-4,-1.1e-4 -2.3e-4,4.8e-4 7.3e-4,-5.9e-4 0.00929,-0.00194 0.01159,-0.00738 0.02045,8.3e-6 0.00178,-0.00382 -0.01199,-7.1e-4 0.0034,-0.0033 0.02274,6.3e-4 0.01705,-0.01414 -0.00147,-0.01626 0.01262,-0.01062 0.02096,0.00142 0.00438,0.02599 0.00516,-0.0041 -0.00475,-0.0257 0.00554,-0.00439 0.00198,0.01767 0.00517,-0.0041 -0.00277,-0.02246 0.01868,8.3e-4 0.00881,-0.00621 0.00211,0.01017 0.01419,0.01219 -0.01739,0.01446 9.7e-4,0.00654 0.01353,-0.01154 0.00103,0.007 -0.02105,0.0155 9.7e-4,0.00653 0.02098,-0.01597 0.01626,0.01332 0.00193,0.01638 -0.0122,0.01084 0.00277,0.02198 0.017,0.01509 2.2e-4,0.00474 -0.00923,-0.0077 -0.00133,0.00402 0.01493,0.01398 0.0034,0.01331 0.00545,0.00777 1.2e-4,9.2e-4 1.7e-4,-5.1e-4 3.1e-4,4.4e-4 -1.4e-4,-9.2e-4 0.00296,-0.00902 -6e-4,-0.01372 L 0.24982,0.395269 0.2474,0.391819 0.2408,0.401859 0.23963,0.397259 0.25153,0.377889 0.24782,0.356049 0.233,0.349209 0.23011,0.332969 0.24181,0.315519 0.26652,0.324729 0.26555,0.318199 0.24092,0.309449 0.23989,0.302459 0.25618,0.309589 0.25521,0.303059 0.23439,0.294239 0.24444,0.278469 0.2433,0.265799 l 0.01259,0.00416 0.01765,-0.00619 0.00384,0.02229 0.00613,0.00243 -0.00321,-0.01748 0.00656,0.0026 0.00291,0.02597 0.00613,0.00243 -1.3e-6,-8.3e-6 -0.00333,-0.02615 0.01965,-0.00742 0.01515,0.00651 0.0033,0.01599 0.02042,0.00858 0.02157,-0.00717 0.00421,0.00218 -0.01127,0.00414 0.00281,0.00315 0.01957,-0.00594 0.01323,0.00371 0.00945,-8.2e-4 8.7e-4,3.5e-4 -3.6e-4,-4e-4 5.3e-4,-4.15e-5 z m -0.04864,-0.01918 -1.3e-4,3.3e-4 -0.00658,0.00252 -0.01445,-0.00572 -0.0024,-0.00586 -3e-4,-1.1e-4 2.8e-4,-7e-4 3e-4,1.1e-4 0.00576,-0.00263 0.01445,0.00572 0.00306,0.00635 z m -0.02479,-0.16525 -0.0011,0.00695 -0.01218,0.00966 -0.00628,-8.5e-4 -2.5e-4,1.9e-4 -4.7e-4,-5.9e-4 2.5e-4,-1.9e-4 6e-4,-0.00631 0.01218,-0.00966 0.00703,5.3e-4 z m -0.03067,0.13767 -0.00552,-0.00269 -0.00389,-0.01066 0.00498,0.00147 0.00442,0.01188 z m -0.01443,-0.09522 -7.9e-4,0.01265 -0.00435,0.00285 6.3e-4,-0.01132 0.0045,-0.00418 z m 0.01045,0.10529 -0.01135,0.00564 -0.00464,-0.00234 0.01013,-0.00511 0.00587,0.0018 z m -0.01717,-0.11377 -0.00509,0.00343 -0.01116,-0.00197 0.00376,-0.00358 0.0125,0.00211 z m -0.00595,0.08386 -0.01603,-0.00686 0.00959,-0.00633 0.00644,0.01318 z M 0.273,0.1835567 0.27066,0.1980267 0.25965,0.1947367 0.273,0.1835467 Z m -0.0027,0.07437 -0.01372,0.00521 -0.00266,-0.01117 z m -0.01456,-0.09615 -0.01395,0.01045 -6.8e-4,-0.01147 0.01464,0.00102 z m -9.5e-4,0.0496 -0.00704,0.01889 -0.00331,-0.00131 0.00242,-0.00611 -0.00417,-0.00771 -0.00482,-0.00178 0.0041,-0.0031 0.00177,-0.00858 -0.00424,-0.00536 0.0024,-0.00191 0.01291,0.01698 z m -0.00946,0.02503 -0.00872,0.02038 -0.02196,0.00368 -4.3e-4,-0.00292 0.00818,-0.00121 0.00458,-0.00746 -8.3e-4,-0.00491 0.0044,0.00185 0.00832,-0.00276 0.00315,-0.00795 0.00331,0.00131 z m -0.00755,-0.04716 -0.0024,0.0019 -0.00514,-0.00649 -0.00876,-2.3e-4 -0.00383,0.00318 -5.9e-4,-0.00475 -0.00656,-0.00582 -0.00899,0.00133 -4.5e-4,-0.00303 0.02245,-0.00287 z m 0.00143,0.04212 -9.5e-5,2.4e-4 -0.00475,0.00182 -0.01043,-0.00412 -0.00173,-0.00423 -2.2e-4,-8.84e-5 2e-4,-5e-4 2.1e-4,8.99e-5 0.00416,-0.00191 0.01043,0.00413 0.00222,0.00457 z m -0.00528,-0.03562 -7.9e-4,0.00502 -0.00879,0.00697 -0.00452,-6.1e-4 -1.8e-4,1.5e-4 -3.4e-4,-4.3e-4 1.8e-4,-1.5e-4 4.3e-4,-0.00454 0.00879,-0.00698 0.00507,3.7e-4 z m 0.00373,0.08184 -0.00821,0.01216 -0.00207,-0.0173 z m -0.01907,-0.12536 -0.00835,0.00789 -0.00302,-0.01717 0.01137,0.00927 z m 0.01532,0.16114 -0.00808,0.00978 -4.3e-4,-0.00613 0.00728,-0.00868 0.00123,0.00504 z m -0.02927,-0.19432 2.9e-4,0.00519 -0.00949,-0.00621 -0.00137,-0.00598 0.01056,0.00701 z m 0.01359,0.09722 -1.5e-4,1.1e-4 -1.7e-4,-6.79e-5 1.4e-4,-10e-5 z m 0.01313,0.14749 0.00228,0.01538 -0.00396,0.00583 -3.4e-4,5e-5 -0.00548,-0.00442 -0.00228,-0.01538 0.00388,-0.00501 -4.66e-5,-3.2e-4 7.4e-4,-1.1e-4 4.66e-5,3.2e-4 z m -0.01896,-0.12509 0.00164,0.0111 -0.00285,0.00421 -2.5e-4,3.63e-5 -0.00395,-0.00321 -0.00164,-0.01109 0.0028,-0.00361 -3.33e-5,-2.3e-4 5.4e-4,-7.93e-5 3.33e-5,2.3e-4 0.00372,0.00265 z m -0.02707,-0.18247 0.00228,0.01538 -0.00388,0.00501 4.67e-5,3.2e-4 -7.4e-4,1.1e-4 -4.67e-5,-3.2e-4 -0.00516,-0.00367 -0.00228,-0.01538 0.00396,-0.00583 3.4e-4,-5.1e-5 z m 0.01907,0.12957 0.00164,0.01109 -0.0028,0.00361 3.5e-5,2.4e-4 -5.4e-4,7.91e-5 -3.5e-5,-2.4e-4 -0.00373,-0.00265 -0.00164,-0.01109 0.00287,-0.00421 2.5e-4,-3.61e-5 0.00395,0.0032 z m 0.00329,0.07277 4.3e-4,0.00292 -0.02115,0.00269 -0.01285,-0.01554 0.00273,-0.00217 0.00414,0.00522 0.00875,2.3e-4 0.00396,-0.00329 6.3e-4,0.0051 0.00656,0.00582 0.00679,-0.001 z m -0.01316,-0.08221 4.5e-4,0.00302 -0.00597,8.8e-4 -0.00459,0.00747 8.7e-4,0.00506 -0.00474,-0.00199 -0.00831,0.00276 -0.00277,0.00702 -0.00305,-0.0012 0.00824,-0.01967 0.01988,-0.00335 z m 0.00661,0.05353 2.67e-5,1.8e-4 -1.4e-4,1.2e-4 -1.83e-5,-1.9e-4 1.3e-4,-1.1e-4 z m 0.01397,0.0949 -0.01056,-0.00702 -3e-4,-0.00519 0.00949,0.00621 0.00137,0.00599 z m -0.01732,-0.11635 2.5e-5,1.7e-4 -1.6e-4,-6.94e-5 -4.5e-5,-1.8e-4 1.8e-4,7.57e-5 z m -0.01443,-0.09475 4.2e-4,0.00613 -0.00728,0.00869 -0.00122,-0.00505 z m 0.01861,0.18018 -0.01137,-0.00926 0.00835,-0.00789 0.00302,0.01716 z m -0.01003,-0.06435 -1.9e-4,1.5e-4 -4.3e-4,0.00454 -0.00879,0.00698 -0.00507,-3.8e-4 -1.6e-4,-1.9e-4 7.9e-4,-0.00502 0.00879,-0.00697 0.00453,6.1e-4 1.8e-4,-1.5e-4 3.4e-4,4.3e-4 z m -0.01221,-0.08244 0.00208,0.01731 -0.01028,-0.00514 z m 0.00939,0.06455 -2e-4,5e-4 -2.1e-4,-8.07e-5 -0.00416,0.00191 -0.01043,-0.00413 -0.00222,-0.00458 9.67e-5,-2.3e-4 0.00475,-0.00182 0.01043,0.00412 0.00173,0.00423 2.2e-4,7.93e-5 z m -0.01603,0.01157 -0.00382,0.00289 -0.00177,0.00858 0.00526,0.00663 -0.00273,0.00217 -0.01313,-0.01724 0.00708,-0.02072 0.00304,0.0012 -0.00279,0.00705 0.00417,0.00771 0.00467,0.00173 z m -0.00296,0.04245 6.9e-4,0.01148 -0.01464,-0.00102 z m -0.0123,-0.08182 -0.01637,-0.00597 0.01371,-0.00521 0.00267,0.01118 z m -0.00556,0.05931 -0.01336,0.0112 0.00235,-0.01448 0.01101,0.00329 z m -0.00502,-0.03259 -0.00959,0.00633 -0.00643,-0.01319 z m -0.00555,0.07765 -0.00377,0.00358 -0.0125,-0.00211 0.00509,-0.00343 0.01117,0.00197 z m -0.0176,-0.11772 -0.01012,0.00511 -0.00587,-0.00181 0.01135,-0.00564 z m -2.6e-4,0.09519 -6.3e-4,0.01133 -0.0045,0.00418 7.9e-4,-0.01266 0.00435,-0.00285 z m -0.01031,-0.06847 -0.00498,-0.00146 -0.00442,-0.01189 0.00552,0.0027 0.00389,0.01065 z m -0.01965,0.11106 -2.6e-4,2.1e-4 -6e-4,0.0063 -0.01218,0.00966 -0.00703,-5.2e-4 -2.2e-4,-2.7e-4 0.0011,-0.00696 0.01218,-0.00966 0.00628,8.6e-4 2.6e-4,-2.1e-4 z m -0.02137,-0.14313 -2.8e-4,7e-4 -3e-4,-1.2e-4 -0.00576,0.00264 -0.01445,-0.00572 -0.00306,-0.00635 1.3e-4,-3.3e-4 0.00657,-0.00253 0.01445,0.00572 0.0024,0.00586 3e-4,1.2e-4 z"
     id="path6"
     inkscape:connector-curvature="0"
     style="fill:#00aad4" />
</svg>
