<?xml version="1.0" encoding="UTF-8"?>
<svg version="1.1" viewBox="0 0 600 900" xmlns="http://www.w3.org/2000/svg">
 <defs>
  <radialGradient id="b" cx="470.59" cy="514.29" r="359.8" gradientTransform="matrix(.86426 0 0 1.1571 -72.5 -162.36)" gradientUnits="userSpaceOnUse">
   <stop stop-color="#5bc660" offset="0"/>
   <stop stop-color="#006d05" offset="1"/>
  </radialGradient>
  <radialGradient id="a" cx="330" cy="312.81" r="166.27" gradientUnits="userSpaceOnUse">
   <stop stop-color="#fff" offset="0"/>
   <stop stop-color="#f8f3ba" offset="1"/>
  </radialGradient>
 </defs>
 <path transform="translate(-124.99 -142.38)" d="m450 360a90 90 0 1 1 -180 0 90 90 0 1 1 180 0z" fill="url(#a)" fill-rule="evenodd" stroke="#000" stroke-width="8.75"/>
 <path transform="translate(72 -328.97)" d="m180 577.99a10.625 10.625 0 1 1 -21.25 0 10.625 10.625 0 1 1 21.25 0z" fill-rule="evenodd"/>
 <path transform="translate(55.252 -142.38)" d="m450 360a90 90 0 1 1 -180 0 90 90 0 1 1 180 0z" fill="url(#a)" fill-rule="evenodd" stroke="#000" stroke-width="8.75"/>
 <path transform="translate(249.39 -321.56)" d="m180 577.99a10.625 10.625 0 1 1 -21.25 0 10.625 10.625 0 1 1 21.25 0z" fill-rule="evenodd"/>
 <path d="m121.25 642.5c1.25-50 6.25-140 36.25-170-21.25-23.75-28.75-53.75-27.5-53.75s25 5 55 46.25l20-3.75c0.833-46.667 9.167-110.83 20-151.25h23.75c-16.093 43.285-20 108.75-22.5 150 62.5-5 90-3.75 150 3.75-1.667-44.583 9.167-112.92 20-153.75h23.75c-18.75 60-22.5 122.5-22.5 156.25l23.125 6.875c25.208-21.875 32.917-32.5 69.375-43.125-13.333 23.75-17.917 37.5-43.75 60 30.417 43.333 14.583 104.17 8.75 146.25-10.833 30.417-20.417 53.333-51.25 53.75l1.25 58.75c32.083-2.917 40.417 24.167 32.5 41.25-8.646 20-41.871 15.184-46.875 1.25-7.448 21.25-24.818 17.812-33.437-6.094-4.87 21.094-29.74 27.969-48.438 6.094-13.75-18.75-1.25-48.75 41.25-45v-70 21.25c-48.333 10.833-72.917 10.417-122.5-2.5v-20l-1.25 65c32.5 8.75 37.5 20 33.75 42.5-3.437 22.187-39.375 31.875-47.188 5.312-1.874 30.625-41.354 21.563-41.718-4.843-8.308 26.172-36.902 20.726-44.922 8.515-12.964-21.759-5.365-50.156 31.328-52.734v-53.75c-16.667-2.917-33.333-20.833-36.25-42.5z" fill="url(#b)" fill-rule="evenodd" stroke="#000" stroke-width="6.25"/>
 <path d="m178.75 591.25c8.75-23.75 22.5-32.5 47.5-38.75" fill="none" stroke="#000" stroke-width="6.25"/>
 <path d="m362.5 565c20 0 28.75 11.25 31.25 31.25" fill="none" stroke="#000" stroke-width="6.25"/>
 <path d="m195 566.25c42.5 55 121.25 86.25 188.75 7.5" fill="none" stroke="#000" stroke-width="6.25"/>
</svg>
