<?xml version="1.0" encoding="UTF-8" standalone="no"?>
<svg
   xmlns:dc="http://purl.org/dc/elements/1.1/"
   xmlns:cc="http://creativecommons.org/ns#"
   xmlns:rdf="http://www.w3.org/1999/02/22-rdf-syntax-ns#"
   xmlns:svg="http://www.w3.org/2000/svg"
   xmlns="http://www.w3.org/2000/svg"
   xmlns:xlink="http://www.w3.org/1999/xlink"
   xmlns:sodipodi="http://sodipodi.sourceforge.net/DTD/sodipodi-0.dtd"
   xmlns:inkscape="http://www.inkscape.org/namespaces/inkscape"
   version="1.1"
   viewBox="0 0 600 900"
   id="svg30"
   sodipodi:docname="monstre-vert.svg"
   inkscape:version="0.92.1 r15371">
  <metadata
     id="metadata34">
    <rdf:RDF>
      <cc:Work
         rdf:about="">
        <dc:format>image/svg+xml</dc:format>
        <dc:type
           rdf:resource="http://purl.org/dc/dcmitype/StillImage" />
        <dc:title></dc:title>
      </cc:Work>
    </rdf:RDF>
  </metadata>
  <sodipodi:namedview
     pagecolor="#ffffff"
     bordercolor="#666666"
     borderopacity="1"
     objecttolerance="10"
     gridtolerance="10"
     guidetolerance="10"
     inkscape:pageopacity="0"
     inkscape:pageshadow="2"
     inkscape:window-width="1280"
     inkscape:window-height="657"
     id="namedview32"
     showgrid="false"
     inkscape:zoom="0.26222222"
     inkscape:cx="300"
     inkscape:cy="450"
     inkscape:window-x="-8"
     inkscape:window-y="-8"
     inkscape:window-maximized="1"
     inkscape:current-layer="svg30" />
  <defs
     id="defs12">
    <radialGradient
       id="b"
       cx="470.59"
       cy="514.29"
       r="359.8"
       gradientTransform="matrix(0.86426,0,-0.3807778,0.64018636,134.52372,270.72439)"
       gradientUnits="userSpaceOnUse">
      <stop
         stop-color="#5bc660"
         offset="0"
         id="stop2" />
      <stop
         stop-color="#006d05"
         offset="1"
         id="stop4" />
    </radialGradient>
    <radialGradient
       id="a"
       cx="330"
       cy="312.81"
       r="166.27"
       gradientUnits="userSpaceOnUse">
      <stop
         stop-color="#fff"
         offset="0"
         id="stop7" />
      <stop
         stop-color="#f8f3ba"
         offset="1"
         id="stop9" />
    </radialGradient>
    <radialGradient
       inkscape:collect="always"
       xlink:href="#a"
       id="radialGradient4515"
       gradientUnits="userSpaceOnUse"
       cx="330"
       cy="312.81"
       r="166.27"
       gradientTransform="matrix(1,0,-0.32907943,0.55326798,75.458714,281.77869)" />
    <radialGradient
       inkscape:collect="always"
       xlink:href="#a"
       id="radialGradient4517"
       gradientUnits="userSpaceOnUse"
       cx="330"
       cy="312.81"
       r="166.27"
       gradientTransform="matrix(1,0,-0.32907943,0.55326798,255.70071,281.77869)" />
  </defs>
  <path
     d="m 406.99012,480.95516 a 46.480109,96.416953 77.792607 1 1 -180,0 46.480109,96.416953 77.792607 1 1 180,0 z"
     id="path14"
     style="fill:url(#radialGradient4515);fill-rule:evenodd;stroke:#000000;stroke-width:6.50842333"
     inkscape:connector-curvature="0" />
  <path
     d="m 323.64703,498.32777 a 5.4872349,11.382557 77.792607 1 1 -21.25,0 5.4872349,11.382557 77.792607 1 1 21.25,0 z"
     id="path16"
     inkscape:connector-curvature="0"
     style="fill-rule:evenodd;stroke-width:0.74381983" />
  <path
     d="m 587.23212,480.95516 a 46.480109,96.416953 77.792607 1 1 -180,0 46.480109,96.416953 77.792607 1 1 180,0 z"
     id="path18"
     style="fill:url(#radialGradient4517);fill-rule:evenodd;stroke:#000000;stroke-width:6.50842333"
     inkscape:connector-curvature="0" />
  <path
     d="m 498.59855,502.42749 a 5.4872349,11.382557 77.792607 1 1 -21.25,0 5.4872349,11.382557 77.792607 1 1 21.25,0 z"
     id="path20"
     inkscape:connector-curvature="0"
     style="fill-rule:evenodd;stroke-width:0.74381983" />
  <path
     d="m 63.410857,716.02766 c 17.703971,-27.6634 52.321123,-77.45752 92.193503,-94.05556 -13.43436,-13.14011 -11.06198,-29.73815 -9.81198,-29.73815 1.25,0 23.3546,2.76634 39.78007,25.58864 l 21.23405,-2.07475 c 16.19015,-25.81936 45.63887,-61.31869 69.77326,-83.68178 h 23.75 c -30.3372,23.9482 -55.78738,60.16789 -71.86191,82.99019 64.1454,-2.76634 91.23405,-2.07475 148.76595,2.07476 13.00435,-24.66635 46.32665,-62.47502 70.59596,-85.06495 h 23.75 c -38.49476,33.19608 -62.81223,67.77532 -73.91865,86.44812 l 20.86257,3.80372 c 32.40661,-12.10274 43.61208,-17.98121 83.56655,-23.85968 -21.14863,13.14011 -30.25747,20.74754 -63.49476,33.19607 16.157,23.97476 -19.69721,57.63393 -39.37787,80.91544 -20.84261,16.82875 -37.96779,29.50745 -68.93802,29.73816 l -18.08341,32.50449 c 33.04292,-1.61388 32.46413,13.37083 18.92547,22.82231 -15.22759,11.06535 -46.86774,8.40081 -47.28635,0.69158 -14.44094,11.75694 -30.67956,9.85481 -31.43159,-3.37162 -11.8116,11.67064 -38.94402,15.47435 -50.44341,3.37162 -7.57976,-10.37378 14.79262,-26.97182 56.05858,-24.89706 l 23.03555,-38.72876 -6.99293,11.75695 c -51.89792,5.99355 -76.34502,5.76339 -121.6773,-1.38317 l 6.58159,-11.06536 -22.64017,35.96242 c 29.62056,4.84109 30.91841,11.06535 19.76413,23.51388 -10.73829,12.27536 -49.86441,17.63542 -48.93607,2.93896 -11.952061,16.94384 -48.449942,11.93012 -40.124272,-2.67947 -16.920665,14.48012 -43.7225,11.46703 -47.72411,4.71107 -5.803562,-12.03855 11.140307,-27.74971 48.681673,-29.17603 L 85.67498,739.54155 C 69.967906,737.92766 59.197691,728.01532 63.410857,716.02766 Z"
     id="path22"
     style="fill:url(#b);fill-rule:evenodd;stroke:#000000;stroke-width:4.64887428"
     inkscape:connector-curvature="0" />
  <path
     d="m 137.77618,687.67268 c 16.56563,-13.14012 33.19508,-17.98121 60.25182,-21.43914"
     id="path24"
     inkscape:connector-curvature="0"
     style="fill:none;stroke:#000000;stroke-width:4.64887428" />
  <path
     d="m 330.16451,673.14939 c 20,0 25.04786,6.22426 20.96627,17.28963"
     id="path26"
     inkscape:connector-curvature="0"
     style="fill:none;stroke:#000000;stroke-width:4.64887428" />
  <path
     d="m 162.25316,673.84097 c 24.40063,30.42974 92.8669,47.71937 186.2819,4.14952"
     id="path28"
     inkscape:connector-curvature="0"
     style="fill:none;stroke:#000000;stroke-width:4.64887428" />
</svg>
