<?xml version="1.0" encoding="UTF-8" standalone="no"?>
<svg
   xmlns:dc="http://purl.org/dc/elements/1.1/"
   xmlns:cc="http://creativecommons.org/ns#"
   xmlns:rdf="http://www.w3.org/1999/02/22-rdf-syntax-ns#"
   xmlns:svg="http://www.w3.org/2000/svg"
   xmlns="http://www.w3.org/2000/svg"
   xmlns:sodipodi="http://sodipodi.sourceforge.net/DTD/sodipodi-0.dtd"
   xmlns:inkscape="http://www.inkscape.org/namespaces/inkscape"
   width="26.00625mm"
   height="35.434135mm"
   version="1.1"
   viewBox="0 0 2600.625 3543.4135"
   xml:space="preserve"
   id="svg88"
   sodipodi:docname="ladybug-862107.svg"
   style="clip-rule:evenodd;fill-rule:evenodd;image-rendering:optimizeQuality;shape-rendering:geometricPrecision;text-rendering:geometricPrecision"
   inkscape:version="0.92.2 (5c3e80d, 2017-08-06)"><metadata
     id="metadata92"><rdf:RDF><cc:Work
         rdf:about=""><dc:format>image/svg+xml</dc:format><dc:type
           rdf:resource="http://purl.org/dc/dcmitype/StillImage" /></cc:Work></rdf:RDF></metadata><sodipodi:namedview
     pagecolor="#ffffff"
     bordercolor="#666666"
     borderopacity="1"
     objecttolerance="10"
     gridtolerance="10"
     guidetolerance="10"
     inkscape:pageopacity="0"
     inkscape:pageshadow="2"
     inkscape:window-width="1920"
     inkscape:window-height="986"
     id="namedview90"
     showgrid="false"
     inkscape:zoom="1.0074671"
     inkscape:cx="48.881878"
     inkscape:cy="-117.23068"
     inkscape:window-x="-11"
     inkscape:window-y="-11"
     inkscape:window-maximized="1"
     inkscape:current-layer="svg88" /><defs
     id="defs4"><style
       type="text/css"
       id="style2"><![CDATA[
    .str0 {stroke:black;stroke-width:7.62}
    .str1 {stroke:red;stroke-width:7.62}
    .str2 {stroke:white;stroke-width:7.62}
    .fil5 {fill:none}
    .fil2 {fill:#2D2C2B}
    .fil4 {fill:#A8A9A9}
    .fil0 {fill:black}
    .fil1 {fill:red}
    .fil3 {fill:white}
   ]]></style></defs><path
     class="fil0 str0"
     d="m 1736.3331,3018.4332 c -32,-41 -23,-75 -73,-109 -131,-90 -318,152 -109,244 -65,55 -201,104 -309,126 -156,32 -255.99997,15 -401.99997,-9 l 666.99997,-2032 c 109,14 117,42 220,-82 124,97 199,194 280,366 146,313 138,797 -1,1108 -82,183 -164,272 -272,389 z m -1251.99997,-1711 c 33,-30 59,-65 88,-95 75,-77 213,-171 324,-214 234.99997,-90 395.99997,-34 586.99997,52 l -368,1091 c -61,177 -119.99997,366 -177.99997,545 l -162,545 c -1,2 -3,8 -3,6 -1,-1 -2,4 -3,6 -167,-43 -316,-191 -390,-294 l 37,-27 c 85,-51 153,-141 97,-246 -24,-46 -65,-84 -139,-76 -80,9 -75,67 -127,89 -16,-90 -42,-161 -55,-266 -35,-273 9,-577 113,-813 57,7 72,41 163,23 168,-34 147,-222 70,-287 l -52,-41 z m 1145.99997,-449 c 108,-62 182,99 82,136 -100,37 -176,-82 -82,-136 z m -280,-68 12,-14 c -4,-15 -8,-13 7,-10 -2,-15 -4,-11 11,-7 -2,-15 -5,-10 13,-11 29,-13 42,-13 71,0 17,1 14,-5 14,10 15,-4 14,-8 11,6 13,-2 10,-4 7,10 l 12,14 c 14,25 16,32 1,57 l -10,16 c 4,15 8,13 -7,10 3,15 5,11 -10,7 l -16,10 c -19,11 -69,26 -76,-6 -17,4 -16,10 -14,-5 -15,4 -14,8 -11,-7 -15,3 -11,5 -7,-10 l -10,-16 c -13,-22 -16,-32 1,-54 z m -94,-542 c -13,46 -6,107 -58,135 -152,82 -235.99997,-249 22,-286.000004 130,-19 214,55.000004 251,138.000004 48,107 17,229 -31,318 l -13,5 c -136,46 -295,85 -347,296 -155.99997,39 -185.99997,25 -345.99997,111 -119,64 -180,131 -266,201 -153,-43 -90,-169 -159,-195 -56,27 -30,108 -5,150 40,68 61,58 118,100 -61,67 -134,198 -156,218 -63,-31 -154,-209 -196.999998,-167 -40,91 130.999998,195 163.999998,240 -8,33 -68,172 -95,269 -57.999998,212 -79.999998,424 -53.999998,647 14,119 41.999998,197 70.999998,302 -75.999998,17 -173.999998,70 -146.9999984,152 73.0000004,16 49.0000004,-88 170.9999984,-93 63,65 50,136 236,312 90,85 201,154 347,200 102,32 358.99997,77 469.99997,67 106,-9 171,-63 208,-33 86,68 -14,147 -6,201 84,25 156,-102 85,-209 -16,-24 -9,-5 -20,-34 91,-62 135,-54 269,-173 262,-232 395,-527 435,-906 61,-6 78,23 150,-17 36,-20 77,-62 60,-115 -76,-16 -40,13 -84,47 -19,15 -106,55 -119,-9 -2,-8 -1,-33 -1,-43 0,-30 2,-59 -1,-89 -4,-51 -14,-112 -16,-167 34,-14 90,-2 145,-45 29,-23 73,-70 50,-118 -58,-18 -67,29 -95,55 -25,23 -74,48 -109,26 -21,-15 -38,-112 -57,-165 -19,-56 -40,-103 -64,-156 -23,-50 -50,-95 -81,-140 -37,-54 -72,-84 -103,-128 21,-86 47,-116 34,-226 -10,-83 -61,-148 -58,-206 6,-130 161,-224 266,-266 131,-52 350,-44 371,107 26,186 -226,229 -300,114 1,-96 87,-55 61,-133 -85,-34 -148,76 -108,170 109,253 581,51 419,-235 -75,-134 -258,-180 -451,-117 -102,33 -213,121 -274,201 -30,39 -31,60 -53,104 -89,-48 -55,-87 -273,-115 37,-74 68,-107 64,-227 -8,-276.000004 -320,-406.000004 -511,-252.000004 -119.99997,97.000004 -142.99997,326.000004 10,397.000004 79,37 175,3 219,-44 46,-49 77,-202 -35,-176 z"
     id="path6"
     inkscape:connector-curvature="0"
     style="fill:#000000;stroke:#000000;stroke-width:7.61999989" /><path
     class="fil1 str1"
     d="m 442.33313,2120.4332 c -29,-165 215,-231 263,-54 20,75 -42,145 -100,157 -82,17 -152,-42 -162,-103 z m 506,-732 c -32,-132 177.99997,-168 210.99997,-49 39,139 -182.99997,162 -210.99997,49 z m -465,-82 52,41 c 77,64 98,253 -70,287 -91,18 -105,-16 -163,-23 -104,236 -148,540 -113,813 13,105 40,175 55,266 53,-22 48,-80 127,-89 74,-8 115,29 139,76 56,106 -12,195 -97,246 l -37,27 c 74,103 223,251 390,294 1,-2 3,-8 3,-6 0,1 3,-5 3,-6 l 162,-545 c 58,-179 116.99997,-368 177.99997,-545 l 368,-1091 c -191,-86 -351,-143 -586.99997,-52 -111,43 -248,136 -324,214 -29,30 -55,65 -88,95 z"
     id="path10"
     inkscape:connector-curvature="0"
     style="fill:#ff0000;stroke:#ff0000;stroke-width:7.61999989" /><path
     class="fil1 str1"
     d="m 1519.3331,2304.4332 c 156,-79 246,176 99,234 -148,58 -254,-155 -99,-234 z m 175,-723 c 146,-64 220,164 88,223 -138,62 -235,-159 -88,-223 z m 43,1436 c 107,-117 190,-206 272,-389 139,-311 148,-795 1,-1108 -81,-173 -155,-270 -280,-366 -103,124 -110,97 -220,82 l -666.99997,2032 c 146,24 245.99997,41 401.99997,9 107,-22 244,-71 309,-126 -210,-91 -22,-333 109,-244 51,35 41,69 73,109 z"
     id="path14"
     inkscape:connector-curvature="0"
     style="fill:#ff0000;stroke:#ff0000;stroke-width:7.61999989" /><path
     class="fil2"
     d="m 442.33313,2120.4332 c 11,61 81,120 162,103 58,-12 120,-83 100,-157 -48,-177 -291,-111 -263,54 z"
     id="path18"
     inkscape:connector-curvature="0"
     style="fill:#2d2c2b" /><path
     class="fil2"
     d="m 1519.3331,2304.4332 c -156,79 -50,292 99,234 147,-58 58,-313 -99,-234 z"
     id="path22"
     inkscape:connector-curvature="0"
     style="fill:#2d2c2b" /><path
     class="fil2"
     d="m 1693.3331,1581.4332 c -146,64 -50,284 88,223 132,-59 58,-287 -88,-223 z"
     id="path26"
     inkscape:connector-curvature="0"
     style="fill:#2d2c2b" /><path
     class="fil2"
     d="m 949.33313,1389.4332 c 28,113 249.99997,90 210.99997,-49 -33,-119 -242.99997,-83 -210.99997,49 z"
     id="path30"
     inkscape:connector-curvature="0"
     style="fill:#2d2c2b" /><path
     class="fil3 str2"
     d="m 1630.3331,857.4332 c -94,54 -18,174 82,136 101,-38 27,-198 -82,-136 z"
     id="path34"
     inkscape:connector-curvature="0"
     style="fill:#ffffff;stroke:#ffffff;stroke-width:7.61999989" /><path
     class="fil3 str2"
     d="m 1380.3331,759.4332 c 2,14 4,10 -11,7 2,14 5,11 -7,10 l -12,14 -1,54 10,16 c 13,-2 9,-4 7,10 14,-3 12,-7 11,7 18,-4 17,-10 14,5 l 76,6 16,-10 c -1,-13 -4,-9 10,-7 -2,-14 -6,-12 7,-10 l 10,-16 -1,-57 -12,-14 c -13,1 -9,3 -7,-10 l -11,-6 c -19,4 -14,8 -14,-10 -29,-13 -42,-13 -71,0 0,19 5,16 -13,11 z"
     id="path38"
     inkscape:connector-curvature="0"
     style="fill:#ffffff;stroke:#ffffff;stroke-width:7.61999989" /><path
     class="fil4"
     d="m 1369.3331,765.4332 c -15,-3 -12,-6 -7,10 l -12,14 c -17,22 -15,31 -1,54 l 10,16 c -5,16 -9,14 7,10 -3,15 -5,11 11,7 -2,15 -4,10 14,5 7,32 56,17 76,6 l 16,-10 c 15,5 13,9 10,-7 15,3 11,5 7,-10 l 10,-16 c 15,-26 13,-32 -1,-57 l -12,-14 c 2,-14 6,-12 -7,-10 2,-14 4,-9 -11,-6 0,-15 3,-9 -14,-10 0,18 -4,14 14,10 l 11,6 c -2,13 -5,11 7,10 l 12,14 1,57 -10,16 c -13,-1 -9,-4 -7,10 -14,-3 -12,-6 -10,7 l -16,10 -76,-6 c 3,-15 4,-9 -14,-5 2,-13 4,-9 -11,-7 2,-14 6,-12 -7,-10 l -10,-16 1,-54 12,-14 c 13,2 9,4 7,-10 15,3 13,7 11,-7 18,5 13,8 13,-11 -18,1 -15,-4 -13,11 -15,-4 -13,-8 -11,7 z"
     id="path42"
     inkscape:connector-curvature="0"
     style="fill:#a8a9a9" /><rect
     class="fil5"
     x="-4354.667"
     y="-1373.5668"
     width="9030"
     height="16321"
     id="rect86"
     style="fill:none" /></svg>