<?xml version="1.0" encoding="UTF-8" standalone="no"?>
<svg
   xmlns:dc="http://purl.org/dc/elements/1.1/"
   xmlns:cc="http://creativecommons.org/ns#"
   xmlns:rdf="http://www.w3.org/1999/02/22-rdf-syntax-ns#"
   xmlns:svg="http://www.w3.org/2000/svg"
   xmlns="http://www.w3.org/2000/svg"
   xmlns:sodipodi="http://sodipodi.sourceforge.net/DTD/sodipodi-0.dtd"
   xmlns:inkscape="http://www.inkscape.org/namespaces/inkscape"
   viewBox="0 0 597.99566 743.74373"
   version="1.1"
   id="svg30"
   sodipodi:docname="ladybug.svg"
   width="597.99567"
   height="743.74371"
   inkscape:version="0.92.2 (5c3e80d, 2017-08-06)">
  <metadata
     id="metadata36">
    <rdf:RDF>
      <cc:Work
         rdf:about="">
        <dc:format>image/svg+xml</dc:format>
        <dc:type
           rdf:resource="http://purl.org/dc/dcmitype/StillImage" />
      </cc:Work>
    </rdf:RDF>
  </metadata>
  <defs
     id="defs34" />
  <sodipodi:namedview
     pagecolor="#ffffff"
     bordercolor="#666666"
     borderopacity="1"
     objecttolerance="10"
     gridtolerance="10"
     guidetolerance="10"
     inkscape:pageopacity="0"
     inkscape:pageshadow="2"
     inkscape:window-width="1920"
     inkscape:window-height="986"
     id="namedview32"
     showgrid="false"
     inkscape:zoom="0.22425739"
     inkscape:cx="306.41869"
     inkscape:cy="472.97722"
     inkscape:window-x="-11"
     inkscape:window-y="-11"
     inkscape:window-maximized="1"
     inkscape:current-layer="svg30" />
  <path
     d="m 510.0505,571.89279 a 163.55381,148.68051 1.7110715e-6 1 1 -327.10761,0 163.55381,148.68051 1.7110715e-6 1 1 327.10761,0 z"
     id="path2"
     inkscape:connector-curvature="0"
     style="stroke-width:2.3789463" />
  <path
     d="m 338.22655,254.77359 a 115.64331,115.64331 0 1 1 -231.28662,0 115.64331,115.64331 0 1 1 231.28662,0 z"
     id="path4"
     inkscape:connector-curvature="0"
     style="stroke-width:1.76419997" />
  <path
     d="m 281.27086,743.74374 a 268.37495,284.89555 80.631324 1 1 218.84042,-68.1294 L 313.52486,476.11403 Z"
     id="path6"
     inkscape:connector-curvature="0"
     style="fill:#dc143c;stroke-width:1.61973274" />
  <path
     d="m 73.333208,161.11386 c -4.431616,7.4977 -13.440109,-1.31905 -14.618278,-6.49861 -3.107951,-13.65776 10.974118,-23.85081 23.22151,-23.97857 20.90066,-0.21824 34.83877,20.46654 33.33885,39.94417 -2.15583,28.00161 -30.031461,46.00771 -56.666821,42.69914 C 23.517741,208.92171 1.3561093,173.66112 6.5490403,139.88933 13.034526,97.709478 55.765961,71.353283 96.662362,78.46961 c 49.272518,8.573541 79.842198,58.82089 70.780008,106.83598 -1.45308,7.69926 -3.84455,15.21682 -7.08818,22.34853"
     stroke-miterlimit="4.1"
     id="path8"
     inkscape:connector-curvature="0"
     style="fill:none;stroke:#000000;stroke-width:11.59242058;stroke-miterlimit:4.0999999" />
  <path
     d="m 292.48168,89.752534 c 7.18533,5.587358 12.37744,-6.467957 11.48088,-11.963171 -2.36283,-14.490585 -19.86092,-18.978599 -31.66029,-14.378743 -20.13619,7.849615 -25.41338,33.356421 -16.35268,51.73352 13.02547,26.41963 46.81356,33.19073 71.07118,19.69677 31.9584,-17.77703 39.42108,-60.641093 21.22408,-91.504784 C 325.51771,4.7882828 274.21042,-4.3788088 237.76167,18.321779 193.84762,45.671448 184.18324,106.36388 211.66571,149.59668 c 4.40678,6.93244 9.6427,13.32608 15.54514,19.0155"
     stroke-miterlimit="4.1"
     id="path10"
     inkscape:connector-curvature="0"
     style="fill:none;stroke:#000000;stroke-width:12.07264805;stroke-miterlimit:4.0999999" />
  <path
     d="m 290.8149,669.89171 a 47.908315,47.908315 0 1 1 10.02817,-95.29041 l -5.01409,47.64521 z"
     id="path12"
     inkscape:connector-curvature="0"
     style="fill:#ffffff;stroke-width:1.76418877" />
  <path
     d="m 140.02096,340.69094 a 29.73582,29.73582 0 1 1 -59.471637,0 29.73582,29.73582 0 1 1 59.471637,0 z"
     id="path14"
     inkscape:connector-curvature="0"
     style="fill:#ffffff;stroke-width:1.09500003" />
  <path
     d="m 493.55096,522.41094 a 29.73582,29.73582 0 1 1 -59.47164,0 29.73582,29.73582 0 1 1 59.47164,0 z"
     id="path16"
     inkscape:connector-curvature="0"
     style="fill:#ffffff;stroke-width:1.09500003" />
  <path
     d="m 275.48096,287.82094 a 29.73582,29.73582 0 1 1 -59.47164,0 29.73582,29.73582 0 1 1 59.47164,0 z"
     id="path18"
     inkscape:connector-curvature="0"
     style="fill:#ffffff;stroke-width:1.09500003" />
  <path
     d="m 420.86722,365.49219 a 54.51567,54.51567 0 1 1 -109.03134,0 54.51567,54.51567 0 1 1 109.03134,0 z"
     id="path20"
     inkscape:connector-curvature="0"
     style="fill:#ffffff;stroke-width:2.00749993" />
  <path
     d="m 50.82056,573.69218 a 52.864585,54.51567 1.0675627e-5 1 0 105.72917,0 52.864585,54.51567 1.0675627e-5 1 0 -105.72917,0 z"
     id="path22"
     inkscape:connector-curvature="0"
     style="fill:#ffffff;stroke-width:1.97686625" />
  <path
     d="m 173.05598,449.71843 a 19.22319,19.824153 2.8872324e-5 1 0 38.44638,0 19.22319,19.824153 2.8872324e-5 1 0 -38.44638,0 z"
     id="path24"
     inkscape:connector-curvature="0"
     style="fill:#ffffff;stroke-width:0.71885985" />
  <path
     d="m 516.67298,426.59043 a 19.22319,19.824153 2.8872324e-5 1 0 38.44638,0 19.22319,19.824153 2.8872324e-5 1 0 -38.44638,0 z"
     id="path26"
     inkscape:connector-curvature="0"
     style="fill:#ffffff;stroke-width:0.71885985" />
  <path
     d="m 434.07298,291.12243 a 19.22319,19.824153 2.8872324e-5 1 0 38.44638,0 19.22319,19.824153 2.8872324e-5 1 0 -38.44638,0 z"
     id="path28"
     inkscape:connector-curvature="0"
     style="fill:#ffffff;stroke-width:0.71885985" />
</svg>
