<?xml version="1.0" encoding="UTF-8" standalone="no"?>
<!-- Created with Inkscape (http://www.inkscape.org/) -->

<svg
   xmlns:dc="http://purl.org/dc/elements/1.1/"
   xmlns:cc="http://creativecommons.org/ns#"
   xmlns:rdf="http://www.w3.org/1999/02/22-rdf-syntax-ns#"
   xmlns:svg="http://www.w3.org/2000/svg"
   xmlns="http://www.w3.org/2000/svg"
   xmlns:sodipodi="http://sodipodi.sourceforge.net/DTD/sodipodi-0.dtd"
   xmlns:inkscape="http://www.inkscape.org/namespaces/inkscape"
   version="1.1"
   id="svg2"
   width="2560"
   height="2172"
   viewBox="0 0 2560 2172"
   sodipodi:docname="pieuvre-rouge.svg"
   inkscape:version="0.92.1 r15371">
  <metadata
     id="metadata8">
    <rdf:RDF>
      <cc:Work
         rdf:about="">
        <dc:format>image/svg+xml</dc:format>
        <dc:type
           rdf:resource="http://purl.org/dc/dcmitype/StillImage" />
        <dc:title />
      </cc:Work>
    </rdf:RDF>
  </metadata>
  <defs
     id="defs6" />
  <sodipodi:namedview
     pagecolor="#ffffff"
     bordercolor="#666666"
     borderopacity="1"
     objecttolerance="10"
     gridtolerance="10"
     guidetolerance="10"
     inkscape:pageopacity="0"
     inkscape:pageshadow="2"
     inkscape:window-width="1280"
     inkscape:window-height="657"
     id="namedview4"
     showgrid="false"
     inkscape:zoom="0.10865562"
     inkscape:cx="-362.80505"
     inkscape:cy="1086"
     inkscape:window-x="-8"
     inkscape:window-y="-8"
     inkscape:window-maximized="1"
     inkscape:current-layer="svg2" />
  <path
     style="color:#000000;font-style:normal;font-variant:normal;font-weight:normal;font-stretch:normal;font-size:medium;line-height:normal;font-family:sans-serif;font-variant-ligatures:normal;font-variant-position:normal;font-variant-caps:normal;font-variant-numeric:normal;font-variant-alternates:normal;font-feature-settings:normal;text-indent:0;text-align:start;text-decoration:none;text-decoration-line:none;text-decoration-style:solid;text-decoration-color:#000000;letter-spacing:normal;word-spacing:normal;text-transform:none;writing-mode:lr-tb;direction:ltr;text-orientation:mixed;dominant-baseline:auto;baseline-shift:baseline;text-anchor:start;white-space:normal;shape-padding:0;clip-rule:nonzero;display:inline;overflow:visible;visibility:visible;opacity:1;isolation:auto;mix-blend-mode:normal;color-interpolation:sRGB;color-interpolation-filters:linearRGB;solid-color:#000000;solid-opacity:1;vector-effect:none;fill:#fa5d5d;fill-opacity:1;fill-rule:nonzero;stroke:none;stroke-width:1.33333337;stroke-linecap:butt;stroke-linejoin:miter;stroke-miterlimit:4;stroke-dasharray:none;stroke-dashoffset:0;stroke-opacity:1;color-rendering:auto;image-rendering:auto;shape-rendering:auto;text-rendering:auto;enable-background:accumulate"
     d="m 879.20108,55.87124 c -2.33407,0 -5.34135,1.17232 -7.20898,2.83204 -0.99374,0.8831 -2.85568,3.3625 -4.96289,6.57421 -2.10722,3.21172 -4.51135,7.18759 -6.80469,11.21485 -2.29334,4.02726 -4.47769,8.10578 -6.14453,11.52148 -1.66685,3.41571 -2.81687,6.23824 -3.0293,7.45313 -0.45123,2.58068 -4.4435,22.23847 -8.90625,43.87304 -16.92157,82.03164 -20.24679,98.30667 -22.23047,108.81836 l -2.08203,11.03321 -23.03516,22.77148 c -13.16043,13.00996 -17.87685,18.37651 -29.1621,25.41406 -11.28528,7.03755 -29.08694,15.73292 -68.56055,35.54297 -78.35387,39.32234 -115.88503,62.94913 -155.64453,97.96875 -34.86602,30.70951 -55.28983,59.46257 -66.91016,94.13477 -2.78767,8.3174 -3.65437,14.13174 -4.49805,30.2168 -4.11182,78.39283 2.47401,170.62858 15.35352,215.7832 4.65202,16.30999 19.94033,46.58902 30.86914,61.11523 11.9525,15.88698 28.92112,32.47393 44.86328,43.85742 22.12942,15.80146 34.69446,26.74646 42.82031,37.35547 l 8.04297,10.50196 -5.50195,6.75781 c -16.17167,19.85983 -45.84326,44.64083 -82.6582,69.08792 -33.99908,22.5772 -61.87973,37.97 -102.08985,56.3632 -43.3408,19.8252 -75.82096,30.1525 -104.05664,31.1602 -28.23567,1.0077 -52.18848,-7.3413 -78.3125,-24.7246 -28.63275,-19.0527 -48.17387,-40.7058 -61.09375,-67.7305 -7.8216,-16.36059 -10.82054,-29.50509 -10.81054,-47.44329 0.0215,-59.07268 31.22334,-117.83903 79.69921,-150.09379 26.20717,-17.43766 53.61083,-23.99938 86.79493,-20.79688 l 14.64843,1.41407 8.72657,7.66211 8.79296,7.71875 -0.01,20.47265 c -0.01,25.25249 -2.4989,42.07788 -9.19727,62.11133 -7.17078,21.44579 -9.50832,34.17535 -9.57812,52.10547 -0.0489,12.61979 0.5208,17.17519 3.36523,26.89259 2.45838,8.3983 4.45512,13.7915 6.81836,17.5664 2.36324,3.7749 5.07267,5.9682 9.15039,8.0684 3.26059,1.6792 9.20296,1.9669 16.15039,0.873 6.94744,-1.0939 14.91274,-3.521 22.34766,-7.0371 18.72375,-8.8551 37.64538,-31.616 47.64453,-57.49806 10.2885,-26.63111 15.1067,-56.45163 15.0957,-93.57812 -0.008,-28.25474 -1.39812,-37.22056 -9.11328,-58.80664 -11.90137,-33.29931 -38.66434,-64.58204 -72.73609,-84.9668 -46.64681,-27.9083 -114.00707,-28.37691 -171.65429,-1.09961 -64.15267,30.35552 -118.06984,91.00274 -152.05074,171.13281 -23.0959,54.46234 -32.5526,106.60522 -29.4336,162.25391 5.2917,94.4129 39.9842,161.0988 106.94332,205.707 31.82254,21.2002 66.34031,34.0277 112.89258,41.9278 30.80203,5.2271 110.69547,4.8079 154.56641,-0.8477 26.26694,-3.3861 46.99972,-10.084 67.13281,-21.6738 3.06078,-1.762 17.30828,-10.5576 37.69141,-23.25 20.3831,-12.6925 46.941,-29.3014 74.75195,-46.7657 44.30751,-27.8235 69.74937,-43.7019 84.69922,-52.6308 14.94984,-8.9289 19.32661,-10.9805 21.98828,-10.9805 1.45503,0 2.77615,0.081 3.76367,0.2168 0.49376,0.068 0.8991,0.145 1.23047,0.252 0.16568,0.054 0.3123,0.1087 0.46875,0.2129 0.15645,0.1041 0.4043,0.3187 0.4043,0.6992 0,0.2953 -0.0684,0.3289 -0.11329,0.4199 -0.0449,0.091 -0.0966,0.1804 -0.16015,0.2832 -0.12707,0.2056 -0.30111,0.4611 -0.52149,0.7715 -0.44074,0.6207 -1.06658,1.456 -1.83984,2.457 -1.54652,2.0021 -3.67488,4.6585 -6.01563,7.4922 -8.29435,10.042 -19.12185,24.182 -28.43945,36.9024 -9.3176,12.7198 -17.15786,24.0919 -19.36328,28.3457 -12.99816,25.0704 -17.14138,57.406 -12.16016,95.4589 4.39943,33.6076 12.49407,56.7678 29.87696,85.4766 19.51449,32.2293 33.66841,52.1644 65.33203,92.0156 13.93591,17.5394 26.93181,34.3524 37.12305,47.9532 10.19124,13.6005 17.55962,23.9527 20.3164,28.7089 6.84025,11.8015 12.5375,25.4194 15.40039,36.8379 1.78478,7.1085 2.66011,17.5555 2.66211,27.5547 0.002,9.9992 -0.8533,19.4996 -2.66797,24.8242 -7.97588,23.4028 -23.46001,44.4907 -39.83984,54.0879 -6.49183,3.8037 -19.46916,7.6973 -25.86524,7.6973 h -4.38671 v -14.6934 c 0,-18.1674 -3.46493,-66.6053 -6.09571,-85.2148 -10.69496,-75.6524 -47.63159,-132.1123 -96.78125,-148.4238 -17.21386,-5.7129 -27.1182,-6.9927 -53.11914,-6.8594 -47.15591,0.2415 -86.95875,9.8322 -131.71093,31.7402 -59.76043,29.2552 -105.05791,73.1699 -131.80079,127.7442 -14.47498,29.5394 -20.49218,56.5765 -20.49218,92.1191 0,51.0977 13.72125,84.251 51.1582,123.5781 50.06793,52.5961 121.62952,84.6577 208.4375,93.3242 25.96712,2.5925 47.85765,1.8939 63.57812,-1.9882 7.74579,-1.9128 18.9809,-3.8254 25.11133,-4.2657 l 11.71094,-0.8398 0.0312,5.2422 c 0.007,1.1472 0.29814,4.0319 0.76563,7.623 0.46744,3.5912 1.10842,7.9283 1.81054,12.1367 3.36378,20.162 5.58641,31.3882 8.83985,38.584 3.25344,7.1959 7.48432,10.4462 15.22656,14.8965 5.77004,3.3167 9.60323,6.8349 11.70117,11.2324 2.09794,4.3976 2.42837,9.6056 1.39258,16.211 -1.64435,10.4855 -5.97312,18.0563 -17.89453,31.4101 -15.92588,17.8397 -21.86914,29.1356 -21.86914,41.1953 v 4.2715 l 7.61328,-0.6172 c 12.05331,-0.9766 22.57979,-3.8663 36.06445,-9.9121 6.61549,-2.9659 16.25522,-6.4694 21.56055,-7.8261 6.11552,-1.5641 15.89229,-2.7809 24.6582,-3.3653 4.38295,-0.2924 8.50658,-0.4244 11.79102,-0.3554 1.64221,0.034 3.07433,0.1186 4.23437,0.2617 1.16004,0.1431 2.0309,0.3192 2.66797,0.6601 0.94667,0.5067 2.07288,1.6285 3.35352,3.1094 1.28063,1.4809 2.65461,3.3057 3.83203,5.1406 1.79387,2.7955 3.18629,4.547 5.37304,6.2305 2.18675,1.6835 5.20486,3.3062 10.18946,5.7187 52.79865,25.5542 95.00942,37.7356 142.70703,41.1973 10e-4,10e-5 0.003,-1e-4 0.004,0 7.69778,0.5586 15.19999,1.0983 16.65821,1.1973 3.91188,0.2659 14.49672,-0.4616 25.67383,-1.6153 11.1771,-1.1536 23.03462,-2.7279 29.70507,-4.1074 54.09951,-11.1882 106.44641,-40.7293 150.82231,-85.1445 30.0874,-30.114 51.0004,-58.5997 66.4981,-90.5547 14.7231,-30.3582 20.5313,-50.8129 22.0918,-77.748 4.0309,-69.5809 2.3137,-106.8753 -6.9083,-150.2891 -4.7902,-22.5526 -19.2429,-75.7432 -35.1894,-129.4824 -3.1559,-10.6352 -6.0278,-20.463 -6.4297,-22.0235 -0.358,-1.3904 -4.5925,-16.7555 -9.3691,-33.9882 -18.4156,-66.4394 -23.6274,-102.8641 -21.67,-151.5372 3.4035,-84.6277 21.9508,-142.9794 56.6993,-177.7773 18.2739,-18.3 37.9087,-26.1953 65.1054,-26.1953 13.9016,0 25.0861,2.5853 34.295,8.3008 9.2089,5.7154 16.4061,14.54 22.4043,26.8925 7.5395,15.5268 11.7465,26.4889 14.3847,46.9219 2.6382,20.433 3.7345,50.3496 5.1348,104 1.5281,58.5491 1.9624,65.1117 5.4844,82.1778 21.5304,104.3291 67.4327,192.3285 132.9453,254.9531 31.7814,30.3804 58.7517,47.078 96.4902,59.748 11.0847,3.7214 13.9579,4.0899 40.4844,5.2696 38.062,1.6925 117.5983,0.5044 144.5703,-2.1504 11.7338,-1.155 27.8582,-2.7291 35.832,-3.4981 22.5122,-2.171 53.4839,-3.1553 81.9297,-3.0137 28.4458,0.1422 54.3184,1.3972 66.7832,3.7618 40.7356,7.7273 67.1104,27.6307 74.9121,56.7734 3.2484,12.1341 2.8801,32.2975 -0.8086,45.9668 -11.3267,41.9729 -60.7169,68.1235 -106.4101,56.457 -12.7343,-3.2513 -19.223,-6.3433 -24.2383,-11.6484 -6.4709,-6.8448 -8.153,-16.1853 -5.252,-28.4004 3.3324,-14.031 5.5459,-31.3684 4.9434,-38.0234 -0.8086,-8.9324 -6.1879,-19.4492 -12.6738,-24.8399 -2.4891,-2.0688 -8.5202,-5.7813 -13.2285,-8.1093 -4.1619,-2.058 -6.3816,-3.0838 -9.4864,-3.6094 -3.1047,-0.5261 -7.1641,-0.5441 -14.8808,-0.4961 -13.3648,0.083 -17.1543,0.5837 -23.7832,3.1367 -8.9115,3.432 -15.3392,9.2687 -19.836,18.5215 -4.4967,9.2528 -7.0221,21.9426 -7.9492,38.9433 -2.5525,46.8085 21.4506,90.8292 65.5391,120.0508 22.2865,14.7716 45.8347,23.8123 74.5468,28.6133 18.8126,3.1457 57.0741,2.2066 73.3008,-1.7754 32.1517,-7.8899 59.2212,-24.5536 80.1856,-49.3555 22.8339,-27.0134 38.2449,-58.8916 45.6191,-94.371 1.4803,-7.122 2.3532,-25.3333 2.4707,-43.4883 0.1174,-18.1551 -0.5179,-36.3977 -1.9062,-43.584 -7.3291,-37.9378 -16.9783,-58.1326 -38.5235,-80.6836 -16.641,-17.4179 -38.4004,-32.4486 -60.6132,-41.8711 -31.2618,-13.2609 -67.4553,-22.3973 -109.1543,-27.543 -58.1021,-7.1698 -68.2445,-8.5961 -100.6973,-14.1504 -54.4979,-9.3273 -90.3117,-19.6482 -129.5098,-37.3339 -29.4044,-13.267 -44.617,-23.3052 -64.6738,-42.6797 -22.5555,-21.7886 -40.0257,-46.8395 -56.4414,-80.9082 -13.1846,-27.3625 -20.7426,-51.3968 -26.168,-83.2071 -2.5356,-14.8671 -2.9036,-22.0917 -2.8906,-57.082 0.011,-34.2599 0.3482,-41.2343 2.3867,-48.1484 2.2687,-7.694 4.4378,-12.9242 7.2227,-16.5235 2.7849,-3.5993 6.2121,-5.5132 10.7304,-6.5 1.1834,-0.2584 2.3687,-0.3217 3.7793,0.1426 1.4107,0.4643 3.0419,1.4159 5.3321,3.1289 4.5803,3.4261 11.8265,9.9369 24.9882,21.9531 29.602,27.0258 71.884,58.8251 107.9356,81.1739 46.8546,29.0455 137.1171,74.8438 208.3516,105.707 16.741,7.2533 24.6056,10.5954 28.6992,12.8613 4.0936,2.266 4.4765,3.6601 5.7519,6.3477 1.7599,3.7085 2.1316,7.2384 1.584,14.4805 -0.9585,12.6748 -5.0229,23.748 -12.7598,34.789 -10.1748,14.5203 -13.3531,20.8588 -15.6972,31.2793 -1.9452,8.6471 -1.8991,18.994 -0.3653,27.9219 1.5339,8.9279 4.6287,16.4283 8.3672,19.3691 2.0786,1.635 5.9271,3.1381 10.0313,4.0508 4.1042,0.9127 8.487,1.2544 11.6406,0.75 10.2058,-1.6319 17.697,-5.9311 26.4805,-15.2422 11.1681,-11.8388 14.1272,-16.3089 28.625,-43.1914 3.366,-6.2416 6.7986,-12.2903 9.6211,-17.0137 1.4112,-2.3616 2.6705,-4.3913 3.6953,-5.9531 1.0247,-1.5617 1.7789,-2.6269 2.334,-3.1855 l 3.5058,-3.5293 114.58,-0.7696 c 55.1322,-0.3704 83.8094,-0.5873 100.0527,-1.0488 16.2435,-0.4615 19.9814,-1.1552 25.4297,-2.5019 27.0979,-6.6986 47.8695,-15.9636 72.5782,-32.377 19.4937,-12.9493 47.0814,-40.3868 59.3378,-59.0039 24.9064,-37.8314 36.9102,-75.8396 36.9102,-116.8066 0,-41.5191 -8.9927,-82.5423 -25.2734,-115.3829 -27.1648,-54.7955 -69.7577,-91.8399 -122.9102,-106.9531 -22.8652,-6.5013 -33.5481,-7.7213 -67.8164,-7.7363 -26.4538,-0.012 -35.7382,0.4695 -45.2051,2.3242 -16.9894,3.3285 -34.5225,9.1622 -48.078,15.9902 -43.2241,21.7724 -80.1515,66.6228 -102.4023,124.504 -5.5981,14.562 -14.0229,39.4404 -21.0411,61.4042 -3.509,10.9823 -6.6677,21.2375 -8.9472,29.1114 -1.1398,3.9369 -2.0584,7.2806 -2.6914,9.8144 -0.6331,2.5339 -0.9688,4.343 -0.9688,4.8731 0,0.9335 -0.4566,1.8807 -1.1211,2.8047 -0.6644,0.9239 -1.5627,1.8099 -2.5742,2.4726 -2.855,1.8707 -6.2781,2.0169 -10.1934,0.4395 -3.9153,-1.5774 -8.3983,-4.8287 -13.7285,-9.8184 -4.7986,-4.4922 -19.6018,-16.5889 -32.791,-26.7832 -13.1999,-10.2026 -31.7989,-24.5732 -41.332,-31.9336 -9.5443,-7.3688 -24.9071,-19.7013 -34.1621,-27.4258 -8.4607,-7.0613 -23.159,-20.2204 -35.8594,-31.9004 -6.3502,-5.8399 -12.1985,-11.3091 -16.5156,-15.4589 -2.1586,-2.075 -3.933,-3.8193 -5.2012,-5.1211 -0.6341,-0.6509 -1.1415,-1.1895 -1.5117,-1.6114 -0.1851,-0.2109 -0.3352,-0.3921 -0.4551,-0.5507 -0.1199,-0.1587 -0.2101,-0.2684 -0.2891,-0.4786 -0.127,-0.3361 -0.077,-0.754 0.1016,-1.0429 0.1785,-0.289 0.4329,-0.4738 0.7148,-0.6172 0.564,-0.2869 1.2834,-0.418 2.1192,-0.418 1.289,0 4.7717,-0.5074 9.4551,-1.3789 4.6834,-0.8715 10.6334,-2.1009 17.1172,-3.5273 12.9674,-2.853 28.0751,-6.4954 39.498,-9.6446 98.0954,-27.0433 183.4724,-67.5272 242.7577,-115.0722 44.5904,-35.7601 65.3636,-63.83319 76.3456,-103.07814 1.3941,-4.98155 2.0872,-7.96508 2.5569,-28.53125 0.4694,-20.56618 0.6962,-58.60724 1.121,-133.4375 0.4596,-80.92994 0.6463,-120.35993 1.5487,-142.43946 0.9024,-22.07952 2.5445,-26.88607 5.8555,-38.27539 7.2549,-24.95593 24.4601,-48.35888 41.7421,-56.48242 9.596,-4.51055 21.8671,-6.03522 33.8965,-4.24609 2.7495,0.40894 5.4454,0.89111 7.5841,1.34179 1.0693,0.22535 1.9985,0.44245 2.7324,0.64063 0.7339,0.19818 1.2386,0.34753 1.6211,0.5625 0.3017,0.16962 0.6524,0.4492 1.205,0.89844 0.5526,0.44923 1.2674,1.05078 2.125,1.79101 1.7154,1.48047 4.0044,3.51006 6.6992,5.92969 5.39,4.83926 12.3988,11.24148 19.6466,17.93359 14.4955,13.38424 29.926,27.90392 35.2988,33.41797 18.4781,18.96392 28.4812,32.93543 37.8067,52.82422 13.502,28.79674 17.3213,47.22881 17.4375,84.10547 0.038,12.14752 0.013,18.738 -0.3711,22.98828 -0.3837,4.25029 -1.1675,6.20925 -2.5469,8.78711 -2.0025,3.74233 -4.2645,6.67603 -9.1094,10.68555 -4.8449,4.00952 -12.2863,9.13497 -24.7832,17.42187 -18.8347,12.48957 -29.2883,20.17397 -34.9649,27.75782 -5.6764,7.58383 -6.7061,15.1141 -6.658,27.6914 0.057,14.71187 2.0501,24.25613 7.0917,30.26172 5.0416,6.00559 13.2443,8.66765 26.1269,9.39648 13.4603,0.76151 30.474,-1.92235 42.1505,-6.63867 41.0685,-16.58831 70.2375,-59.73017 83.0312,-123.16015 10.6592,-52.84612 -0.7775,-122.35476 -30.3828,-184.23633 -15.9672,-33.37512 -31.5097,-56.22877 -54.375,-79.96094 -46.8807,-48.65807 -98.0138,-70.48013 -158.9747,-67.88672 -56.7753,2.41536 -94.8077,17.06232 -126.2713,48.56445 -37.4995,37.54526 -60.8521,82.43862 -76.5039,147.15235 -11.484,47.48085 -15.7056,92.90477 -17.5059,188.52344 -0.4646,24.67376 -0.9474,38.90574 -2.3066,48.99414 -1.3593,10.0884 -3.6166,16.03939 -7.5528,23.95703 -7.1451,14.37277 -15.414,24.47885 -28.6406,35.01367 -30.6787,24.43525 -79.6442,38.00385 -137.8965,38.33595 -20.6786,0.1178 -24.2963,-0.2261 -37.3242,-3.5215 -26.0849,-6.5984 -49.2566,-17.34418 -60.3613,-28.13672 -12.977,-12.61212 -20.3059,-32.48139 -18.6192,-50.48242 0.1469,-1.56773 1.4721,-3.38118 3.8262,-5.92578 2.3541,-2.5446 5.7943,-5.7301 10.3281,-9.57226 9.0677,-7.68432 22.5073,-17.98882 40.2832,-30.88282 72.9817,-52.9382 78.0437,-56.98039 105.3613,-84.21484 52.0253,-51.86574 73.7202,-101.6318 73.6602,-168.91016 -0.036,-40.81425 -10.1845,-73.08794 -31.0449,-98.90234 -11.4954,-14.22537 -23.3698,-26.94094 -56.6133,-60.62891 -15.1734,-15.37628 -23.0891,-23.45222 -27.5332,-28.6875 -4.4441,-5.23528 -5.4372,-7.72594 -6.5859,-11.59179 -2.0961,-7.05342 -2.2116,-9.65003 -0.8516,-19.61328 2.7791,-20.36071 8.0172,-32.43703 21.0391,-48.51368 15.737,-19.42867 33.1418,-33.90235 69.3554,-57.70117 5.8336,-3.83373 11.5428,-7.74818 16.0352,-10.96289 4.4924,-3.21471 7.8325,-5.80846 8.6816,-6.70898 6.9438,-7.365 9.3152,-18.27691 6.0684,-27.94532 -1.7791,-5.29728 -4.0703,-8.51161 -8.8301,-10.80078 -4.7598,-2.28917 -12.071,-3.58349 -23.6816,-4.6582 -45.1305,-4.17736 -83.8277,5.00354 -113.2149,26.78906 -29.9537,22.20534 -52.4568,63.45719 -58.8359,108.01953 -3.812,26.62862 -1.9672,62.03534 4.1641,80.98828 3.7132,11.47939 16.8883,37.77657 30.7382,61.25586 16.5801,28.10787 27.2625,49.31882 30.5528,60.8125 1.9766,6.90525 2.5039,13.35485 2.5039,30.18164 v 0.002 c 0,23.58426 -1.9747,33.07282 -10.3164,49.63281 -12.4537,24.72282 -38.433,51.39115 -71.8887,73.90234 -61.6585,41.48779 -160.9786,69.61628 -224.7676,63.5918 -2.4911,-0.23528 -4.7523,-0.54002 -6.4101,-0.8457 -0.8289,-0.15284 -1.503,-0.30369 -2.0039,-0.45703 -0.2505,-0.0767 -0.4544,-0.1501 -0.6426,-0.25 -0.094,-0.05 -0.1862,-0.10301 -0.2891,-0.20313 -0.1029,-0.10012 -0.25,-0.28387 -0.25,-0.56445 v -0.004 -0.004 c 0,-0.33037 0.1227,-0.45637 0.2207,-0.59961 0.098,-0.14325 0.2132,-0.27912 0.3535,-0.42774 0.2807,-0.29724 0.6582,-0.63984 1.1172,-1.02539 0.9181,-0.77109 2.1613,-1.70477 3.5313,-2.63281 4.5534,-3.08452 11.515,-9.347 17.7656,-15.67774 6.2506,-6.33073 11.8387,-12.81206 13.6269,-16.09765 5.8261,-10.70435 8.5371,-26.21569 8.1641,-41.42969 -0.373,-15.214 -3.8356,-30.13458 -10.1387,-39.65039 -1.759,-2.6557 -7.2631,-8.52179 -14.3222,-15.35938 -7.0592,-6.83757 -15.7075,-14.71247 -23.8926,-21.63671 l -6.2832,-5.31446 3.6953,-4.92578 c 1.7818,-2.37568 4.5052,-6.81626 5.9766,-9.74805 1.5435,-3.07522 4.9075,-8.06663 7.5703,-11.2539 1.2843,-1.5372 2.4581,-3.22087 3.2988,-4.67188 0.8407,-1.45101 1.3086,-2.77192 1.3086,-3.12109 0,-0.26009 -0.029,-0.41161 -0.074,-0.50391 -0.046,-0.0923 -0.1114,-0.18212 -0.375,-0.31445 -0.5273,-0.26466 -1.7982,-0.54064 -4.1719,-0.72656 -4.7474,-0.37185 -13.9293,-0.49326 -31.4102,-0.66211 l -38.0585,-0.36719 18.2031,-22.82812 c 30.7936,-38.61399 61.5254,-82.68745 72.1797,-103.46289 7.6852,-14.9859 14.601,-33.50994 18.6152,-49.85547 2.7948,-11.38051 3.0811,-15.42825 2.9961,-41.83789 -0.1018,-31.51588 -1.4522,-40.80668 -9.375,-64.44336 -14.9611,-44.63452 -49.1237,-86.20444 -92.9121,-113.01368 -49.1452,-30.08896 -108.7208,-46.59763 -167.8965,-46.51953 -41.1044,0.0543 -78.4247,8.88093 -118.7559,28.09766 -63.3303,30.17529 -112.3599,81.28478 -130.3593,135.76563 -6.9005,20.88634 -8.3957,30.95261 -8.4357,56.77929 -0.039,25.38035 0.9458,33.16589 7.2775,57.56641 7.3238,28.22363 30.1393,72.02295 65.83,126.2168 5.4819,8.32389 8.6412,13.30355 10.4532,16.87109 1.8119,3.56754 2.2695,5.78543 2.2695,8.32812 v 6.34961 h -39.334 -38 v 3.60938 c 0,2.67822 2.5855,7.98358 9.3809,18.25976 2.6195,3.96169 4.9174,7.7756 6.5195,10.74414 0.8011,1.48428 1.4277,2.75351 1.8379,3.74414 0.2051,0.49532 0.3582,0.91928 0.4512,1.28516 0.093,0.36589 0.1859,0.65258 0.023,1.07617 -0.1072,0.27931 -0.2597,0.47586 -0.4746,0.7461 -0.2149,0.27023 -0.4918,0.58391 -0.8281,0.94336 -0.6727,0.7189 -1.5837,1.61889 -2.6739,2.64648 -2.1804,2.05518 -5.0773,4.6191 -8.1757,7.20703 -22.5874,18.86566 -36.9152,38.16729 -42.4395,57.02149 -3.8208,13.0405 -3.80948,37.57121 0.01,49.85156 4.9198,15.83527 15.9966,29.90624 36.1484,45.7793 5.1409,4.04929 8.521,7.19621 10.3965,9.86132 0.9378,1.33256 1.5055,2.55517 1.6816,3.72852 0.1761,1.17334 -0.068,2.28938 -0.6738,3.26953 -0.6085,0.98457 -1.9678,1.82899 -4.1504,2.97852 -2.1826,1.14952 -5.1773,2.49811 -8.9355,4.02929 -7.5165,3.06236 -18.081,6.85341 -31.1856,11.16602 l -25.44921,8.375 -22.75586,1.17383 c -31.69657,1.63507 -84.58735,1.31212 -106.0957,-0.65821 -60.60178,-5.55154 -89.67256,-12.36878 -123.56641,-28.99609 -18.94648,-9.29462 -31.12674,-17.80061 -44.21484,-30.88867 -32.98565,-32.98565 -47.61817,-71.9252 -48.00586,-127.61524 -0.21764,-31.26692 4.13367,-48.19433 17.74805,-68.9414 7.54511,-11.4982 27.92798,-32.90691 42.33007,-44.50781 13.34602,-10.75034 52.68799,-36.97124 82.75782,-55.17774 43.19708,-26.15472 69.80164,-46.28392 92.74023,-70.14844 27.53785,-28.64947 42.65289,-55.06136 50.49609,-88.1914 2.60502,-11.00347 2.95482,-16.10478 3.00782,-43.70703 0.0448,-23.22399 -0.56205,-35.75665 -2.34571,-48.57227 -5.47757,-39.35598 -7.80466,-55.47635 -10.19531,-70.6543 -1.38845,-8.8143 -2.93641,-20.50548 -3.44727,-26.04297 -0.44086,-4.77823 -0.74121,-7.27994 -1.55664,-9.17773 -0.81542,-1.89779 -2.18808,-3.33256 -4.94726,-6.00586 -4.41566,-4.27818 -9.18785,-8.01882 -13.44336,-10.67773 -4.25551,-2.65892 -8.04792,-4.20118 -10.20508,-4.20118 z m 49.14258,1124.96676 0.96289,13.8907 c 2.71022,39.0499 11.2553,90.7766 21.52734,130.3086 2.47716,9.5335 4.88754,18.831 5.35938,20.6699 11.74925,45.7882 36.34007,110.8765 74.48043,197.0976 8.567,19.3667 21.2475,48.7654 28.1856,65.3457 6.9336,16.5699 14.3731,34.0455 16.5078,38.7813 9.678,21.4699 22.5864,62.1286 28.623,90.1328 5.5149,25.5832 6.3381,49.649 2.7774,80.8828 -6.804,59.685 -20.0839,106.3547 -40.4219,140.916 -20.338,34.5614 -47.7626,57.0006 -82.72069,68.1231 -19.70779,6.2704 -30.58196,7.8162 -57.40039,8.1582 l -24.91602,0.3183 -2.62109,3.2891 c -0.90218,1.1314 -1.7238,2.0421 -2.83399,2.6426 -1.11018,0.6004 -2.46013,0.8467 -4.29882,0.7597 -3.67739,-0.1732 -9.45938,-1.613 -20.27735,-4.4316 -25.73843,-6.7059 -38.7103,-11.0041 -52.11328,-17.2754 -10.89931,-5.0998 -17.77826,-9.4692 -22.8457,-16.2207 -5.06744,-6.7515 -8.28279,-15.7985 -12.04688,-30.2207 -2.57452,-9.8645 -6.75068,-24.2525 -9.26562,-31.9258 -3.30188,-10.0742 -9.83669,-36.8675 -15.56836,-62.3457 -2.86584,-12.7391 -5.52692,-25.1386 -7.47266,-34.9297 -0.97287,-4.8955 -1.76847,-9.1395 -2.32031,-12.4511 -0.55184,-3.3117 -0.86523,-5.6536 -0.86523,-6.9141 0,-1.6998 0.28606,-3.269 1.17773,-4.8223 0.89167,-1.5532 2.35743,-3.0735 4.66016,-4.8203 4.60544,-3.4936 12.61232,-7.9288 26.51953,-15.2207 13.56649,-7.1132 33.96548,-17.8157 45.33203,-23.7812 38.06445,-19.9778 64.3115,-39.3017 81.85352,-61.8887 17.54199,-22.587 26.41769,-48.4537 29.6914,-81.6641 3.52922,-35.8024 -0.12461,-71.8314 -10.06055,-99.4824 -9.52769,-26.515 -27.06016,-55.9977 -64.59179,-108.5469 -28.506,-39.912 -44.14785,-65.9659 -50.26563,-83.8554 -4.07493,-11.9158 -6.62249,-25.846 -7.45703,-38.7032 -0.83454,-12.8571 0.0265,-24.6234 2.88477,-32.2968 10.0238,-26.9109 40.49253,-52.9842 88.7832,-76.3008 6.42777,-3.1036 12.65136,-6.0194 17.50586,-8.2207 2.42725,-1.1007 4.51169,-2.0233 6.11133,-2.7012 1.59963,-0.6779 2.65919,-1.1017 3.25781,-1.2519 z m 1278.98824,1.3399 c 2.8876,0.033 5.8753,0.1793 8.9101,0.4394 12.1394,1.0407 25.047,3.8585 35.3731,8.1446 31.4385,13.0493 52.269,38.2704 59.0743,71.5214 2.3318,11.3937 2.7391,35.7428 0.7871,46.0352 -3.2264,17.0121 -14.1469,35.2936 -30.4864,50.9043 -20.402,19.4918 -48.3972,33.7322 -78.3437,39.8301 -19.5834,3.9878 -50.7879,3.2661 -79.75,-1.8887 -9.9424,-1.7696 -18.9133,-4.3938 -25.9238,-7.4395 -7.0105,-3.0451 -12.0463,-6.5487 -14.1309,-9.8535 -0.314,-0.4978 -0.6002,-1.5845 -0.7148,-3.0996 -0.1147,-1.5151 -0.086,-3.4622 0.078,-5.75 0.3276,-4.5756 1.1935,-10.52 2.4922,-17.2461 2.5973,-13.452 6.9212,-30.0385 12.0898,-45.2109 21.4608,-62.9978 56.2849,-111.2262 88.7168,-123.5039 5.4065,-2.0467 13.1653,-2.9817 21.8281,-2.8828 z M 567.07413,1566.049 c 11.05079,0.1542 16.65369,2.8857 23.85547,11.2129 3.11916,3.6065 8.335,12.805 13.41797,23.2421 5.08296,10.4372 10.08412,22.1636 12.9707,30.9825 4.16573,12.7268 12.82493,43.6958 14.50781,51.8535 0.38064,1.8451 2.28769,10.8367 4.24219,20.0039 2.09407,9.8218 3.28259,17.8616 3.57226,24.1269 0.28968,6.2654 -0.34492,10.7536 -1.7539,13.4239 -3.10327,5.881 -7.75998,9.9198 -16.45117,13.0527 -8.6912,3.1329 -21.39686,5.2922 -40.33985,7.2539 -17.12842,1.7737 -57.9575,1.4373 -76.91015,-0.6406 -18.8693,-2.0687 -33.7529,-6.4815 -44.92969,-13.3574 -11.17679,-6.876 -18.66478,-16.198 -22.81055,-28.2149 -3.83102,-11.1046 -4.09572,-35.3902 -0.46289,-50.291 13.41222,-55.0134 72.1221,-101.8008 128.80664,-102.6465 0.78723,-0.012 1.54844,-0.012 2.28516,0 z"
     id="path4511"
     inkscape:connector-curvature="0" />
</svg>
